<?xml version="1.0" standalone="no"?>
<!DOCTYPE svg PUBLIC "-//W3C//DTD SVG 1.1//EN" "http://www.w3.org/Graphics/SVG/1.1/DTD/svg11.dtd" >
<svg xmlns="http://www.w3.org/2000/svg" xmlns:xlink="http://www.w3.org/1999/xlink" version="1.1">
<metadata>
Created by FontForge 20150318 at Mon Oct 19 06:13:42 2015
 By uniteet7
Copyright (c) 2010 by Michael Everson. All rights reserved.
</metadata>
<defs>
<font id="Rupakara" horiz-adv-x="575" >
  <font-face 
    font-family="Rupakara"
    font-weight="500"
    font-stretch="normal"
    units-per-em="1000"
    panose-1="2 11 6 3 6 1 0 0 0 0"
    ascent="780"
    descent="-220"
    x-height="524"
    cap-height="711"
    bbox="-715 -316 1282 987"
    underline-thickness="50"
    underline-position="-75"
    unicode-range="U+0020-FB04"
  />
<missing-glyph horiz-adv-x="321" 
 />
    <glyph glyph-name="uniEFA0" unicode="M&#x310;" horiz-adv-x="783" 
d="M64 0v711h105l224 -609l225 609h101v-711h-75v588l-209 -580h-87l-209 580v-588h-75zM347 941q0 30 28 42q8 4 18 4q30 0 42 -27q2 -5 3 -10q1 -4 1 -9q0 -30 -28 -42q-8 -4 -18 -4q-30 0 -42 27q-2 5 -3 10q-1 4 -1 9zM290 919q6 -16 15 -27q18 -27 41 -41.5t49 -14.5
q57 0 92 54q8 13 15 28h76q-13 -40 -35 -70q-26 -37 -63.5 -57.5t-84.5 -20.5q-43 0 -80 17.5t-65 52.5q-26 32 -42 79h82z" />
    <glyph glyph-name="uniEFA1" unicode="m&#x310;" horiz-adv-x="769" 
d="M422 0h-74v321q0 72 -20.5 109.5t-57.5 37.5q-24 0 -47 -11.5t-41 -31t-29 -46t-11 -57.5v-322h-74v524h74v-74q31 48 60.5 66.5t67.5 18.5q99 0 135 -100q35 54 69.5 77t75.5 23q81 0 116.5 -53t35.5 -163v-319h-74v319q0 74 -21 111.5t-57 37.5q-24 0 -47 -11.5
t-41 -31t-29 -46t-11 -57.5v-322zM339 776q0 30 28 42q8 4 18 4q30 0 42 -27q2 -5 3 -10q1 -4 1 -9q0 -30 -28 -42q-8 -4 -18 -4q-30 0 -42 27q-2 5 -3 10q-1 4 -1 9zM280 732q6 -16 15 -27q18 -27 41 -41.5t49 -14.5q57 0 92 54q8 13 15 28h76q-13 -40 -35 -70
q-26 -37 -63.5 -57.5t-84.5 -20.5q-43 0 -80 17.5t-65 52.5q-26 32 -42 79h82z" />
    <glyph glyph-name="uniEFA2" unicode="M&#x306;" horiz-adv-x="783" 
d="M64 0v711h105l224 -609l225 609h101v-711h-75v588l-209 -580h-87l-209 580v-588h-75zM290 919q6 -16 15 -27q18 -27 41 -41.5t49 -14.5q57 0 92 54q8 13 15 28h76q-13 -40 -35 -70q-26 -37 -63.5 -57.5t-84.5 -20.5q-43 0 -80 17.5t-65 52.5q-26 32 -42 79h82z" />
    <glyph glyph-name="uniEFA3" unicode="m&#x306;" horiz-adv-x="769" 
d="M422 0h-74v321q0 72 -20.5 109.5t-57.5 37.5q-24 0 -47 -11.5t-41 -31t-29 -46t-11 -57.5v-322h-74v524h74v-74q31 48 60.5 66.5t67.5 18.5q99 0 135 -100q35 54 69.5 77t75.5 23q81 0 116.5 -53t35.5 -163v-319h-74v319q0 74 -21 111.5t-57 37.5q-24 0 -47 -11.5
t-41 -31t-29 -46t-11 -57.5v-322zM280 732q6 -16 15 -27q18 -27 41 -41.5t49 -14.5q57 0 92 54q8 13 15 28h76q-13 -40 -35 -70q-26 -37 -63.5 -57.5t-84.5 -20.5q-43 0 -80 17.5t-65 52.5q-26 32 -42 79h82z" />
    <glyph glyph-name="uniEFA4" unicode="N&#x306;" horiz-adv-x="641" 
d="M64 0v711h75l361 -567v567h77v-711h-71l-365 581v-581h-77zM228 919q6 -16 15 -27q18 -27 41 -41.5t49 -14.5q57 0 92 54q8 13 15 28h76q-13 -40 -35 -70q-26 -37 -63.5 -57.5t-84.5 -20.5q-43 0 -80 17.5t-65 52.5q-26 32 -42 79h82z" />
    <glyph glyph-name="uniEFA5" unicode="n&#x306;" horiz-adv-x="520" 
d="M142 0h-74v524h74v-79q61 90 143 90q112 0 151 -111l9 -32q5 -17 5.5 -34.5t1.5 -36.5v-321h-74v321q0 71 -27 107.5t-66 39.5q-25 0 -50.5 -12t-46 -32t-33.5 -46.5t-13 -55.5v-322zM155 732q6 -16 15 -27q18 -27 41 -41.5t49 -14.5q57 0 92 54q8 13 15 28h76
q-13 -40 -35 -70q-26 -37 -63.5 -57.5t-84.5 -20.5q-43 0 -80 17.5t-65 52.5q-26 32 -42 79h82z" />
    <glyph glyph-name="uniEFA6" unicode="R&#x306;" horiz-adv-x="558" 
d="M141 378h101q188 0 188 133q0 66 -47.5 98.5t-140.5 32.5h-101v-264zM455 0l-209 308h-105v-308h-77v711h178q58 0 107 -13t85 -38.5t56 -62.5t20 -86q0 -72 -47 -125t-131 -69l212 -317h-89zM167 919q6 -16 15 -27q18 -27 41 -41.5t49 -14.5q57 0 92 54q8 13 15 28h76
q-13 -40 -35 -70q-26 -37 -63.5 -57.5t-84.5 -20.5q-43 0 -80 17.5t-65 52.5q-26 32 -42 79h82z" />
    <glyph glyph-name="uniEFA7" unicode="r&#x306;" horiz-adv-x="375" 
d="M327 450q-32 20 -68 20q-23 0 -44 -11.5t-37 -32t-26 -49t-10 -63.5v-314h-74v524h74v-74q8 17 21 32.5t29 27.5t33 19.5t34 7.5q56 0 100 -27zM84 732q6 -16 15 -27q18 -27 41 -41.5t49 -14.5q57 0 92 54q8 13 15 28h76q-13 -40 -35 -70q-26 -37 -63.5 -57.5
t-84.5 -20.5q-43 0 -80 17.5t-65 52.5q-26 32 -42 79h82z" />
    <glyph glyph-name="uniEFA8" unicode="T&#x324;" horiz-adv-x="627" 
d="M48 711h533v-69h-223v-642h-77v642h-233v69zM388 -125q0 30 28 42q7 4 18 4q30 0 42 -27l3 -10q1 -3 1 -9q0 -30 -28 -42q-7 -4 -18 -4q-30 0 -42 27l-3 10q-1 3 -1 9zM158 -126q0 30 28 42q7 4 18 4q30 0 42 -27l3 -10q1 -3 1 -9q0 -30 -28 -42q-7 -4 -18 -4
q-30 0 -42 27l-3 10q-1 3 -1 9z" />
    <glyph glyph-name="uniEFA9" unicode="t&#x324;" horiz-adv-x="360" 
d="M124 458h-69v66h69v122h74v-122h96v-66h-96v-353q0 -57 57 -57h34v-62h-34q-74 0 -102.5 29.5t-28.5 87.5v355zM260 -125q0 30 28 42q7 4 18 4q30 0 42 -27l3 -10q1 -3 1 -9q0 -30 -28 -42q-7 -4 -18 -4q-30 0 -42 27l-3 10q-1 3 -1 9zM30 -126q0 30 28 42q7 4 18 4
q30 0 42 -27l3 -10q1 -3 1 -9q0 -30 -28 -42q-7 -4 -18 -4q-30 0 -42 27l-3 10q-1 3 -1 9z" />
    <glyph glyph-name="uniEFAA" unicode="S&#x324;" horiz-adv-x="587" 
d="M37 140l66 39q44 -69 87.5 -97t97.5 -28q33 0 63 11t52 30.5t35 46t13 58.5q0 48 -45.5 83.5t-132.5 61.5l-11 3q-196 53 -196 187q0 41 17 76.5t47 62t70.5 41.5t87.5 15q129 0 206 -95l18 -25l-61 -39q-25 43 -66.5 66.5t-96.5 23.5q-30 0 -56 -9t-45.5 -25.5
t-30.5 -39.5t-11 -52q0 -68 101 -108l70 -25q62 -24 103.5 -43.5t66 -42t34.5 -51t10 -71.5t-18.5 -81t-50.5 -66t-76.5 -44.5t-96.5 -17.5q-77 1 -141 39t-110 116zM358 -125q0 30 28 42q7 4 18 4q30 0 42 -27l3 -10q1 -3 1 -9q0 -30 -28 -42q-7 -4 -18 -4q-30 0 -42 27
l-3 10q-1 3 -1 9zM128 -126q0 30 28 42q7 4 18 4q30 0 42 -27l3 -10q1 -3 1 -9q0 -30 -28 -42q-7 -4 -18 -4q-30 0 -42 27l-3 10q-1 3 -1 9z" />
    <glyph glyph-name="uniEFAB" unicode="s&#x324;" horiz-adv-x="470" 
d="M234 240q-50 16 -82.5 32.5t-52 35t-27.5 39t-8 43.5q0 30 12 56t34 45.5t53.5 31.5t70.5 13h3q30 0 58.5 -7.5t52 -22t39 -35t20.5 -46.5l-69 -14q-20 59 -103 59q-18 0 -35.5 -5.5t-31 -15.5t-21.5 -24.5t-8 -31.5q0 -50 75 -75l21 -7q51 -19 85.5 -37.5t55.5 -38.5
t30 -42t9 -48q0 -32 -13.5 -61t-37.5 -50.5t-56.5 -34.5t-71.5 -13q-150 0 -184 120l69 13q16 -67 113 -67q21 0 40 7t34 19t23.5 29t8.5 38q0 60 -106 95zM303 -125q0 30 28 42q7 4 18 4q30 0 42 -27l3 -10q1 -3 1 -9q0 -30 -28 -42q-7 -4 -18 -4q-30 0 -42 27l-3 10
q-1 3 -1 9zM73 -126q0 30 28 42q7 4 18 4q30 0 42 -27l3 -10q1 -3 1 -9q0 -30 -28 -42q-7 -4 -18 -4q-30 0 -42 27l-3 10q-1 3 -1 9z" />
    <glyph glyph-name="uniEFAC" unicode="H&#x324;" horiz-adv-x="605" 
d="M64 711h77v-313h323v313h77v-711h-77v329h-323v-329h-77v711zM371 -125q0 30 28 42q7 4 18 4q30 0 42 -27l3 -10q1 -3 1 -9q0 -30 -28 -42q-7 -4 -18 -4q-30 0 -42 27l-3 10q-1 3 -1 9zM141 -126q0 30 28 42q7 4 18 4q30 0 42 -27l3 -10q1 -3 1 -9q0 -30 -28 -42
q-7 -4 -18 -4q-30 0 -42 27l-3 10q-1 3 -1 9z" />
    <glyph glyph-name="uniEFAD" unicode="h&#x324;" horiz-adv-x="520" 
d="M142 0h-74v710h74v-260q22 27 39.5 43.5t33.5 25.5t31.5 12.5t34.5 3.5q80 0 125.5 -53t45.5 -161v-321h-74v321q0 147 -97 147q-26 0 -51 -12t-44.5 -32.5t-31.5 -47t-12 -54.5v-322zM331 -125q0 30 28 42q7 4 18 4q30 0 42 -27l3 -10q1 -3 1 -9q0 -30 -28 -42
q-7 -4 -18 -4q-30 0 -42 27l-3 10q-1 3 -1 9zM101 -126q0 30 28 42q7 4 18 4q30 0 42 -27l3 -10q1 -3 1 -9q0 -30 -28 -42q-7 -4 -18 -4q-30 0 -42 27l-3 10q-1 3 -1 9z" />
    <glyph glyph-name="uniEFB0" unicode="H&#x331;" horiz-adv-x="605" 
d="M64 711h77v-313h323v313h77v-711h-77v329h-323v-329h-77v711zM159 -68h295v-66h-295v66z" />
    <glyph glyph-name="uniEFB1" unicode="L&#x325;" horiz-adv-x="560" 
d="M194 -139q0 -8 2 -16q9 -41 46 -54q11 -3 23 -3q42 0 62 38q8 16 8 35q0 8 -1 16q-9 41 -47 54q-10 3 -22 3q-42 0 -62 -38q-9 -16 -9 -35zM137 -141q0 65 54 103q33 23 74 23q67 0 105 -54q15 -21 20 -46q3 -13 3 -26q0 -65 -54 -103q-33 -23 -74 -23q-67 0 -105 54
q-15 21 -20 46q-3 13 -3 26zM64 711h77v-642h374v-69h-451v711z" />
    <glyph glyph-name="uniEFB2" unicode="l&#x325;" horiz-adv-x="230" 
d="M68 -139q0 -8 2 -16q9 -41 46 -54q11 -3 23 -3q42 0 62 38q8 16 8 35q0 8 -1 16q-9 41 -47 54q-10 3 -22 3q-42 0 -62 -38q-9 -16 -9 -35zM11 -141q0 65 54 103q33 23 74 23q67 0 105 -54q15 -21 20 -46q3 -13 3 -26q0 -65 -54 -103q-33 -23 -74 -23q-67 0 -105 54
q-15 21 -20 46q-3 13 -3 26zM152 101q0 -51 58 -51v-64q-68 0 -100 28t-32 85v611h74v-609z" />
    <glyph glyph-name="uniEFB3" unicode="L&#x325;&#x304;" horiz-adv-x="560" 
d="M194 -139q0 -8 2 -16q9 -41 46 -54q11 -3 23 -3q42 0 62 38q8 16 8 35q0 8 -1 16q-9 41 -47 54q-10 3 -22 3q-42 0 -62 -38q-9 -16 -9 -35zM137 -141q0 65 54 103q33 23 74 23q67 0 105 -54q15 -21 20 -46q3 -13 3 -26q0 -65 -54 -103q-33 -23 -74 -23q-67 0 -105 54
q-15 21 -20 46q-3 13 -3 26zM64 711h77v-642h374v-69h-451v711zM-50 838h295v-66h-295v66z" />
    <glyph glyph-name="uniEFB4" unicode="l&#x325;&#x304;" horiz-adv-x="230" 
d="M68 -139q0 -8 2 -16q9 -41 46 -54q11 -3 23 -3q42 0 62 38q8 16 8 35q0 8 -1 16q-9 41 -47 54q-10 3 -22 3q-42 0 -62 -38q-9 -16 -9 -35zM11 -141q0 65 54 103q33 23 74 23q67 0 105 -54q15 -21 20 -46q3 -13 3 -26q0 -65 -54 -103q-33 -23 -74 -23q-67 0 -105 54
q-15 21 -20 46q-3 13 -3 26zM152 101q0 -51 58 -51v-64q-68 0 -100 28t-32 85v611h74v-609zM-32 839h295v-66h-295v66z" />
    <glyph glyph-name="uniEFB5" unicode="R&#x325;" horiz-adv-x="558" 
d="M209 -139q0 -8 2 -16q9 -41 46 -54q11 -3 23 -3q42 0 62 38q8 16 8 35q0 8 -1 16q-9 41 -47 54q-10 3 -22 3q-42 0 -62 -38q-9 -16 -9 -35zM152 -141q0 65 54 103q33 23 74 23q67 0 105 -54q15 -21 20 -46q3 -13 3 -26q0 -65 -54 -103q-33 -23 -74 -23q-67 0 -105 54
q-15 21 -20 46q-3 13 -3 26zM141 378h101q188 0 188 133q0 66 -47.5 98.5t-140.5 32.5h-101v-264zM455 0l-209 308h-105v-308h-77v711h178q58 0 107 -13t85 -38.5t56 -62.5t20 -86q0 -72 -47 -125t-131 -69l212 -317h-89z" />
    <glyph glyph-name="uniEFB6" unicode="r&#x325;" horiz-adv-x="375" 
d="M37 -139q0 -8 2 -16q9 -41 46 -54q11 -3 23 -3q42 0 62 38q8 16 8 35q0 8 -1 16q-9 41 -47 54q-10 3 -22 3q-42 0 -62 -38q-9 -16 -9 -35zM-20 -141q0 65 54 103q33 23 74 23q67 0 105 -54q15 -21 20 -46q3 -13 3 -26q0 -65 -54 -103q-33 -23 -74 -23q-67 0 -105 54
q-15 21 -20 46q-3 13 -3 26zM327 450q-32 20 -68 20q-23 0 -44 -11.5t-37 -32t-26 -49t-10 -63.5v-314h-74v524h74v-74q8 17 21 32.5t29 27.5t33 19.5t34 7.5q56 0 100 -27z" />
    <glyph glyph-name="uniEFB7" unicode="R&#x325;&#x304;" horiz-adv-x="558" 
d="M209 -139q0 -8 2 -16q9 -41 46 -54q11 -3 23 -3q42 0 62 38q8 16 8 35q0 8 -1 16q-9 41 -47 54q-10 3 -22 3q-42 0 -62 -38q-9 -16 -9 -35zM152 -141q0 65 54 103q33 23 74 23q67 0 105 -54q15 -21 20 -46q3 -13 3 -26q0 -65 -54 -103q-33 -23 -74 -23q-67 0 -105 54
q-15 21 -20 46q-3 13 -3 26zM141 378h101q188 0 188 133q0 66 -47.5 98.5t-140.5 32.5h-101v-264zM455 0l-209 308h-105v-308h-77v711h178q58 0 107 -13t85 -38.5t56 -62.5t20 -86q0 -72 -47 -125t-131 -69l212 -317h-89zM121 838h295v-66h-295v66z" />
    <glyph glyph-name="uniEFB8" unicode="r&#x325;&#x304;" horiz-adv-x="375" 
d="M37 -139q0 -8 2 -16q9 -41 46 -54q11 -3 23 -3q42 0 62 38q8 16 8 35q0 8 -1 16q-9 41 -47 54q-10 3 -22 3q-42 0 -62 -38q-9 -16 -9 -35zM-20 -141q0 65 54 103q33 23 74 23q67 0 105 -54q15 -21 20 -46q3 -13 3 -26q0 -65 -54 -103q-33 -23 -74 -23q-67 0 -105 54
q-15 21 -20 46q-3 13 -3 26zM327 450q-32 20 -68 20q-23 0 -44 -11.5t-37 -32t-26 -49t-10 -63.5v-314h-74v524h74v-74q8 17 21 32.5t29 27.5t33 19.5t34 7.5q56 0 100 -27zM40 651h295v-66h-295v66z" />
    <glyph glyph-name="uniEFB9" unicode="KH&#x35f;" horiz-adv-x="1223" 
d="M64 711h77v-346l345 346h94l-342 -341l370 -370h-101l-318 319l-48 -50v-269h-77v711zM682 711h77v-313h323v313h77v-711h-77v329h-323v-329h-77v711zM210 -68h799v-66h-799v66z" />
    <glyph glyph-name="uniEFBA" unicode="Kh&#x35f;" horiz-adv-x="1138" 
d="M64 711h77v-346l345 346h94l-342 -341l370 -370h-101l-318 319l-48 -50v-269h-77v711zM760 0h-74v710h74v-260q22 27 39.5 43.5t33.5 25.5t31.5 12.5t34.5 3.5q80 0 125.5 -53t45.5 -161v-321h-74v321q0 147 -97 147q-26 0 -51 -12t-44.5 -32.5t-31.5 -47t-12 -54.5v-322
zM210 -68h714v-66h-714v66z" />
    <glyph glyph-name="uniEFBB" unicode="kh&#x35f;" horiz-adv-x="991" 
d="M214 292l250 -292h-85l-215 244l-22 -26v-218h-74v710h74v-399l196 213h85zM613 0h-74v710h74v-260q22 27 39.5 43.5t33.5 25.5t31.5 12.5t34.5 3.5q80 0 125.5 -53t45.5 -161v-321h-74v321q0 147 -97 147q-26 0 -51 -12t-44.5 -32.5t-31.5 -47t-12 -54.5v-322zM210 -68
h569v-66h-569v66z" />
    <glyph glyph-name="f_f" unicode="ff" horiz-adv-x="740" 
d="M208 458v-458h-74v458h-68v66h68v54q0 68 35 106.5t104 38.5q17 -1 35.5 -5.5t35.5 -15.5l14 -9l-47 -47q-24 11 -33 11q-70 0 -70 -79v-54h96v-66h-96zM578 458v-458h-74v458h-68v66h68v54q0 68 35 106.5t104 38.5q17 -1 35.5 -5.5t35.5 -15.5l14 -9l-47 -47
q-24 11 -33 11q-70 0 -70 -79v-54h96v-66h-96z" />
    <glyph glyph-name="fi" unicode="fi" horiz-adv-x="600" 
d="M208 458v-458h-74v458h-68v66h68v54q0 106 83 136q25 9 56 9q35 0 71 -21q11 -7 14 -9l-47 -47q-23 11 -33 11q-70 0 -70 -79v-54h314v-524h-74v458h-240zM439 651q0 30 28 42q8 4 18 4q30 0 42 -27q2 -5 3 -10q1 -4 1 -9q0 -30 -28 -42q-8 -4 -18 -4q-30 0 -42 27
q-2 5 -3 10q-1 4 -1 9z" />
    <glyph glyph-name="fl" unicode="fl" horiz-adv-x="600" 
d="M208 458v-458h-74v458h-68v66h68v54q0 106 83 136q25 9 56 9q35 0 71 -21q11 -7 14 -9l-47 -47q-23 11 -33 11q-70 0 -70 -79v-54h96v-66h-96zM522 101q0 -8 1 -14q8 -37 57 -37v-64q-101 0 -124 64q-3 7 -4 16q-4 15 -4 33v611h74v-609z" />
    <glyph glyph-name="f_f_i" unicode="ffi" horiz-adv-x="970" 
d="M579 458v-458h-74v458h-68v66h68v54q0 106 83 136q25 9 56 9q35 0 71 -21q11 -7 14 -9l-47 -47q-23 11 -33 11q-70 0 -70 -79v-54h314v-524h-74v458h-240zM810 651q0 30 28 42q8 4 18 4q30 0 42 -27q2 -5 3 -10q1 -4 1 -9q0 -30 -28 -42q-8 -4 -18 -4q-30 0 -42 27
q-2 5 -3 10q-1 4 -1 9zM208 458v-458h-74v458h-68v66h68v54q0 68 35 106.5t104 38.5q17 -1 35.5 -5.5t35.5 -15.5l14 -9l-47 -47q-24 11 -33 11q-70 0 -70 -79v-54h96v-66h-96z" />
    <glyph glyph-name="f_f_l" unicode="ffl" horiz-adv-x="970" 
d="M208 458v-458h-74v458h-68v66h68v54q0 68 35 106.5t104 38.5q17 -1 35.5 -5.5t35.5 -15.5l14 -9l-47 -47q-24 11 -33 11q-70 0 -70 -79v-54h96v-66h-96zM578 458v-458h-74v458h-68v66h68v54q0 68 35 106.5t104 38.5q17 -1 35.5 -5.5t35.5 -15.5l14 -9l-47 -47
q-24 11 -33 11q-70 0 -70 -79v-54h96v-66h-96zM892 101q0 -51 58 -51v-64q-68 0 -100 28t-32 85v611h74v-609z" />
    <glyph glyph-name=".notdef" horiz-adv-x="321" 
 />
    <glyph glyph-name=".null" horiz-adv-x="0" 
 />
    <glyph glyph-name="nonmarkingreturn" horiz-adv-x="333" 
 />
    <glyph glyph-name="space" unicode=" " horiz-adv-x="321" 
 />
    <glyph glyph-name="exclam" unicode="!" horiz-adv-x="206" 
d="M142 195h-77v516h77v-516zM50 46q0 21 13.5 36.5t39.5 15.5q34 0 48 -30l3 -11q1 -2 1 -8q0 -23 -12.5 -39t-39.5 -16q-35 0 -48 30l-3 11q-2 6 -2 11z" />
    <glyph glyph-name="quotedbl" unicode="&#x22;" horiz-adv-x="357" 
d="M221 533l-10 183q0 16 9 26.5t26 10.5h2q15 0 25.5 -9t10.5 -28l-10 -183q-1 -10 -7.5 -16.5t-19.5 -6.5q-11 0 -18.5 5.5t-7.5 17.5zM78 533l-10 183q0 16 9 26.5t26 10.5h2q15 0 25.5 -9t10.5 -28l-10 -183q-1 -10 -7.5 -16.5t-19.5 -6.5q-11 0 -18.5 5.5t-7.5 17.5z
" />
    <glyph glyph-name="numbersign" unicode="#" horiz-adv-x="796" 
d="M478 267v165h-167v-165h167zM551 198v-172h-73v172h-167v-172h-73v172h-170v69h170v165h-170v68h170v185h73v-185h167v185h73v-185h176v-68h-176v-165h176v-69h-176z" />
    <glyph glyph-name="dollar" unicode="$" 
d="M34 206l59 19q6 -14 18 -28t28 -25t35 -17.5t40 -6.5q109 0 109 87q0 35 -30.5 60.5t-81.5 36.5q-90 15 -132 54.5t-42 102.5q0 25 11 49t30 43t44.5 31t54.5 12v87h73v-85q18 0 42 -10t45.5 -26t38 -37t21.5 -42l-60 -21q-5 13 -16.5 26.5t-28 24.5t-37 17.5t-41.5 6.5
q-104 0 -104 -80q0 -38 21.5 -56t78.5 -28q41 -7 75.5 -21.5t59 -35.5t38 -48t13.5 -60q0 -28 -10.5 -54.5t-29.5 -47t-46 -33t-60 -12.5v-89h-73v89q-18 0 -40.5 9.5t-43 26t-37 37.5t-22.5 44z" />
    <glyph glyph-name="percent" unicode="%" horiz-adv-x="705" 
d="M440 182q0 -35 19.5 -55t49.5 -20q29 0 50.5 20t21.5 55q0 32 -21 52.5t-51 20.5q-25 0 -47 -19t-22 -54zM377 182q0 25 9.5 49t27 42.5t42 29.5t54.5 11q24 0 48 -8.5t43 -25.5t31 -41.5t12 -56.5q0 -26 -10 -49.5t-28 -41.5t-42.5 -29t-53.5 -11q-24 0 -48 8.5
t-42.5 25t-30.5 41t-12 56.5zM118 526q0 -35 19 -55t51 -20q29 0 50.5 20t21.5 55q0 32 -21 52.5t-51 20.5q-26 0 -48 -19t-22 -54zM56 526q0 25 9.5 49t27 42.5t42 29.5t54.5 11q24 0 48 -8.5t43 -25.5t31 -41.5t12 -56.5q0 -26 -10 -49.5t-28 -41.5t-42.5 -29t-53.5 -11
q-24 0 -48 8.5t-42.5 25t-30.5 41t-12 56.5zM212 67h-73l352 577h70z" />
    <glyph glyph-name="ampersand" unicode="&#x26;" horiz-adv-x="626" 
d="M381 600q-9 27 -34.5 43.5t-64.5 16.5q-21 0 -40.5 -8t-35 -22t-25 -33.5t-9.5 -42.5q0 -50 30 -83t80 -33h83v-69h-81q-34 0 -63 -11t-50 -31.5t-33 -50t-12 -66.5q0 -33 12 -61.5t33 -49.5t48.5 -33t59.5 -12q29 0 56.5 11.5t48.5 31t34 46t13 56.5h-105v68h255v-69
h-69q0 -41 -18.5 -79t-50.5 -68t-74 -48t-90 -18q-45 0 -86.5 16t-73.5 45.5t-51 71t-19 92.5q0 30 10 62t27.5 59.5t42 47.5t54.5 28q-42 20 -65 57.5t-23 89.5q0 34 15 65.5t41 56t59.5 39t71.5 14.5q114 0 163 -91z" />
    <glyph glyph-name="quotesingle" unicode="'" horiz-adv-x="207" 
d="M78 533l-10 183q0 16 9 26.5t26 10.5h2q15 0 25.5 -9t10.5 -28l-10 -183q-1 -10 -7.5 -16.5t-19.5 -6.5q-11 0 -18.5 5.5t-7.5 17.5z" />
    <glyph glyph-name="parenleft" unicode="(" horiz-adv-x="288" 
d="M141 -41q-56 87 -86 189.5t-30 212.5q0 50 7 102.5t21.5 104.5t36 101.5t51.5 93.5h87q-129 -188 -129 -407q0 -103 34 -205.5t95 -191.5h-87z" />
    <glyph glyph-name="parenright" unicode=")" horiz-adv-x="282" 
d="M135 -47h-86q62 90 95.5 191.5t33.5 210.5q0 51 -9.5 104.5t-26.5 105.5t-41 101t-52 91h86q26 -42 47.5 -90.5t37 -101t24 -106t8.5 -104.5q0 -109 -29 -211t-88 -191z" />
    <glyph glyph-name="asterisk" unicode="*" horiz-adv-x="466" 
d="M296 278l65 -113l-59 -36l-66 114l-66 -114l-60 35l68 114h-140v69h139l-71 122l59 35l71 -123l70 125l59 -36l-68 -123h133v-69h-134z" />
    <glyph glyph-name="plus" unicode="+" horiz-adv-x="457" 
d="M43 347h150v152h69v-152h150v-69h-150v-152h-69v152h-150v69z" />
    <glyph glyph-name="comma" unicode="," horiz-adv-x="215" 
d="M160 46q0 -67 -57 -149l-3 -5l-27 15q35 53 35 87q-35 0 -48 31l-3 10q-1 3 -1 11q0 22 13 37t39 15q34 0 48 -30l3 -11q1 -2 1 -8v-3z" />
    <glyph glyph-name="hyphen" unicode="-" horiz-adv-x="443" 
d="M58 344h331v-69h-331v69z" />
    <glyph glyph-name="period" unicode="." horiz-adv-x="218" 
d="M56 46q0 22 13 37t39 15q34 0 48 -30l3 -11q1 -2 1 -8q0 -23 -12.5 -39t-39.5 -16q-35 0 -48 30l-3 11q-1 3 -1 11z" />
    <glyph glyph-name="slash" unicode="/" horiz-adv-x="415" 
d="M71 0h-77l350 754h77z" />
    <glyph glyph-name="zero" unicode="0" 
d="M54 355q0 78 16.5 146.5t47.5 119t74.5 79.5t96.5 29q46 0 87 -24t72.5 -71t50 -117t18.5 -162q0 -78 -16.5 -145.5t-46.5 -117.5t-73 -78.5t-96 -28.5q-47 0 -89 24t-73.5 71t-50 116t-18.5 159zM131 355q0 -72 12.5 -128t33.5 -94.5t49 -58.5t59 -20q33 0 61.5 22
t49.5 61.5t32.5 95t11.5 122.5q0 73 -12 130t-32.5 96t-48 59t-58.5 20q-33 0 -62 -23t-50.5 -64t-33.5 -97t-12 -121z" />
    <glyph glyph-name="one" unicode="1" 
d="M289 613l-99 -85l-47 56l147 127h76v-711h-77v613z" />
    <glyph glyph-name="two" unicode="2" 
d="M133 542l-68 27q9 32 29.5 61.5t49.5 51.5t64.5 35t74.5 13q45 0 84 -18.5t68.5 -51.5t46 -79t16.5 -102q0 -86 -81 -180l-95 -104l-118 -126h307v-69h-463l249 261q32 34 51 55t24 29q51 67 51 134q0 85 -37 133.5t-103 48.5q-51 0 -90.5 -30t-59.5 -89z" />
    <glyph glyph-name="three" unicode="3" 
d="M70 123l76 23q17 -38 54 -65t82 -27q68 0 110 37.5t42 105.5q0 63 -39.5 102t-110.5 39h-38v65h38q58 0 95.5 32.5t37.5 94.5q0 63 -36 98t-98 35h-3q-41 0 -75 -19.5t-49 -57.5l-67 31q25 49 77 81.5t117 32.5q43 0 81 -13.5t67 -39t46 -63t17 -85.5q0 -103 -95 -162
q22 -6 42.5 -21.5t36 -38t24.5 -50.5t9 -61q0 -46 -16 -85t-46 -67t-72.5 -44t-94.5 -16q-31 0 -63 9.5t-60.5 27.5t-52 43.5t-36.5 57.5z" />
    <glyph glyph-name="four" unicode="4" 
d="M427 706v-444h92v-68h-92v-194h-77v194h-302l296 517h83h3zM352 596l-189 -333h189v333z" />
    <glyph glyph-name="five" unicode="5" 
d="M300 394q-71 0 -124 -44l-3 -3l-71 37l46 327h328v-69h-264l-32 -209q43 27 120 27q46 0 85.5 -16t68.5 -46.5t46 -74.5t17 -99q0 -50 -16 -93.5t-45 -75.5t-69.5 -51t-89.5 -19q-79 0 -140.5 45t-85.5 131l76 14q40 -121 150 -121q31 0 57 12t45.5 34t30.5 53.5t11 71.5
q0 35 -11 65.5t-30 53.5t-44.5 36.5t-55.5 13.5z" />
    <glyph glyph-name="six" unicode="6" 
d="M434 199q0 32 -11.5 59t-32 46.5t-47.5 30.5t-58 11q-29 0 -55 -10.5t-45.5 -30t-31.5 -46t-12 -58.5q0 -30 11 -56.5t30 -45.5t45.5 -30t58.5 -11q29 0 56 10.5t47.5 29t32.5 44.5t12 57zM218 404q37 15 67 15q43 0 83 -16t71 -45t49.5 -69.5t18.5 -89.5
q0 -42 -17.5 -80.5t-47.5 -68.5t-71 -47.5t-87 -17.5q-39 0 -78 14.5t-69.5 42.5t-49.5 67.5t-19 90.5q0 85 66 198l189 342l62 -37z" />
    <glyph glyph-name="seven" unicode="7" 
d="M532 711l-271 -711h-89l252 638h-365v73h473z" />
    <glyph glyph-name="eight" unicode="8" 
d="M289 54q31 0 60.5 11.5t52 32.5t36 49.5t13.5 63.5q0 31 -11.5 58.5t-32.5 47.5t-50.5 32t-65.5 12q-34 0 -63 -10t-50 -29.5t-33 -47.5t-12 -63q0 -33 12 -62t33 -50t49.5 -33t61.5 -12zM167 549q0 -56 33.5 -87.5t90.5 -31.5q54 0 88.5 30.5t34.5 88.5q0 53 -34 83
t-90 30q-55 0 -89 -29.5t-34 -83.5zM290 731q40 0 76 -12.5t64 -35.5t44.5 -57t16.5 -77q0 -102 -92 -155q62 -28 95.5 -75.5t33.5 -107.5q0 -46 -18.5 -87t-51 -72t-76 -49t-93.5 -18q-45 0 -87 16.5t-74.5 46t-52 71t-19.5 92.5q0 126 125 183q-48 29 -69.5 66.5
t-21.5 88.5q0 37 14.5 70t40.5 58t63 39.5t82 14.5z" />
    <glyph glyph-name="nine" unicode="9" 
d="M148 514q0 -32 11.5 -59t32 -46.5t47.5 -30.5t58 -11q28 0 54 10.5t46 30t32 46t12 58.5q0 30 -11 56.5t-30 45.5t-46 30t-58 11q-29 0 -56 -10.5t-47.5 -29.5t-32.5 -44.5t-12 -56.5zM364 309q-38 -15 -67 -15q-43 0 -83 16t-71 45t-49.5 69.5t-18.5 89.5
q0 42 17.5 80.5t47.5 68.5t70.5 47.5t87.5 17.5q39 0 77.5 -14.5t69.5 -42.5t50 -67.5t19 -90.5q0 -86 -66 -198l-189 -342l-62 37z" />
    <glyph glyph-name="colon" unicode=":" horiz-adv-x="213" 
d="M65 402q0 22 13 37t39 15q34 0 48 -30l3 -11q1 -2 1 -8q0 -23 -12.5 -39t-39.5 -16q-35 0 -48 30l-3 11q-1 3 -1 11zM66 46q0 22 13 37t39 15q34 0 48 -30l3 -11q1 -2 1 -8q0 -23 -12.5 -39t-39.5 -16q-35 0 -48 30l-3 11q-1 3 -1 11z" />
    <glyph glyph-name="semicolon" unicode=";" horiz-adv-x="213" 
d="M170 46q0 -67 -57 -149l-3 -5l-27 15q35 53 35 87q-35 0 -48 31l-3 10q-1 3 -1 11q0 22 13 37t39 15q34 0 48 -30l3 -11q1 -2 1 -8v-3zM65 402q0 22 13 37t39 15q34 0 48 -30l3 -11q1 -2 1 -8q0 -23 -12.5 -39t-39.5 -16q-35 0 -48 30l-3 11q-1 3 -1 11z" />
    <glyph glyph-name="less" unicode="&#x3c;" horiz-adv-x="432" 
d="M294 11l-248 299l248 293h97l-249 -294l249 -298h-97z" />
    <glyph glyph-name="equal" unicode="=" horiz-adv-x="463" 
d="M37 244h391v-69h-391v69zM37 423h391v-69h-391v69z" />
    <glyph glyph-name="greater" unicode="&#x3e;" horiz-adv-x="438" 
d="M147 10h-97l248 299l-248 294h97l247 -293z" />
    <glyph glyph-name="question" unicode="?" horiz-adv-x="501" 
d="M285 269v-93h-77v95q0 50 57 98l65 55q53 51 53 110q0 62 -36.5 95t-99.5 33q-26 0 -51.5 -10.5t-45.5 -28.5t-33 -42t-13 -51l-71 12q4 39 22 73.5t46 60t64.5 40.5t78.5 15q45 0 84 -13t68.5 -38t46.5 -61.5t17 -82.5q-1 -39 -19.5 -77.5t-57.5 -73.5l-70 -62
q-28 -28 -28 -54zM204 46q0 22 13 37t39 15q34 0 48 -30l3 -11q1 -2 1 -8q0 -23 -12.5 -39t-39.5 -16q-35 0 -48 30l-3 11q-1 3 -1 11z" />
    <glyph glyph-name="at" unicode="@" horiz-adv-x="813" 
d="M579 104l38 -50q-98 -71 -219 -71q-74 0 -141.5 28.5t-119 78.5t-82 118.5t-30.5 148.5q0 76 29 144t79.5 119t118.5 80.5t146 29.5q70 0 137 -26.5t119 -73.5t83.5 -110.5t31.5 -137.5q0 -32 -11.5 -63.5t-30 -57t-43.5 -41.5t-52 -16q-25 1 -50 9.5t-46 30.5l-9 9
q-53 -59 -129 -63q-32 0 -62 12t-53.5 34t-37.5 52.5t-14 68.5q0 33 12.5 63t35 53t53 36.5t66.5 13.5q29 0 57 -11t50.5 -32t36.5 -52t14 -71q0 -18 6 -34t15.5 -28.5t23 -20t28.5 -7.5q13 0 26.5 9t24.5 25t18.5 37t7.5 44q0 57 -25.5 109t-68 91.5t-98 62.5t-116.5 23
q-64 0 -120.5 -24.5t-99 -67.5t-67 -100t-24.5 -121q0 -65 25 -121.5t67.5 -98.5t99 -66t119.5 -24q86 0 166 49zM294 357q0 -47 30 -76t74 -29q40 0 68.5 27t28.5 78q0 20 -7.5 39t-21 33.5t-31 23.5t-37.5 9t-39 -8t-33.5 -22t-23 -33.5t-8.5 -41.5z" />
    <glyph glyph-name="A" unicode="A" horiz-adv-x="656" 
d="M327 613l-96 -310h195zM448 247h-243l-84 -247h-81l256 711h62l256 -711h-83z" />
    <glyph glyph-name="B" unicode="B" horiz-adv-x="596" 
d="M141 345v-276h156q72 0 117 36t45 105q0 65 -42.5 99t-119.5 35l-155 1h-1zM141 643v-230l116 -1q79 -1 121 28t42 87t-42.5 86t-120.5 29l-115 1h-1zM64 711h193q54 0 98 -11.5t76 -35t49.5 -58t17.5 -79.5q0 -25 -10 -51t-27.5 -47t-40 -34t-46.5 -13q30 0 59 -11.5
t51.5 -33.5t36.5 -54.5t14 -75.5q0 -98 -60 -152.5t-178 -54.5h-233v711z" />
    <glyph glyph-name="C" unicode="C" horiz-adv-x="616" 
d="M566 110q-44 -66 -96.5 -95.5t-122.5 -29.5q-59 0 -112.5 24.5t-93.5 72t-63.5 116t-23.5 156.5q0 78 21.5 146.5t60.5 119.5t93 80.5t119 29.5q72 0 122.5 -29t88.5 -86l-64 -32q-23 33 -62.5 55.5t-84.5 22.5h-1q-45 0 -84 -24t-67.5 -65.5t-44.5 -97.5t-16 -120
t16.5 -119t45 -95t67 -63t83.5 -23q85 0 136 61l20 28z" />
    <glyph glyph-name="D" unicode="D" horiz-adv-x="616" 
d="M487 355q0 64 -16 116.5t-44.5 90.5t-68 59t-87.5 21h-130v-573h130q47 0 86.5 21t68.5 59t45 90.5t16 115.5zM568 355q0 -75 -22 -140t-61.5 -112.5t-94 -75t-119.5 -27.5h-207v711h207q60 0 113.5 -24t94.5 -69.5t65 -111.5t24 -151z" />
    <glyph glyph-name="E" unicode="E" horiz-adv-x="578" 
d="M64 711h450v-69h-373v-243h352v-69h-352v-261h373v-69h-450v711z" />
    <glyph glyph-name="F" unicode="F" horiz-adv-x="580" 
d="M64 711h450v-69h-373v-243h352v-69h-352v-330h-77v711z" />
    <glyph glyph-name="G" unicode="G" horiz-adv-x="686" 
d="M347 -14q-60 0 -113.5 24t-93 71t-63 116.5t-23.5 159.5q0 76 21.5 144t60.5 119t93 80.5t119 29.5q127 0 196 -92l16 -23l-67 -33q-32 44 -66 61.5t-79 17.5t-83.5 -24t-67.5 -65.5t-45.5 -96.5t-16.5 -118q0 -68 17 -124t45.5 -95.5t67 -61.5t82.5 -22q42 0 77.5 17
t61.5 48.5t40.5 77.5t14.5 104h-192v69h268v-42q0 -74 -18.5 -136.5t-53 -108.5t-85 -71.5t-113.5 -25.5z" />
    <glyph glyph-name="H" unicode="H" horiz-adv-x="605" 
d="M64 711h77v-313h323v313h77v-711h-77v329h-323v-329h-77v711z" />
    <glyph glyph-name="I" unicode="I" horiz-adv-x="237" 
d="M80 0v711h77v-711h-77z" />
    <glyph glyph-name="J" unicode="J" horiz-adv-x="577" 
d="M60 261h69q0 -44 12.5 -80t33.5 -62.5t48.5 -41t57.5 -14.5q31 0 58 14.5t47 41t32 62.5t12 80v450h77v-450q0 -58 -16 -107.5t-45.5 -86t-71.5 -57t-93 -20.5q-45 0 -85.5 18.5t-70.5 53.5t-47.5 85t-17.5 114z" />
    <glyph glyph-name="K" unicode="K" horiz-adv-x="625" 
d="M64 711h77v-346l345 346h94l-342 -341l370 -370h-101l-318 319l-48 -50v-269h-77v711z" />
    <glyph glyph-name="L" unicode="L" horiz-adv-x="560" 
d="M64 711h77v-642h374v-69h-451v711z" />
    <glyph glyph-name="M" unicode="M" horiz-adv-x="783" 
d="M64 0v711h105l224 -609l225 609h101v-711h-75v588l-209 -580h-87l-209 580v-588h-75z" />
    <glyph glyph-name="N" unicode="N" horiz-adv-x="641" 
d="M64 0v711h75l361 -567v567h77v-711h-71l-365 581v-581h-77z" />
    <glyph glyph-name="O" unicode="O" horiz-adv-x="671" 
d="M540 354q0 74 -15 131.5t-42 96.5t-65 59t-83 20t-82.5 -20.5t-64.5 -60t-42 -96.5t-15 -130t15.5 -129t42.5 -94t64.5 -57.5t81.5 -19.5q46 0 84 20.5t65 59t41.5 94t14.5 126.5zM50 354q0 78 20.5 146.5t57.5 119.5t89.5 80.5t117.5 29.5q57 0 109 -24.5t91.5 -72
t62.5 -118t23 -161.5q0 -79 -20.5 -146.5t-58 -117t-90.5 -77.5t-117 -28q-57 0 -109 24t-91 70.5t-62 115.5t-23 159z" />
    <glyph glyph-name="P" unicode="P" horiz-adv-x="557" 
d="M141 378h101q188 0 188 133q0 66 -47.5 98.5t-140.5 32.5h-101v-264zM64 711h178q60 -1 109 -13.5t84 -37.5t54.5 -62.5t19.5 -86.5q0 -93 -69.5 -148t-197.5 -55h-101v-308h-77v711z" />
    <glyph glyph-name="Q" unicode="Q" horiz-adv-x="689" 
d="M544 354q0 74 -16 131.5t-44 96.5t-66.5 59t-83.5 20t-82 -22t-64 -62.5t-42 -97t-15 -125.5q0 -72 15.5 -128t44 -94.5t67 -58t85.5 -19.5q26 1 49.5 7t42.5 21l11 9l-92 69l43 57l97 -73q50 71 50 210zM50 354q0 78 21 146.5t58.5 119.5t90 80.5t115.5 29.5
q58 0 110.5 -24.5t92.5 -72.5t63.5 -118t23.5 -161q0 -73 -17 -138.5t-55 -115.5l81 -59l-44 -57l-84 62q-40 -32 -80 -46.5t-85 -14.5q-59 0 -112 23.5t-92.5 70t-63 115.5t-23.5 160z" />
    <glyph glyph-name="R" unicode="R" horiz-adv-x="558" 
d="M141 378h101q188 0 188 133q0 66 -47.5 98.5t-140.5 32.5h-101v-264zM455 0l-209 308h-105v-308h-77v711h178q58 0 107 -13t85 -38.5t56 -62.5t20 -86q0 -72 -47 -125t-131 -69l212 -317h-89z" />
    <glyph glyph-name="S" unicode="S" horiz-adv-x="587" 
d="M37 140l66 39q44 -69 87.5 -97t97.5 -28q33 0 63 11t52 30.5t35 46t13 58.5q0 48 -45.5 83.5t-132.5 61.5l-11 3q-196 53 -196 187q0 41 17 76.5t47 62t70.5 41.5t87.5 15q129 0 206 -95l18 -25l-61 -39q-25 43 -66.5 66.5t-96.5 23.5q-30 0 -56 -9t-45.5 -25.5
t-30.5 -39.5t-11 -52q0 -68 101 -108l70 -25q62 -24 103.5 -43.5t66 -42t34.5 -51t10 -71.5t-18.5 -81t-50.5 -66t-76.5 -44.5t-96.5 -17.5q-77 1 -141 39t-110 116z" />
    <glyph glyph-name="T" unicode="T" horiz-adv-x="627" 
d="M48 711h533v-69h-223v-642h-77v642h-233v69z" />
    <glyph glyph-name="U" unicode="U" horiz-adv-x="638" 
d="M495 711h79v-396q0 -76 -17 -137t-49 -104t-80 -66t-109 -23q-58 0 -105 21t-80.5 62t-51.5 103t-18 144v396h79v-396q0 -124 46.5 -192.5t129.5 -68.5q80 0 128 68.5t48 192.5v396z" />
    <glyph glyph-name="V" unicode="V" horiz-adv-x="628" 
d="M504 711h80l-215 -711h-107l-218 711h83l188 -629z" />
    <glyph glyph-name="W" unicode="W" horiz-adv-x="790" 
d="M46 711h78l90 -622l134 604h95l134 -604l90 622h78l-112 -711h-107l-130 600l-130 -600h-109z" />
    <glyph glyph-name="X" unicode="X" horiz-adv-x="613" 
d="M41 711h89l177 -296l173 296h89l-221 -355l224 -356h-93l-172 286l-176 -286h-87l222 356z" />
    <glyph glyph-name="Y" unicode="Y" horiz-adv-x="596" 
d="M42 711h82l174 -293l174 293h82l-218 -346v-365h-77v365z" />
    <glyph glyph-name="Z" unicode="Z" horiz-adv-x="667" 
d="M68 711h539l-422 -642h428v-69h-559l426 642h-412v69z" />
    <glyph glyph-name="bracketleft" unicode="[" horiz-adv-x="326" 
d="M262 -47h-193v794h193v-69h-120v-657h120v-68z" />
    <glyph glyph-name="backslash" unicode="\" horiz-adv-x="416" 
d="M342 0l-351 754h84l350 -754h-83z" />
    <glyph glyph-name="bracketright" unicode="]" horiz-adv-x="298" 
d="M34 -47v69h120v656h-120v69h193v-794h-193z" />
    <glyph glyph-name="asciicircum" unicode="^" horiz-adv-x="473" 
d="M406 561h-92l-76 104l-77 -103h-91l135 167h64z" />
    <glyph glyph-name="underscore" unicode="_" horiz-adv-x="626" 
d="M48 -113v69h532v-69h-532z" />
    <glyph glyph-name="grave" unicode="`" horiz-adv-x="272" 
d="M178 566l-118 141q-8 11 -8 24t12 24t26 11q8 -1 16 -4t13 -11l102 -153l3 -7v-6q0 -10 -8.5 -18.5t-19.5 -8.5q-10 0 -18 8z" />
    <glyph glyph-name="a" unicode="a" horiz-adv-x="505" 
d="M244 294q-25 0 -47.5 -9t-39 -25t-26.5 -38t-10 -49q0 -53 35 -87t88 -34q22 0 43 9.5t37 25.5t26 38t10 48q0 24 -9 46t-25 38.5t-37 26.5t-45 10zM238 360q18 0 36 -4t34.5 -12.5t29 -21t19.5 -29.5v37q0 68 -30 102t-87 34q-69 0 -110 -38l-38 50q66 54 148 54
q39 0 73 -13t59.5 -38.5t40.5 -63.5t15 -87v-198q0 -38 15 -57t41 -19v-66q-49 0 -81 16.5t-37 49.5v1q-12 -28 -47.5 -49.5t-80.5 -21.5q-38 0 -72.5 13t-61 37t-42.5 58.5t-16 78.5q0 36 15 70t41 60t61 41.5t75 15.5z" />
    <glyph glyph-name="b" unicode="b" horiz-adv-x="510" 
d="M142 437q52 96 136 96q40 0 73.5 -18t58 -52.5t38 -85t13.5 -114.5q0 -63 -13.5 -114t-37.5 -87t-57.5 -56t-73.5 -20h-2q-38 0 -69.5 20.5t-65.5 73.5v-80h-74v710h74v-273zM386 263q0 50 -9 88t-24 64t-34.5 39t-40.5 13q-30 0 -55.5 -16.5t-44 -45t-28.5 -65.5
t-10 -78q0 -48 12 -87t31.5 -66.5t44.5 -42t50 -14.5t45 17t34 46t21.5 67.5t7.5 80.5z" />
    <glyph glyph-name="c" unicode="c" horiz-adv-x="470" 
d="M426 466l-49 -49q-17 17 -30.5 27t-25.5 15.5t-24 7t-27 1.5q-27 0 -52.5 -16t-46 -44t-32.5 -65.5t-12 -80.5q0 -41 10.5 -79t29 -67t44 -47t56.5 -18q68 0 116 59l48 -48q-41 -44 -78.5 -60.5t-85.5 -16.5q-46 0 -85 21.5t-68 58.5t-45.5 87.5t-16.5 109.5
q0 55 17 104.5t46 86.5t69 59t86 22q52 0 87 -17t69 -51z" />
    <glyph glyph-name="d" unicode="d" horiz-adv-x="510" 
d="M382 710h74v-710h-74v80q-35 -53 -66 -73.5t-69 -20.5h-2q-37 0 -70 17.5t-58 52.5t-39.5 86.5t-14.5 120.5q0 58 12 107.5t35.5 85.5t57.5 56.5t78 20.5q83 0 136 -96v273zM138 263q0 -48 8.5 -87t23 -66.5t34 -42.5t42.5 -15q28 0 53 16.5t44 45t30 66.5t11 82
q0 42 -10 79.5t-28.5 65t-44 44t-55.5 16.5q-23 0 -42.5 -14.5t-34 -41.5t-23 -64.5t-8.5 -83.5z" />
    <glyph glyph-name="e" unicode="e" horiz-adv-x="515" 
d="M131 295h254q-6 78 -40.5 125.5t-86.5 47.5q-24 0 -46 -12t-39 -34t-28.5 -54.5t-13.5 -72.5zM131 229q3 -42 14 -75t28 -55.5t39 -34.5t46 -12q35 0 68 16.5t51 49.5l65 -26q-24 -47 -72.5 -76.5t-111.5 -29.5q-42 0 -79.5 17.5t-65.5 52.5t-44 86.5t-16 119.5
q0 59 14 109t40.5 86t64.5 56.5t86 20.5q43 0 79.5 -17t62.5 -51.5t41 -85.5t15 -118v-33h-325z" />
    <glyph glyph-name="f" unicode="f" horiz-adv-x="370" 
d="M208 458v-458h-74v458h-68v66h68v54q0 68 35 106.5t104 38.5q17 -1 35.5 -5.5t35.5 -15.5l14 -9l-47 -47q-24 11 -33 11q-70 0 -70 -79v-54h96v-66h-96z" />
    <glyph glyph-name="g" unicode="g" horiz-adv-x="510" 
d="M128 263q0 -100 32 -155t79 -55q27 0 51 16.5t43 45t30 67t11 81.5q0 42 -10.5 79t-29 64.5t-43.5 44t-54 16.5q-23 0 -43 -14.5t-34.5 -41t-23 -64t-8.5 -84.5zM372 79q-20 -28 -36 -46t-31 -28t-30.5 -14t-33.5 -4h-3q-40 0 -74 17.5t-58.5 52.5t-38.5 87t-14 121
q0 57 12.5 106t36 85.5t57.5 57t78 20.5q83 0 135 -97v87h74v-533q0 -45 -13.5 -83t-38.5 -66.5t-59.5 -44.5t-76.5 -16q-71 0 -122 38t-69 114l-2 14h70q0 -23 11.5 -41t29 -31.5t38.5 -20.5t40 -7q51 0 84.5 35.5t33.5 101.5v95z" />
    <glyph glyph-name="h" unicode="h" horiz-adv-x="520" 
d="M142 0h-74v710h74v-260q22 27 39.5 43.5t33.5 25.5t31.5 12.5t34.5 3.5q80 0 125.5 -53t45.5 -161v-321h-74v321q0 147 -97 147q-26 0 -51 -12t-44.5 -32.5t-31.5 -47t-12 -54.5v-322z" />
    <glyph glyph-name="i" unicode="i" horiz-adv-x="230" 
d="M69 651q0 17 11.5 31.5t34.5 14.5q30 0 42 -27l3 -10q1 -3 1 -9q0 -17 -11.5 -31.5t-34.5 -14.5q-30 0 -42 27l-3 10q-1 3 -1 9zM78 524h74v-524h-74v524z" />
    <glyph glyph-name="j" unicode="j" horiz-adv-x="230" 
d="M69 651q0 17 11.5 31.5t34.5 14.5q30 0 42 -27l3 -10q1 -3 1 -9q0 -17 -11.5 -31.5t-34.5 -14.5q-30 0 -42 27l-3 10q-1 3 -1 9zM-112 -157l53 45q20 -18 32.5 -25t22.5 -7q47 0 64.5 33.5t17.5 110.5v524h74v-524q0 -210 -156 -210q-52 0 -108 53z" />
    <glyph glyph-name="k" unicode="k" horiz-adv-x="481" 
d="M214 292l250 -292h-85l-215 244l-22 -26v-218h-74v710h74v-399l196 213h85z" />
    <glyph glyph-name="l" unicode="l" horiz-adv-x="230" 
d="M152 101q0 -51 58 -51v-64q-68 0 -100 28t-32 85v611h74v-609z" />
    <glyph glyph-name="m" unicode="m" horiz-adv-x="769" 
d="M422 0h-74v321q0 72 -20.5 109.5t-57.5 37.5q-24 0 -47 -11.5t-41 -31t-29 -46t-11 -57.5v-322h-74v524h74v-74q31 48 60.5 66.5t67.5 18.5q99 0 135 -100q35 54 69.5 77t75.5 23q81 0 116.5 -53t35.5 -163v-319h-74v319q0 74 -21 111.5t-57 37.5q-24 0 -47 -11.5
t-41 -31t-29 -46t-11 -57.5v-322z" />
    <glyph glyph-name="n" unicode="n" horiz-adv-x="520" 
d="M142 0h-74v524h74v-79q61 90 143 90q112 0 151 -111l9 -32q5 -17 5.5 -34.5t1.5 -36.5v-321h-74v321q0 71 -27 107.5t-66 39.5q-25 0 -50.5 -12t-46 -32t-33.5 -46.5t-13 -55.5v-322z" />
    <glyph glyph-name="o" unicode="o" horiz-adv-x="515" 
d="M55 262q0 60 14 110t40 86t64 56t85 20q43 0 80 -17.5t64.5 -52t43 -85t15.5 -117.5q0 -60 -14 -110.5t-40.5 -87.5t-64 -57.5t-84.5 -20.5q-43 0 -80 17.5t-64.5 52.5t-43 86.5t-15.5 119.5zM130 262q0 -49 10.5 -88t28 -66t40.5 -41.5t49 -14.5q57 0 92.5 54t35.5 156
q0 49 -10 87t-27.5 64.5t-41 40.5t-49.5 14q-27 0 -50 -14.5t-40.5 -41t-27.5 -64.5t-10 -86z" />
    <glyph glyph-name="p" unicode="p" horiz-adv-x="510" 
d="M142 437q52 96 136 96q40 0 73.5 -18t58 -52.5t38 -85t13.5 -114.5q0 -63 -13.5 -114t-37.5 -87t-57.5 -56t-73.5 -20h-2q-38 0 -69.5 20.5t-65.5 73.5v-289h-74v733h74v-87zM386 263q0 50 -9 88t-24 64t-34.5 39t-40.5 13q-30 0 -55.5 -16.5t-44 -45t-28.5 -65.5
t-10 -78q0 -48 12 -87t31.5 -66.5t44.5 -42t50 -14.5t45 17t34 46t21.5 67.5t7.5 80.5z" />
    <glyph glyph-name="q" unicode="q" horiz-adv-x="512" 
d="M128 262q0 -47 8.5 -86t23 -66.5t34 -42.5t42.5 -15q27 0 52 16.5t44 45t30.5 66.5t11.5 82t-10.5 81.5t-29 65t-44.5 43t-56 15.5q-23 0 -42 -15t-33.5 -42.5t-22.5 -65t-8 -82.5zM446 -97q0 -28 13 -42t45 -14v-66q-68 0 -100 29.5t-32 89.5v180q-57 -94 -135 -94
q-38 0 -71.5 17.5t-58.5 52t-39.5 87t-14.5 121.5q0 57 12 106.5t35 85.5t56.5 56.5t76.5 20.5q74 0 128 -77l11 -17v85h74v-621z" />
    <glyph glyph-name="r" unicode="r" horiz-adv-x="375" 
d="M327 450q-32 20 -68 20q-23 0 -44 -11.5t-37 -32t-26 -49t-10 -63.5v-314h-74v524h74v-74q8 17 21 32.5t29 27.5t33 19.5t34 7.5q56 0 100 -27z" />
    <glyph glyph-name="s" unicode="s" horiz-adv-x="470" 
d="M234 240q-50 16 -82.5 32.5t-52 35t-27.5 39t-8 43.5q0 30 12 56t34 45.5t53.5 31.5t70.5 13h3q30 0 58.5 -7.5t52 -22t39 -35t20.5 -46.5l-69 -14q-20 59 -103 59q-18 0 -35.5 -5.5t-31 -15.5t-21.5 -24.5t-8 -31.5q0 -50 75 -75l21 -7q51 -19 85.5 -37.5t55.5 -38.5
t30 -42t9 -48q0 -32 -13.5 -61t-37.5 -50.5t-56.5 -34.5t-71.5 -13q-150 0 -184 120l69 13q16 -67 113 -67q21 0 40 7t34 19t23.5 29t8.5 38q0 60 -106 95z" />
    <glyph glyph-name="t" unicode="t" horiz-adv-x="360" 
d="M124 458h-69v66h69v122h74v-122h96v-66h-96v-353q0 -57 57 -57h34v-62h-34q-74 0 -102.5 29.5t-28.5 87.5v355z" />
    <glyph glyph-name="u" unicode="u" horiz-adv-x="520" 
d="M373 524h74v-524h-74v68q-20 -32 -52.5 -55.5t-70.5 -23.5q-36 0 -69.5 16t-60 44t-42 67t-15.5 86v322h74v-323q0 -66 31.5 -105.5t82.5 -39.5q24 0 46 10.5t39 29.5t27 46t10 60v322z" />
    <glyph glyph-name="v" unicode="v" horiz-adv-x="520" 
d="M223 0l-178 524h78l137 -429l140 429h77l-180 -524h-74z" />
    <glyph glyph-name="w" unicode="w" horiz-adv-x="691" 
d="M346 421l-111 -421h-57l-140 524h75l94 -402l102 398h74l102 -398l94 402h75l-140 -524h-60z" />
    <glyph glyph-name="x" unicode="x" horiz-adv-x="460" 
d="M430 0h-83l-118 215l-112 -215h-86l153 263l-152 261h83l114 -212l114 212h83l-152 -259z" />
    <glyph glyph-name="y" unicode="y" horiz-adv-x="500" 
d="M82 -134l51 41q29 -34 55 -47t61 -13q54 0 89 36t35 101v87q-18 -35 -51 -58.5t-72 -23.5q-35 0 -69 15.5t-60 44t-42 69t-16 91.5v315h74v-315q0 -72 30.5 -112.5t84.5 -40.5q24 0 46 11t38.5 31t26.5 47.5t10 59.5v319h74v-533q0 -44 -14.5 -82t-41 -66.5t-63 -45
t-79.5 -16.5q-90 0 -154 69z" />
    <glyph glyph-name="z" unicode="z" horiz-adv-x="490" 
d="M172 69h261v-69h-384l276 455h-256v69h379z" />
    <glyph glyph-name="braceleft" unicode="{" horiz-adv-x="385" 
d="M49 356q81 25 93 163l6 140q4 38 34 59t76 26l57 3v-66q-7 1 -12 1.5t-9 0.5q-46 0 -70 -24l-4 -5q-6 -11 -6 -50v-22q0 -41 -4 -79.5t-12 -69t-19.5 -51t-25.5 -26.5q13 -5 24.5 -27.5t19.5 -56t12.5 -74t4.5 -82.5v-21q0 -30 3 -42l3 -10q26 -26 74 -29q4 0 9 0.5
t12 1.5v-66q-47 1 -77 6t-48.5 14t-27 23t-12.5 33q-1 44 -3 85q-2 35 -5 72t-8 61q-9 46 -31 74t-54 38z" />
    <glyph glyph-name="bar" unicode="|" horiz-adv-x="200" 
d="M66 0v710h70v-710h-70z" />
    <glyph glyph-name="braceright" unicode="}" horiz-adv-x="385" 
d="M336 356q-81 -26 -93 -169l-6 -146q-4 -38 -34 -59t-76 -26l-57 -3v66q7 -1 12 -1.5t9 -0.5q46 0 70 24l4 5q6 10 6 52v21q0 43 4 83.5t12 73t19 53.5t26 27q-14 6 -25 27.5t-19 52.5t-12.5 69t-4.5 77v22q0 28 -3 40l-3 10q-26 26 -74 29q-4 0 -9 -0.5t-12 -1.5v66
q46 -2 76.5 -7t48.5 -14t27 -22.5t13 -32.5q2 -11 2.5 -36t1.5 -57t5.5 -67t15 -66.5t28.5 -55.5t48 -33z" />
    <glyph glyph-name="asciitilde" unicode="~" horiz-adv-x="379" 
d="M36 373q21 17 34 26.5t22 14t16.5 5.5t16.5 1q10 0 28.5 -11t38 -24.5t37 -25.5t26.5 -13q28 -1 76 36l16 12v-71q-26 -20 -40.5 -29.5t-22.5 -14t-14 -4.5h-15q-13 0 -31.5 11.5t-37.5 25.5t-36 25.5t-26 11.5q-33 0 -73 -34q-6 -5 -9.5 -8.5t-5.5 -4.5v71z" />
    <glyph glyph-name="uni00A0" unicode="&#xa0;" horiz-adv-x="321" 
 />
    <glyph glyph-name="exclamdown" unicode="&#xa1;" horiz-adv-x="171" 
d="M34 514h77v-516h-77v516zM126 663q0 -34 -31 -48q-11 -4 -22 -4q-34 0 -48 30q-2 6 -3 11q-2 5 -1 11q0 34 30 48q11 4 22 4q34 0 48 -30q2 -6 3 -11q2 -5 2 -11z" />
    <glyph glyph-name="cent" unicode="&#xa2;" horiz-adv-x="415" 
d="M191 136q-83 10 -123 84q-13 23 -19 51q-5 24 -5 50q0 107 109 152q17 7 36 12v105h66v-105q49 -13 97 -55l-44 -46q-39 39 -91 39q-55 0 -86 -46q-17 -26 -17 -58q0 -18 3 -35q15 -66 73 -82q14 -4 30 -4q62 0 102 52l44 -44q-29 -47 -109 -72v-96h-66v98z" />
    <glyph glyph-name="sterling" unicode="&#xa3;" 
d="M157 291h-111v66h116q0 343 122 358q6 1 12 1q108 0 160 -145l-70 -3q-16 64 -65 79q-12 4 -25 4q-28 0 -47 -93q-12 -53 -12 -102v-61v-38h175v-66h-178q-6 -88 -52 -225h246q29 2 48 24q5 5 9 11l39 -56q-21 -32 -81 -42l-21 -3h-346q2 6 41 122q36 104 40 169z" />
    <glyph glyph-name="currency" unicode="&#xa4;" horiz-adv-x="438" 
d="M132 373q0 -9 2 -19q10 -46 54 -63q15 -6 32 -6q50 0 76 43q12 20 12 45q0 10 -2 19q-9 46 -54 63q-15 6 -32 6q-50 0 -76 -43q-12 -20 -12 -45zM306 246q-40 -27 -87 -27t-87 27v-63h-96v96h62q-22 28 -29 62q-3 15 -3 31q0 50 29 90h-59v96h96v-60q40 27 87 27t87 -27
v60h96v-96h-59q19 -26 26 -58q3 -16 3 -32q0 -51 -32 -93h62v-96h-96v63z" />
    <glyph glyph-name="yen" unicode="&#xa5;" 
d="M235 333h-152v66h126l-168 283h76l158 -276l168 276h76l-182 -283h121v-66h-149v-105h149v-66h-149v-162h-74v162h-152v66h152v105z" />
    <glyph glyph-name="brokenbar" unicode="&#xa6;" horiz-adv-x="169" 
d="M119 315v-315h-70v315h70zM49 385v315h70v-315h-70z" />
    <glyph glyph-name="section" unicode="&#xa7;" horiz-adv-x="355" 
d="M96 468q14 4 32 4q82 0 144 -65q42 -44 54 -103q5 -22 5 -45q0 -96 -57 -160q-43 -48 -98 -48q-92 0 -146 91l73 5q17 -23 55 -29q6 -1 10 -1h2q55 0 81 65q6 15 9 33v1q0 1 -3 1l-28 -6h-1q-92 0 -150 66q-35 39 -46 94q-6 26 -6 55q0 97 56 160q42 46 98 46
q64 0 105 -40q15 -15 34 -40l-75 -8q-22 19 -56 22h-2q-68 0 -90 -98zM252 284q0 10 -2 21q-12 55 -63 85q-28 16 -60 16q-15 0 -27 -7q0 -9 2 -17q11 -51 61 -84q32 -21 62 -21h8h1q18 0 18 7z" />
    <glyph glyph-name="dieresis" unicode="&#xa8;" horiz-adv-x="520" 
d="M333 627q0 30 28 42q8 4 18 4q30 0 42 -27q2 -5 3 -10q1 -4 1 -9q0 -30 -28 -42q-8 -4 -18 -4q-30 0 -42 27q-2 5 -3 10q-1 4 -1 9zM103 626q0 30 28 42q8 4 18 4q30 0 42 -27q2 -5 3 -10q1 -4 1 -9q0 -30 -28 -42q-8 -4 -18 -4q-30 0 -42 27q-2 5 -3 10q-1 4 -1 9z" />
    <glyph glyph-name="copyright" unicode="&#xa9;" horiz-adv-x="480" 
d="M312 298q-33 -33 -73 -33q-55 0 -85 46q-10 16 -14 34q-2 10 -2 21q0 56 47 85q25 16 54 16q44 0 73 -29l-38 -40q-16 14 -35 14q-30 0 -42 -28q-4 -8 -4 -18q0 -5 1 -9q6 -28 34 -36q5 -1 11 -1q22 0 37 13zM82 366q0 -17 3 -33q16 -71 79 -106q35 -19 75 -19
q77 0 124 61q33 43 33 97q0 17 -3 33q-16 71 -79 106q-35 19 -75 19q-77 0 -124 -61q-33 -43 -33 -97zM25 366q0 97 73 161q60 53 141 53q97 0 161 -73q37 -42 48 -96q5 -22 5 -45q0 -97 -73 -161q-60 -53 -141 -53q-97 0 -161 73q-37 42 -48 96q-5 22 -5 45z" />
    <glyph glyph-name="ordfeminine" unicode="&#xaa;" horiz-adv-x="263" 
d="M24 414h212v-36h-212v36zM115 603q-41 0 -58 -38q-7 -14 -7 -29q0 -7 2 -13q8 -39 44 -50q9 -3 19 -3q36 0 54 35q8 15 8 31q0 7 -2 14q-7 37 -40 49q-10 4 -20 4zM112 639q41 0 61 -33q2 -2 2 -4v20q0 13 -2 24q-10 51 -60 51q-38 0 -58 -21l-20 28q35 29 78 29
q61 0 87 -52q7 -13 10 -29q3 -14 3 -30v-32v-76q0 -7 1 -14q6 -28 28 -28v-36q-53 0 -62 36v1q-10 -24 -42 -35q-13 -4 -26 -4q-58 0 -87 49q-9 15 -12 31q-2 11 -2 22q0 55 46 86q26 17 55 17z" />
    <glyph glyph-name="guillemotleft" unicode="&#xab;" horiz-adv-x="446" 
d="M324 442h66l-94 -142l94 -142h-66l-94 142zM128 442h66l-94 -142l94 -142h-66l-94 142z" />
    <glyph glyph-name="logicalnot" unicode="&#xac;" horiz-adv-x="521" 
d="M454 266h-66v100h-308v70h374v-170z" />
    <glyph glyph-name="uni00AD" unicode="&#xad;" horiz-adv-x="484" 
d="M63 428h331v-69h-331v69z" />
    <glyph glyph-name="registered" unicode="&#xae;" horiz-adv-x="601" 
d="M108 366q0 -24 5 -46q19 -90 106 -128q39 -17 80 -17q77 0 135 56q57 54 57 135q0 22 -4 42q-19 88 -106 130q-42 20 -82 20q-82 0 -138 -57q-53 -53 -53 -135zM51 366q0 137 107 207q65 42 141 42q110 0 183 -79q46 -49 60 -116q6 -26 6 -54q0 -116 -89 -189
q-70 -59 -160 -59q-99 0 -171 66q-55 50 -71 125q-6 27 -6 57zM253 391h25q68 0 74 26q1 3 1 6t-1 5q-5 27 -85 27h-14v-64zM213 493h40q123 0 138 -58q1 -6 1 -12q0 -45 -47 -59q-7 -2 -21 -5l79 -117h-49l-69 111l-32 -1v-110h-40v251z" />
    <glyph glyph-name="macron" unicode="&#xaf;" horiz-adv-x="479" 
d="M99 651h295v-66h-295v66z" />
    <glyph glyph-name="degree" unicode="&#xb0;" horiz-adv-x="312" 
d="M86 575q0 -8 2 -16q9 -41 46 -54q11 -3 23 -3q42 0 62 38q8 16 8 35q0 8 -1 16q-9 41 -47 54q-10 3 -22 3q-42 0 -62 -38q-9 -16 -9 -35zM29 573q0 65 54 103q33 23 74 23q67 0 105 -54q15 -21 20 -46q3 -13 3 -26q0 -65 -54 -103q-33 -23 -74 -23q-67 0 -105 54
q-15 21 -20 46q-3 13 -3 26z" />
    <glyph glyph-name="plusminus" unicode="&#xb1;" horiz-adv-x="500" 
d="M83 487h150v152h69v-152h150v-69h-150v-152h-69v152h-150v69zM102 203h331v-69h-331v69z" />
    <glyph glyph-name="twosuperior" unicode="&#xb2;" horiz-adv-x="234" 
d="M73 623l-38 17q11 38 48 54q14 6 29 6q44 0 68 -39q8 -13 11 -30q3 -12 3 -25q0 -41 -58 -98q-6 -6 -28 -27l-17 -18h107v-38h-163v38l42 42l52 51q23 27 23 50q0 10 -2 19q-7 35 -38 37q-29 0 -39 -39z" />
    <glyph glyph-name="threesuperior" unicode="&#xb3;" horiz-adv-x="226" 
d="M24 466l36 12q14 -27 46 -27q33 0 45 26q4 8 4 17q0 6 -1 12q-12 33 -48 36h-7q-5 0 -7 -1v40q2 -1 7 -1h8q37 0 43 33q1 5 1 10q0 4 -1 8q-5 25 -35 30q-4 1 -9 1q-33 0 -42 -25l-33 19q21 44 75 44q51 0 74 -40q6 -11 8 -22q2 -7 2 -15q0 -36 -30 -63q26 -24 31 -48
q2 -9 2 -18q0 -54 -48 -74q-18 -8 -39 -8q-42 0 -70 35q-7 9 -12 19z" />
    <glyph glyph-name="acute" unicode="&#xb4;" horiz-adv-x="272" 
d="M52 591l101 153q10 16 29 16q17 0 27.5 -12.5t10.5 -24.5q0 -11 -8 -22l-117 -142q-8 -8 -18 -8q-11 0 -20 7.5t-9 18.5q0 4 1 7t3 7z" />
    <glyph glyph-name="mu" unicode="&#xb5;" horiz-adv-x="510" 
d="M150 36v-229h-70v619h71v-224q0 -37 6 -64q18 -84 90 -84q67 0 98 75q15 36 15 73v224h70v-426h-70v48q-49 -61 -108 -61q-53 0 -89 36q34 -34 -13 13z" />
    <glyph glyph-name="paragraph" unicode="&#xb6;" horiz-adv-x="582" 
d="M320 615v-250l105 -4h1v260l-105 -6h-1zM250 599q-98 -32 -113 -89q-3 -11 -3 -24t2 -24q12 -53 85 -76q11 -3 29 -8v221zM320 66h106v233l-105 5h-1v-238zM250 0v314q-121 26 -160 80q-16 22 -22 52q-4 18 -4 40q0 105 128 159q90 37 212 37h96v-682h-250z" />
    <glyph glyph-name="periodcentered" unicode="&#xb7;" horiz-adv-x="234" 
d="M80 356q0 22 13 37t39 15q34 0 48 -30l3 -11q1 -2 1 -8q0 -23 -12.5 -39t-39.5 -16q-35 0 -48 30l-3 11q-1 3 -1 11z" />
    <glyph glyph-name="cedilla" unicode="&#xb8;" horiz-adv-x="307" 
d="M99 -93q46 34 46 51q0 4 -1 7q-2 9 -26 44l63 27q32 -30 39 -65q2 -10 2 -19q0 -44 -69 -86l-33 -20z" />
    <glyph glyph-name="onesuperior" unicode="&#xb9;" horiz-adv-x="150" 
d="M45 606l-24 29l53 47h38v-268h-37v217z" />
    <glyph glyph-name="ordmasculine" unicode="&#xba;" horiz-adv-x="311" 
d="M31 401h254v-54h-254v54zM84 555q0 -8 2 -17q9 -41 48 -55q11 -3 22 -3q43 0 64 39q9 16 9 36q0 9 -2 17q-9 42 -48 55q-11 4 -23 4q-43 0 -63 -39q-9 -17 -9 -37zM28 555q0 65 54 103q33 23 74 23q67 0 105 -54q15 -21 20 -46q3 -13 3 -26q0 -65 -54 -103
q-33 -23 -74 -23q-67 0 -105 54q-15 21 -20 46q-3 13 -3 26z" />
    <glyph glyph-name="guillemotright" unicode="&#xbb;" horiz-adv-x="476" 
d="M119 442l94 -142l-94 -142h-66l94 142l-94 142h66zM315 442l94 -142l-94 -142h-66l94 142l-94 142h66z" />
    <glyph glyph-name="onequarter" unicode="&#xbc;" horiz-adv-x="519" 
d="M76 606l-24 29l53 47h38v-268h-37v217zM437 0h-44v106h-121l31 207h45l-27 -163h72v163h44v-163h44v-44h-44v-106zM86 153h-56l336 402h56z" />
    <glyph glyph-name="onehalf" unicode="&#xbd;" horiz-adv-x="478" 
d="M86 153h-56l336 402h56zM315 198l-37 16q10 39 47 55q14 6 29 6q44 0 68 -39q8 -13 11 -30q3 -12 3 -26q0 -39 -56 -96l-29 -29l-18 -17h107v-38h-162v38l41 41l50 49q25 28 25 52q0 11 -2 20q-7 35 -38 37q-29 0 -39 -39zM76 606l-24 29l53 47h38v-268h-37v217z" />
    <glyph glyph-name="threequarters" unicode="&#xbe;" horiz-adv-x="537" 
d="M106 153h-56l336 402h56zM21 466l36 12q13 -27 46 -27t45 26q4 8 4 17q0 6 -1 12q-12 33 -48 36h-7q-4 0 -7 -1v40q3 -1 7 -1h8q37 0 43 33q1 5 1 10q0 4 -1 8q-5 25 -35 30q-4 1 -9 1q-33 0 -42 -25l-33 19q21 44 75 44q51 0 74 -40q6 -11 8 -22q2 -7 2 -15
q0 -36 -30 -63q26 -24 31 -48q2 -9 2 -18q0 -54 -48 -74q-18 -8 -39 -8q-42 0 -70 35q-7 9 -12 19zM457 0h-44v106h-121l31 207h45l-27 -163h72v163h44v-163h44v-44h-44v-106z" />
    <glyph glyph-name="questiondown" unicode="&#xbf;" horiz-adv-x="486" 
d="M184.018 416.017v92.9941h76.9951v-94.9941q0 -49.9971 -56.9961 -97.9941l-64.9961 -54.9971q-52.9971 -50.9961 -52.9971 -109.993q0 -61.9961 36.498 -94.9941q36.4971 -32.998 99.4932 -32.998q25.999 0 51.4971 10.5q25.499 10.499 45.4971 28.498
q19.999 17.999 32.998 41.9971q12.999 23.999 12.999 50.9971l70.9961 -11.999q-4 -38.998 -21.999 -73.4961q-17.998 -34.4971 -45.9971 -59.9961q-27.998 -25.498 -64.4961 -40.4971q-36.4971 -14.999 -78.4951 -14.999q-44.9971 0 -83.9951 12.999
q-38.9971 12.999 -68.4951 37.9971q-29.498 24.999 -46.4971 61.4971q-16.999 36.4971 -16.999 82.4951q1 38.9971 19.499 77.4951q18.498 38.4971 57.4961 73.4951l69.9961 61.9961q27.998 27.998 27.998 53.9971zM265.013 639.003q0 -21.999 -12.999 -36.998
q-13 -14.999 -38.998 -14.999q-33.998 0 -47.9971 29.998l-3 11q-1 1.99902 -1 7.99902q0 22.999 12.499 38.998q12.5 15.999 39.498 15.999q34.998 0 47.9971 -29.998l3 -11q1 -3 1 -10.999z" />
    <glyph glyph-name="Agrave" unicode="&#xc0;" horiz-adv-x="651" 
d="M327 736l-118 141q-8 11 -8 24t12 24t26 11q8 -1 16 -4t13 -11l102 -153l3 -7v-6q0 -10 -8.5 -18.5t-19.5 -8.5q-10 0 -18 8zM337 613l-96 -310h195zM458 247h-243l-84 -247h-81l256 711h62l256 -711h-83z" />
    <glyph glyph-name="Aacute" unicode="&#xc1;" horiz-adv-x="656" 
d="M327 613l-96 -310h195zM448 247h-243l-84 -247h-81l256 711h62l256 -711h-83zM246 778l101 153q10 16 29 16q17 0 27.5 -12.5t10.5 -24.5q0 -11 -8 -22l-117 -142q-8 -8 -18 -8q-11 0 -20 7.5t-9 18.5q0 4 1 7t3 7z" />
    <glyph glyph-name="Acircumflex" unicode="&#xc2;" horiz-adv-x="651" 
d="M503 762h-92l-76 104l-77 -103h-91l135 167h64zM337 613l-96 -310h195zM458 247h-243l-84 -247h-81l256 711h62l256 -711h-83z" />
    <glyph glyph-name="Atilde" unicode="&#xc3;" horiz-adv-x="651" 
d="M179 864q21 17 34 26.5t22 14t16.5 5.5t16.5 1q10 0 28.5 -11t38 -24.5t37 -25.5t26.5 -13q28 -1 76 36l16 12v-71q-26 -20 -40.5 -29.5t-22.5 -14t-14 -4.5h-15q-13 0 -31.5 11.5t-37.5 25.5t-36 25.5t-26 11.5q-33 0 -73 -34q-6 -5 -9.5 -8.5t-5.5 -4.5v71zM337 613
l-96 -310h195zM458 247h-243l-84 -247h-81l256 711h62l256 -711h-83z" />
    <glyph glyph-name="Adieresis" unicode="&#xc4;" horiz-adv-x="651" 
d="M403 807q0 30 28 42q8 4 18 4q30 0 42 -27q2 -5 3 -10q1 -4 1 -9q0 -30 -28 -42q-8 -4 -18 -4q-30 0 -42 27q-2 5 -3 10q-1 4 -1 9zM173 806q0 30 28 42q8 4 18 4q30 0 42 -27q2 -5 3 -10q1 -4 1 -9q0 -30 -28 -42q-8 -4 -18 -4q-30 0 -42 27q-2 5 -3 10q-1 4 -1 9z
M337 613l-96 -310h195zM458 247h-243l-84 -247h-81l256 711h62l256 -711h-83z" />
    <glyph glyph-name="Aring" unicode="&#xc5;" horiz-adv-x="651" 
d="M266 849q0 -8 2 -16q9 -41 46 -54q11 -3 23 -3q42 0 62 38q8 16 8 35q0 8 -1 16q-9 41 -47 54q-10 3 -22 3q-42 0 -62 -38q-9 -16 -9 -35zM209 847q0 65 54 103q33 23 74 23q67 0 105 -54q15 -21 20 -46q3 -13 3 -26q0 -65 -54 -103q-33 -23 -74 -23q-67 0 -105 54
q-15 21 -20 46q-3 13 -3 26zM337 613l-96 -310h195zM458 247h-243l-84 -247h-81l256 711h62l256 -711h-83z" />
    <glyph glyph-name="AE" unicode="&#xc6;" horiz-adv-x="698" 
d="M388 315h-129l-126 -315h-88l289 711h346v-73h-215v-253h215v-72h-215v-241h215v-72h-292v315zM387 604v36l-98 -255h99z" />
    <glyph glyph-name="Ccedilla" unicode="&#xc7;" horiz-adv-x="616" 
d="M289 -145q46 34 46 51q0 4 -1 7q-2 9 -26 44l63 27q32 -30 39 -65q2 -10 2 -19q0 -44 -69 -86l-33 -20zM581 110q-44 -66 -96.5 -95.5t-122.5 -29.5q-59 0 -112.5 24.5t-93.5 72t-63.5 116t-23.5 156.5q0 78 21.5 146.5t60.5 119.5t93 80.5t119 29.5q72 0 122.5 -29
t88.5 -86l-64 -32q-23 33 -62.5 55.5t-84.5 22.5h-1q-45 0 -84 -24t-67.5 -65.5t-44.5 -97.5t-16 -120t16.5 -119t45 -95t67 -63t83.5 -23q85 0 136 61l20 28z" />
    <glyph glyph-name="Egrave" unicode="&#xc8;" horiz-adv-x="580" 
d="M296 737l-118 141q-8 11 -8 24t12 24t26 11q8 -1 16 -4t13 -11l102 -153l3 -7v-6q0 -10 -8.5 -18.5t-19.5 -8.5q-10 0 -18 8zM74 711h450v-69h-373v-243h352v-69h-352v-261h373v-69h-450v711z" />
    <glyph glyph-name="Eacute" unicode="&#xc9;" horiz-adv-x="578" 
d="M64 711h450v-69h-373v-243h352v-69h-352v-261h373v-69h-450v711zM207 778l101 153q10 16 29 16q17 0 27.5 -12.5t10.5 -24.5q0 -11 -8 -22l-117 -142q-8 -8 -18 -8q-11 0 -20 7.5t-9 18.5q0 4 1 7t3 7z" />
    <glyph glyph-name="Ecircumflex" unicode="&#xca;" horiz-adv-x="580" 
d="M474 751h-92l-76 104l-77 -103h-91l135 167h64zM74 711h450v-69h-373v-243h352v-69h-352v-261h373v-69h-450v711z" />
    <glyph glyph-name="Edieresis" unicode="&#xcb;" horiz-adv-x="580" 
d="M369 808q0 30 28 42q8 4 18 4q30 0 42 -27q2 -5 3 -10q1 -4 1 -9q0 -30 -28 -42q-8 -4 -18 -4q-30 0 -42 27q-2 5 -3 10q-1 4 -1 9zM139 807q0 30 28 42q8 4 18 4q30 0 42 -27q2 -5 3 -10q1 -4 1 -9q0 -30 -28 -42q-8 -4 -18 -4q-30 0 -42 27q-2 5 -3 10q-1 4 -1 9z
M74 711h450v-69h-373v-243h352v-69h-352v-261h373v-69h-450v711z" />
    <glyph glyph-name="Igrave" unicode="&#xcc;" horiz-adv-x="235" 
d="M111 747l-118 141q-8 11 -8 24t12 24t26 11q8 -1 16 -4t13 -11l102 -153l3 -7v-6q0 -10 -8.5 -18.5t-19.5 -8.5q-10 0 -18 8zM90 0v711h77v-711h-77z" />
    <glyph glyph-name="Iacute" unicode="&#xcd;" horiz-adv-x="237" 
d="M80 0v711h77v-711h-77zM38 778l101 153q10 16 29 16q17 0 27.5 -12.5t10.5 -24.5q0 -11 -8 -22l-117 -142q-8 -8 -18 -8q-11 0 -20 7.5t-9 18.5q0 4 1 7t3 7z" />
    <glyph glyph-name="Icircumflex" unicode="&#xce;" horiz-adv-x="235" 
d="M297 757h-92l-76 104l-77 -103h-91l135 167h64zM90 0v711h77v-711h-77z" />
    <glyph glyph-name="Idieresis" unicode="&#xcf;" horiz-adv-x="235" 
d="M196 800q0 30 28 42q8 4 18 4q30 0 42 -27q2 -5 3 -10q1 -4 1 -9q0 -30 -28 -42q-8 -4 -18 -4q-30 0 -42 27q-2 5 -3 10q-1 4 -1 9zM-34 799q0 30 28 42q8 4 18 4q30 0 42 -27q2 -5 3 -10q1 -4 1 -9q0 -30 -28 -42q-8 -4 -18 -4q-30 0 -42 27q-2 5 -3 10q-1 4 -1 9zM90 0
v711h77v-711h-77z" />
    <glyph glyph-name="Eth" unicode="&#xd0;" horiz-adv-x="693" 
d="M164 323h-88v69h88v319h186q138 0 222 -113q45 -61 63 -145q10 -47 10 -98q0 -161 -91 -263q-82 -92 -204 -92h-110h-76v323zM241 323v-253h109q104 0 166 92q53 78 53 193q0 45 -9 86q-27 124 -115 175q-44 25 -95 25h-109v-249h147v-69h-147z" />
    <glyph glyph-name="Ntilde" unicode="&#xd1;" horiz-adv-x="651" 
d="M187 854q21 17 34 26.5t22 14t16.5 5.5t16.5 1q10 0 28.5 -11t38 -24.5t37 -25.5t26.5 -13q28 -1 76 36l16 12v-71q-26 -20 -40.5 -29.5t-22.5 -14t-14 -4.5h-15q-13 0 -31.5 11.5t-37.5 25.5t-36 25.5t-26 11.5q-33 0 -73 -34q-6 -5 -9.5 -8.5t-5.5 -4.5v71zM74 0v711
h75l361 -567v567h77v-711h-71l-365 581v-581h-77z" />
    <glyph glyph-name="Ograve" unicode="&#xd2;" horiz-adv-x="669" 
d="M347 769l-118 141q-8 11 -8 24t12 24t26 11q8 -1 16 -4t13 -11l102 -153l3 -7v-6q0 -10 -8.5 -18.5t-19.5 -8.5q-10 0 -18 8zM550 354q0 74 -15 131.5t-42 96.5t-65 59t-83 20t-82.5 -20.5t-64.5 -60t-42 -96.5t-15 -130t15.5 -129t42.5 -94t64.5 -57.5t81.5 -19.5
q46 0 84 20.5t65 59t41.5 94t14.5 126.5zM60 354q0 78 20.5 146.5t57.5 119.5t89.5 80.5t117.5 29.5q57 0 109 -24.5t91.5 -72t62.5 -118t23 -161.5q0 -79 -20.5 -146.5t-58 -117t-90.5 -77.5t-117 -28q-57 0 -109 24t-91 70.5t-62 115.5t-23 159z" />
    <glyph glyph-name="Oacute" unicode="&#xd3;" horiz-adv-x="671" 
d="M540 354q0 74 -15 131.5t-42 96.5t-65 59t-83 20t-82.5 -20.5t-64.5 -60t-42 -96.5t-15 -130t15.5 -129t42.5 -94t64.5 -57.5t81.5 -19.5q46 0 84 20.5t65 59t41.5 94t14.5 126.5zM50 354q0 78 20.5 146.5t57.5 119.5t89.5 80.5t117.5 29.5q57 0 109 -24.5t91.5 -72
t62.5 -118t23 -161.5q0 -79 -20.5 -146.5t-58 -117t-90.5 -77.5t-117 -28q-57 0 -109 24t-91 70.5t-62 115.5t-23 159zM253 778l101 153q10 16 29 16q17 0 27.5 -12.5t10.5 -24.5q0 -11 -8 -22l-117 -142q-8 -8 -18 -8q-11 0 -20 7.5t-9 18.5q0 4 1 7t3 7z" />
    <glyph glyph-name="Ocircumflex" unicode="&#xd4;" horiz-adv-x="669" 
d="M513 763h-92l-76 104l-77 -103h-91l135 167h64zM550 354q0 74 -15 131.5t-42 96.5t-65 59t-83 20t-82.5 -20.5t-64.5 -60t-42 -96.5t-15 -130t15.5 -129t42.5 -94t64.5 -57.5t81.5 -19.5q46 0 84 20.5t65 59t41.5 94t14.5 126.5zM60 354q0 78 20.5 146.5t57.5 119.5
t89.5 80.5t117.5 29.5q57 0 109 -24.5t91.5 -72t62.5 -118t23 -161.5q0 -79 -20.5 -146.5t-58 -117t-90.5 -77.5t-117 -28q-57 0 -109 24t-91 70.5t-62 115.5t-23 159z" />
    <glyph glyph-name="Otilde" unicode="&#xd5;" horiz-adv-x="669" 
d="M191 864q21 17 34 26.5t22 14t16.5 5.5t16.5 1q10 0 28.5 -11t38 -24.5t37 -25.5t26.5 -13q28 -1 76 36l16 12v-71q-26 -20 -40.5 -29.5t-22.5 -14t-14 -4.5h-15q-13 0 -31.5 11.5t-37.5 25.5t-36 25.5t-26 11.5q-33 0 -73 -34q-6 -5 -9.5 -8.5t-5.5 -4.5v71zM550 354
q0 74 -15 131.5t-42 96.5t-65 59t-83 20t-82.5 -20.5t-64.5 -60t-42 -96.5t-15 -130t15.5 -129t42.5 -94t64.5 -57.5t81.5 -19.5q46 0 84 20.5t65 59t41.5 94t14.5 126.5zM60 354q0 78 20.5 146.5t57.5 119.5t89.5 80.5t117.5 29.5q57 0 109 -24.5t91.5 -72t62.5 -118
t23 -161.5q0 -79 -20.5 -146.5t-58 -117t-90.5 -77.5t-117 -28q-57 0 -109 24t-91 70.5t-62 115.5t-23 159z" />
    <glyph glyph-name="Odieresis" unicode="&#xd6;" horiz-adv-x="669" 
d="M406 816q0 30 28 42q8 4 18 4q30 0 42 -27q2 -5 3 -10q1 -4 1 -9q0 -30 -28 -42q-8 -4 -18 -4q-30 0 -42 27q-2 5 -3 10q-1 4 -1 9zM176 815q0 30 28 42q8 4 18 4q30 0 42 -27q2 -5 3 -10q1 -4 1 -9q0 -30 -28 -42q-8 -4 -18 -4q-30 0 -42 27q-2 5 -3 10q-1 4 -1 9z
M550 354q0 74 -15 131.5t-42 96.5t-65 59t-83 20t-82.5 -20.5t-64.5 -60t-42 -96.5t-15 -130t15.5 -129t42.5 -94t64.5 -57.5t81.5 -19.5q46 0 84 20.5t65 59t41.5 94t14.5 126.5zM60 354q0 78 20.5 146.5t57.5 119.5t89.5 80.5t117.5 29.5q57 0 109 -24.5t91.5 -72
t62.5 -118t23 -161.5q0 -79 -20.5 -146.5t-58 -117t-90.5 -77.5t-117 -28q-57 0 -109 24t-91 70.5t-62 115.5t-23 159z" />
    <glyph glyph-name="multiply" unicode="&#xd7;" horiz-adv-x="427" 
d="M63 213l105 107l-108 107l48 49l108 -107l106 107l49 -48l-106 -107l109 -107l-48 -49l-109 107l-105 -107z" />
    <glyph glyph-name="Oslash" unicode="&#xd8;" horiz-adv-x="636" 
d="M200 20l-15 -34h-74l36 80q-60 68 -84 178q-11 54 -11 107q0 143 64 248q75 122 209 122q59 0 107 -24l15 34h74l-33 -74q71 -70 98 -196q12 -56 12 -110q0 -144 -65 -247q-75 -118 -208 -118q-70 0 -125 34zM229 83q41 -29 96 -29q122 0 173 138q26 71 26 159
q0 58 -11 110q-17 80 -56 128zM179 136l225 499q-36 18 -79 18q-122 0 -173 -141q-26 -73 -26 -161q0 -57 11 -108q13 -63 42 -107z" />
    <glyph glyph-name="Ugrave" unicode="&#xd9;" horiz-adv-x="654" 
d="M338 747l-118 141q-8 11 -8 24t12 24t26 11q8 -1 16 -4t13 -11l102 -153l3 -7v-6q0 -10 -8.5 -18.5t-19.5 -8.5q-10 0 -18 8zM505 711h79v-396q0 -76 -17 -137t-49 -104t-80 -66t-109 -23q-58 0 -105 21t-80.5 62t-51.5 103t-18 144v396h79v-396q0 -124 46.5 -192.5
t129.5 -68.5q80 0 128 68.5t48 192.5v396z" />
    <glyph glyph-name="Uacute" unicode="&#xda;" horiz-adv-x="638" 
d="M495 711h79v-396q0 -76 -17 -137t-49 -104t-80 -66t-109 -23q-58 0 -105 21t-80.5 62t-51.5 103t-18 144v396h79v-396q0 -124 46.5 -192.5t129.5 -68.5q80 0 128 68.5t48 192.5v396zM237 778l101 153q10 16 29 16q17 0 27.5 -12.5t10.5 -24.5q0 -11 -8 -22l-117 -142
q-8 -8 -18 -8q-11 0 -20 7.5t-9 18.5q0 4 1 7t3 7z" />
    <glyph glyph-name="Ucircumflex" unicode="&#xdb;" horiz-adv-x="654" 
d="M491 765h-92l-76 104l-77 -103h-91l135 167h64zM505 711h79v-396q0 -76 -17 -137t-49 -104t-80 -66t-109 -23q-58 0 -105 21t-80.5 62t-51.5 103t-18 144v396h79v-396q0 -124 46.5 -192.5t129.5 -68.5q80 0 128 68.5t48 192.5v396z" />
    <glyph glyph-name="Udieresis" unicode="&#xdc;" horiz-adv-x="654" 
d="M395 816q0 30 28 42q8 4 18 4q30 0 42 -27q2 -5 3 -10q1 -4 1 -9q0 -30 -28 -42q-8 -4 -18 -4q-30 0 -42 27q-2 5 -3 10q-1 4 -1 9zM165 815q0 30 28 42q8 4 18 4q30 0 42 -27q2 -5 3 -10q1 -4 1 -9q0 -30 -28 -42q-8 -4 -18 -4q-30 0 -42 27q-2 5 -3 10q-1 4 -1 9z
M505 711h79v-396q0 -76 -17 -137t-49 -104t-80 -66t-109 -23q-58 0 -105 21t-80.5 62t-51.5 103t-18 144v396h79v-396q0 -124 46.5 -192.5t129.5 -68.5q80 0 128 68.5t48 192.5v396z" />
    <glyph glyph-name="Yacute" unicode="&#xdd;" horiz-adv-x="596" 
d="M42 711h82l174 -293l174 293h82l-218 -346v-365h-77v365zM216 778l101 153q10 16 29 16q17 0 27.5 -12.5t10.5 -24.5q0 -11 -8 -22l-117 -142q-8 -8 -18 -8q-11 0 -20 7.5t-9 18.5q0 4 1 7t3 7z" />
    <glyph glyph-name="Thorn" unicode="&#xde;" horiz-adv-x="669" 
d="M153 233q241 0 272 103q5 14 5 30q0 11 -3 22q-22 105 -274 105v-260zM76 711h77v-149q316 0 350 -158q3 -18 3 -38q0 -182 -281 -200q-33 -2 -72 -2v-164h-77v711z" />
    <glyph glyph-name="germandbls" unicode="&#xdf;" horiz-adv-x="612" 
d="M90 562q40 108 142 145q43 15 93 15q112 0 174 -70q30 -34 39 -79q5 -23 4 -49q0 -87 -102 -139q-26 -13 -54 -20q72 -18 121 -71q31 -34 40 -76q3 -16 3 -33q0 -199 -247 -199q-39 0 -90 25l44 60l39 -17h7q138 0 167 77q8 23 8 54q0 11 -2 21q-13 64 -93 101
q-52 25 -109 25h-17q-12 0 -21 -3v74q8 -2 18 -2h20q82 0 144 42q51 35 51 81q0 20 -3 38q-20 93 -141 93q-113 0 -156 -92q-5 -11 -10 -23q-25 -76 -31 -358q-3 -138 -6 -182h-72q4 42 12 296q7 201 28 266z" />
    <glyph glyph-name="agrave" unicode="&#xe0;" horiz-adv-x="526" 
d="M268 567l-118 141q-8 11 -8 24t12 24t26 11q8 -1 16 -4t13 -11l102 -153l3 -7v-6q0 -10 -8.5 -18.5t-19.5 -8.5q-10 0 -18 8zM254 294q-25 0 -47.5 -9t-39 -25t-26.5 -38t-10 -49q0 -53 35 -87t88 -34q22 0 43 9.5t37 25.5t26 38t10 48q0 24 -9 46t-25 38.5t-37 26.5
t-45 10zM248 360q18 0 36 -4t34.5 -12.5t29 -21t19.5 -29.5v37q0 68 -30 102t-87 34q-69 0 -110 -38l-38 50q66 54 148 54q39 0 73 -13t59.5 -38.5t40.5 -63.5t15 -87v-198q0 -38 15 -57t41 -19v-66q-49 0 -81 16.5t-37 49.5v1q-12 -28 -47.5 -49.5t-80.5 -21.5
q-38 0 -72.5 13t-61 37t-42.5 58.5t-16 78.5q0 36 15 70t41 60t61 41.5t75 15.5z" />
    <glyph glyph-name="aacute" unicode="&#xe1;" horiz-adv-x="505" 
d="M244 294q-25 0 -47.5 -9t-39 -25t-26.5 -38t-10 -49q0 -53 35 -87t88 -34q22 0 43 9.5t37 25.5t26 38t10 48q0 24 -9 46t-25 38.5t-37 26.5t-45 10zM238 360q18 0 36 -4t34.5 -12.5t29 -21t19.5 -29.5v37q0 68 -30 102t-87 34q-69 0 -110 -38l-38 50q66 54 148 54
q39 0 73 -13t59.5 -38.5t40.5 -63.5t15 -87v-198q0 -38 15 -57t41 -19v-66q-49 0 -81 16.5t-37 49.5v1q-12 -28 -47.5 -49.5t-80.5 -21.5q-38 0 -72.5 13t-61 37t-42.5 58.5t-16 78.5q0 36 15 70t41 60t61 41.5t75 15.5zM170 591l101 153q10 16 29 16q17 0 27.5 -12.5
t10.5 -24.5q0 -11 -8 -22l-117 -142q-8 -8 -18 -8q-11 0 -20 7.5t-9 18.5q0 4 1 7t3 7z" />
    <glyph glyph-name="acircumflex" unicode="&#xe2;" horiz-adv-x="526" 
d="M418 557h-92l-76 104l-77 -103h-91l135 167h64zM254 294q-25 0 -47.5 -9t-39 -25t-26.5 -38t-10 -49q0 -53 35 -87t88 -34q22 0 43 9.5t37 25.5t26 38t10 48q0 24 -9 46t-25 38.5t-37 26.5t-45 10zM248 360q18 0 36 -4t34.5 -12.5t29 -21t19.5 -29.5v37q0 68 -30 102
t-87 34q-69 0 -110 -38l-38 50q66 54 148 54q39 0 73 -13t59.5 -38.5t40.5 -63.5t15 -87v-198q0 -38 15 -57t41 -19v-66q-49 0 -81 16.5t-37 49.5v1q-12 -28 -47.5 -49.5t-80.5 -21.5q-38 0 -72.5 13t-61 37t-42.5 58.5t-16 78.5q0 36 15 70t41 60t61 41.5t75 15.5z" />
    <glyph glyph-name="atilde" unicode="&#xe3;" horiz-adv-x="505" 
d="M244 294q-25 0 -47.5 -9t-39 -25t-26.5 -38t-10 -49q0 -53 35 -87t88 -34q22 0 43 9.5t37 25.5t26 38t10 48q0 24 -9 46t-25 38.5t-37 26.5t-45 10zM238 360q18 0 36 -4t34.5 -12.5t29 -21t19.5 -29.5v37q0 68 -30 102t-87 34q-69 0 -110 -38l-38 50q66 54 148 54
q39 0 73 -13t59.5 -38.5t40.5 -63.5t15 -87v-198q0 -38 15 -57t41 -19v-66q-49 0 -81 16.5t-37 49.5v1q-12 -28 -47.5 -49.5t-80.5 -21.5q-38 0 -72.5 13t-61 37t-42.5 58.5t-16 78.5q0 36 15 70t41 60t61 41.5t75 15.5zM98 681q21 17 34 26.5t22 14t16.5 5.5t16.5 1
q10 0 28.5 -11t38 -24.5t37 -25.5t26.5 -13q28 -1 76 36l16 12v-71q-26 -20 -40.5 -29.5t-22.5 -14t-14 -4.5h-15q-13 0 -31.5 11.5t-37.5 25.5t-36 25.5t-26 11.5q-33 0 -73 -34q-6 -5 -9.5 -8.5t-5.5 -4.5v71z" />
    <glyph glyph-name="adieresis" unicode="&#xe4;" horiz-adv-x="505" 
d="M244 294q-25 0 -47.5 -9t-39 -25t-26.5 -38t-10 -49q0 -53 35 -87t88 -34q22 0 43 9.5t37 25.5t26 38t10 48q0 24 -9 46t-25 38.5t-37 26.5t-45 10zM238 360q18 0 36 -4t34.5 -12.5t29 -21t19.5 -29.5v37q0 68 -30 102t-87 34q-69 0 -110 -38l-38 50q66 54 148 54
q39 0 73 -13t59.5 -38.5t40.5 -63.5t15 -87v-198q0 -38 15 -57t41 -19v-66q-49 0 -81 16.5t-37 49.5v1q-12 -28 -47.5 -49.5t-80.5 -21.5q-38 0 -72.5 13t-61 37t-42.5 58.5t-16 78.5q0 36 15 70t41 60t61 41.5t75 15.5zM323 627q0 30 28 42q8 4 18 4q30 0 42 -27
q2 -5 3 -10q1 -4 1 -9q0 -30 -28 -42q-8 -4 -18 -4q-30 0 -42 27q-2 5 -3 10q-1 4 -1 9zM93 626q0 30 28 42q8 4 18 4q30 0 42 -27q2 -5 3 -10q1 -4 1 -9q0 -30 -28 -42q-8 -4 -18 -4q-30 0 -42 27q-2 5 -3 10q-1 4 -1 9z" />
    <glyph glyph-name="aring" unicode="&#xe5;" horiz-adv-x="505" 
d="M244 294q-25 0 -47.5 -9t-39 -25t-26.5 -38t-10 -49q0 -53 35 -87t88 -34q22 0 43 9.5t37 25.5t26 38t10 48q0 24 -9 46t-25 38.5t-37 26.5t-45 10zM238 360q18 0 36 -4t34.5 -12.5t29 -21t19.5 -29.5v37q0 68 -30 102t-87 34q-69 0 -110 -38l-38 50q66 54 148 54
q39 0 73 -13t59.5 -38.5t40.5 -63.5t15 -87v-198q0 -38 15 -57t41 -19v-66q-49 0 -81 16.5t-37 49.5v1q-12 -28 -47.5 -49.5t-80.5 -21.5q-38 0 -72.5 13t-61 37t-42.5 58.5t-16 78.5q0 36 15 70t41 60t61 41.5t75 15.5zM181 713q0 -8 2 -16q9 -41 46 -54q11 -3 23 -3
q42 0 62 38q8 16 8 35q0 8 -1 16q-9 41 -47 54q-10 3 -22 3q-42 0 -62 -38q-9 -16 -9 -35zM124 711q0 65 54 103q33 23 74 23q67 0 105 -54q15 -21 20 -46q3 -13 3 -26q0 -65 -54 -103q-33 -23 -74 -23q-67 0 -105 54q-15 21 -20 46q-3 13 -3 26z" />
    <glyph glyph-name="ae" unicode="&#xe6;" horiz-adv-x="736" 
d="M218 294q-84 0 -96 -92q-2 -14 -2 -29q0 -23 4 -42q17 -79 94 -79q61 0 87 61q11 27 11 60q0 18 -4 34q-13 66 -66 83q-13 4 -28 4zM357 444q39 64 82 81q24 9 55 9q130 0 169 -148q2 -8 4 -17q10 -48 10 -107l-2 -33h-288q0 -36 8 -70q22 -107 99 -107q40 0 62 36
q5 7 17 30l65 -26q-39 -76 -86 -96q-25 -10 -58 -10q-67 0 -108 50q-10 13 -30 44q-27 -48 -40 -61q-33 -33 -98 -33q-102 0 -148 84q-13 24 -19 53q-5 24 -5 50q0 95 66 149q45 38 106 38t90 -36l10 -15l-1 29q0 26 -4 47q-17 81 -93 81q-51 0 -87 -35l-3 -3l-38 50
q41 34 60 42q28 12 68 12q81 0 130 -77q4 -5 7 -11zM387 295h214q-3 36 -9 62q-23 111 -98 111q-73 0 -98 -103q-8 -33 -9 -70z" />
    <glyph glyph-name="ccedilla" unicode="&#xe7;" horiz-adv-x="514" 
d="M198 -143q46 34 46 51q0 4 -1 7q-2 9 -26 44l63 27q32 -30 39 -65q2 -10 2 -19q0 -44 -69 -86l-33 -20zM436 466l-49 -49q-17 17 -30.5 27t-25.5 15.5t-24 7t-27 1.5q-27 0 -52.5 -16t-46 -44t-32.5 -65.5t-12 -80.5q0 -41 10.5 -79t29 -67t44 -47t56.5 -18q68 0 116 59
l48 -48q-41 -44 -78.5 -60.5t-85.5 -16.5q-46 0 -85 21.5t-68 58.5t-45.5 87.5t-16.5 109.5q0 55 17 104.5t46 86.5t69 59t86 22q52 0 87 -17t69 -51z" />
    <glyph glyph-name="egrave" unicode="&#xe8;" horiz-adv-x="525" 
d="M271 571l-118 141q-8 11 -8 24t12 24t26 11q8 -1 16 -4t13 -11l102 -153l3 -7v-6q0 -10 -8.5 -18.5t-19.5 -8.5q-10 0 -18 8zM141 295h254q-6 78 -40.5 125.5t-86.5 47.5q-24 0 -46 -12t-39 -34t-28.5 -54.5t-13.5 -72.5zM141 229q3 -42 14 -75t28 -55.5t39 -34.5t46 -12
q35 0 68 16.5t51 49.5l65 -26q-24 -47 -72.5 -76.5t-111.5 -29.5q-42 0 -79.5 17.5t-65.5 52.5t-44 86.5t-16 119.5q0 59 14 109t40.5 86t64.5 56.5t86 20.5q43 0 79.5 -17t62.5 -51.5t41 -85.5t15 -118v-33h-325z" />
    <glyph glyph-name="eacute" unicode="&#xe9;" horiz-adv-x="515" 
d="M131 295h254q-6 78 -40.5 125.5t-86.5 47.5q-24 0 -46 -12t-39 -34t-28.5 -54.5t-13.5 -72.5zM131 229q3 -42 14 -75t28 -55.5t39 -34.5t46 -12q35 0 68 16.5t51 49.5l65 -26q-24 -47 -72.5 -76.5t-111.5 -29.5q-42 0 -79.5 17.5t-65.5 52.5t-44 86.5t-16 119.5
q0 59 14 109t40.5 86t64.5 56.5t86 20.5q43 0 79.5 -17t62.5 -51.5t41 -85.5t15 -118v-33h-325zM175 591l101 153q10 16 29 16q17 0 27.5 -12.5t10.5 -24.5q0 -11 -8 -22l-117 -142q-8 -8 -18 -8q-11 0 -20 7.5t-9 18.5q0 4 1 7t3 7z" />
    <glyph glyph-name="ecircumflex" unicode="&#xea;" horiz-adv-x="525" 
d="M443 563h-92l-76 104l-77 -103h-91l135 167h64zM141 295h254q-6 78 -40.5 125.5t-86.5 47.5q-24 0 -46 -12t-39 -34t-28.5 -54.5t-13.5 -72.5zM141 229q3 -42 14 -75t28 -55.5t39 -34.5t46 -12q35 0 68 16.5t51 49.5l65 -26q-24 -47 -72.5 -76.5t-111.5 -29.5
q-42 0 -79.5 17.5t-65.5 52.5t-44 86.5t-16 119.5q0 59 14 109t40.5 86t64.5 56.5t86 20.5q43 0 79.5 -17t62.5 -51.5t41 -85.5t15 -118v-33h-325z" />
    <glyph glyph-name="edieresis" unicode="&#xeb;" horiz-adv-x="515" 
d="M131 295h254q-6 78 -40.5 125.5t-86.5 47.5q-24 0 -46 -12t-39 -34t-28.5 -54.5t-13.5 -72.5zM131 229q3 -42 14 -75t28 -55.5t39 -34.5t46 -12q35 0 68 16.5t51 49.5l65 -26q-24 -47 -72.5 -76.5t-111.5 -29.5q-42 0 -79.5 17.5t-65.5 52.5t-44 86.5t-16 119.5
q0 59 14 109t40.5 86t64.5 56.5t86 20.5q43 0 79.5 -17t62.5 -51.5t41 -85.5t15 -118v-33h-325zM328 627q0 30 28 42q8 4 18 4q30 0 42 -27q2 -5 3 -10q1 -4 1 -9q0 -30 -28 -42q-8 -4 -18 -4q-30 0 -42 27q-2 5 -3 10q-1 4 -1 9zM98 626q0 30 28 42q8 4 18 4q30 0 42 -27
q2 -5 3 -10q1 -4 1 -9q0 -30 -28 -42q-8 -4 -18 -4q-30 0 -42 27q-2 5 -3 10q-1 4 -1 9z" />
    <glyph glyph-name="igrave" unicode="&#xec;" horiz-adv-x="229" 
d="M79 524h74v-524h-74v524zM100 574l-118 140q-8 11 -8 24t12 24t26 11q8 -1 16 -4t13 -11l102 -153l3 -7v-6q0 -10 -8.5 -18.5t-19.5 -8.5t-18 9z" />
    <glyph glyph-name="iacute" unicode="&#xed;" horiz-adv-x="226" 
d="M78 524h74v-524h-74v524zM98 598l101 153q10 16 29 16q17 0 27.5 -12.5t10.5 -24.5q0 -11 -8 -22l-117 -142q-8 -8 -18 -8q-11 0 -20 7.5t-9 18.5q0 4 1 7t3 7z" />
    <glyph glyph-name="icircumflex" unicode="&#xee;" horiz-adv-x="454" 
d="M196 524h74v-524h-74v524zM402 546h-92l-76 104l-77 -103h-91l135 167h64z" />
    <glyph glyph-name="idieresis" unicode="&#xef;" horiz-adv-x="346" 
d="M138 524h74v-524h-74v524zM244 619q0 17 11.5 31.5t34.5 14.5q30 0 42 -27l3 -10q1 -3 1 -9q0 -17 -11.5 -31.5t-34.5 -14.5q-30 0 -42 27l-3 10q-1 3 -1 9zM14 618q0 17 11.5 31.5t34.5 14.5q30 0 42 -27l3 -10q1 -3 1 -9q0 -17 -11.5 -31.5t-34.5 -14.5q-30 0 -42 27
l-3 10q-1 3 -1 9z" />
    <glyph glyph-name="eth" unicode="&#xf0;" horiz-adv-x="523" 
d="M119 222q0 -24 5 -46q16 -78 76 -111q24 -13 45 -13q62 0 105 63q34 49 34 107q0 16 -3 32q-15 71 -81 110q-36 22 -74 22q-49 0 -83 -67q-24 -47 -24 -97zM339 630q66 -75 97 -167q7 -20 11 -38t5 -34q7 -102 6 -146q0 -128 -77 -204q-56 -55 -131 -55q-139 0 -186 124
q-7 19 -12 40q-7 35 -7 74q0 109 67 177q51 51 119 51q66 0 113 -42l32 -30q0 15 -4 35q-17 80 -63 145q-13 17 -25 28l-75 -70l-48 49l66 63q-35 12 -78 12q-20 0 -56 -4l-7 72q13 1 40 1q93 0 160 -34l76 68l47 -53z" />
    <glyph glyph-name="ntilde" unicode="&#xf1;" horiz-adv-x="520" 
d="M142 0h-74v524h74v-79q61 90 143 90q112 0 151 -111l9 -32q5 -17 5.5 -34.5t1.5 -36.5v-321h-74v321q0 71 -27 107.5t-66 39.5q-25 0 -50.5 -12t-46 -32t-33.5 -46.5t-13 -55.5v-322zM104 681q21 17 34 26.5t22 14t16.5 5.5t16.5 1q10 0 28.5 -11t38 -24.5t37 -25.5
t26.5 -13q28 -1 76 36l16 12v-71q-26 -20 -40.5 -29.5t-22.5 -14t-14 -4.5h-15q-13 0 -31.5 11.5t-37.5 25.5t-36 25.5t-26 11.5q-33 0 -73 -34q-6 -5 -9.5 -8.5t-5.5 -4.5v71z" />
    <glyph glyph-name="ograve" unicode="&#xf2;" horiz-adv-x="538" 
d="M265 569l-118 141q-8 11 -8 24t12 24t26 11q8 -1 16 -4t13 -11l102 -153l3 -7v-6q0 -10 -8.5 -18.5t-19.5 -8.5q-10 0 -18 8zM65 262q0 60 14 110t40 86t64 56t85 20q43 0 80 -17.5t64.5 -52t43 -85t15.5 -117.5q0 -60 -14 -110.5t-40.5 -87.5t-64 -57.5t-84.5 -20.5
q-43 0 -80 17.5t-64.5 52.5t-43 86.5t-15.5 119.5zM140 262q0 -49 10.5 -88t28 -66t40.5 -41.5t49 -14.5q57 0 92.5 54t35.5 156q0 49 -10 87t-27.5 64.5t-41 40.5t-49.5 14q-27 0 -50 -14.5t-40.5 -41t-27.5 -64.5t-10 -86z" />
    <glyph glyph-name="oacute" unicode="&#xf3;" horiz-adv-x="515" 
d="M55 262q0 60 14 110t40 86t64 56t85 20q43 0 80 -17.5t64.5 -52t43 -85t15.5 -117.5q0 -60 -14 -110.5t-40.5 -87.5t-64 -57.5t-84.5 -20.5q-43 0 -80 17.5t-64.5 52.5t-43 86.5t-15.5 119.5zM130 262q0 -49 10.5 -88t28 -66t40.5 -41.5t49 -14.5q57 0 92.5 54t35.5 156
q0 49 -10 87t-27.5 64.5t-41 40.5t-49.5 14q-27 0 -50 -14.5t-40.5 -41t-27.5 -64.5t-10 -86zM175 591l101 153q10 16 29 16q17 0 27.5 -12.5t10.5 -24.5q0 -11 -8 -22l-117 -142q-8 -8 -18 -8q-11 0 -20 7.5t-9 18.5q0 4 1 7t3 7z" />
    <glyph glyph-name="ocircumflex" unicode="&#xf4;" horiz-adv-x="539" 
d="M436 549h-92l-76 104l-77 -103h-91l135 167h64zM65 262q0 60 14 110t40 86t64 56t85 20q43 0 80 -17.5t64.5 -52t43 -85t15.5 -117.5q0 -60 -14 -110.5t-40.5 -87.5t-64 -57.5t-84.5 -20.5q-43 0 -80 17.5t-64.5 52.5t-43 86.5t-15.5 119.5zM140 262q0 -49 10.5 -88
t28 -66t40.5 -41.5t49 -14.5q57 0 92.5 54t35.5 156q0 49 -10 87t-27.5 64.5t-41 40.5t-49.5 14q-27 0 -50 -14.5t-40.5 -41t-27.5 -64.5t-10 -86z" />
    <glyph glyph-name="otilde" unicode="&#xf5;" horiz-adv-x="515" 
d="M55 262q0 60 14 110t40 86t64 56t85 20q43 0 80 -17.5t64.5 -52t43 -85t15.5 -117.5q0 -60 -14 -110.5t-40.5 -87.5t-64 -57.5t-84.5 -20.5q-43 0 -80 17.5t-64.5 52.5t-43 86.5t-15.5 119.5zM130 262q0 -49 10.5 -88t28 -66t40.5 -41.5t49 -14.5q57 0 92.5 54t35.5 156
q0 49 -10 87t-27.5 64.5t-41 40.5t-49.5 14q-27 0 -50 -14.5t-40.5 -41t-27.5 -64.5t-10 -86zM102 681q21 17 34 26.5t22 14t16.5 5.5t16.5 1q10 0 28.5 -11t38 -24.5t37 -25.5t26.5 -13q28 -1 76 36l16 12v-71q-26 -20 -40.5 -29.5t-22.5 -14t-14 -4.5h-15
q-13 0 -31.5 11.5t-37.5 25.5t-36 25.5t-26 11.5q-33 0 -73 -34q-6 -5 -9.5 -8.5t-5.5 -4.5v71z" />
    <glyph glyph-name="odieresis" unicode="&#xf6;" horiz-adv-x="538" 
d="M330 623q0 30 28 42q8 4 18 4q30 0 42 -27q2 -5 3 -10q1 -4 1 -9q0 -30 -28 -42q-8 -4 -18 -4q-30 0 -42 27q-2 5 -3 10q-1 4 -1 9zM100 622q0 30 28 42q8 4 18 4q30 0 42 -27q2 -5 3 -10q1 -4 1 -9q0 -30 -28 -42q-8 -4 -18 -4q-30 0 -42 27q-2 5 -3 10q-1 4 -1 9z
M65 262q0 60 14 110t40 86t64 56t85 20q43 0 80 -17.5t64.5 -52t43 -85t15.5 -117.5q0 -60 -14 -110.5t-40.5 -87.5t-64 -57.5t-84.5 -20.5q-43 0 -80 17.5t-64.5 52.5t-43 86.5t-15.5 119.5zM140 262q0 -49 10.5 -88t28 -66t40.5 -41.5t49 -14.5q57 0 92.5 54t35.5 156
q0 49 -10 87t-27.5 64.5t-41 40.5t-49.5 14q-27 0 -50 -14.5t-40.5 -41t-27.5 -64.5t-10 -86z" />
    <glyph glyph-name="divide" unicode="&#xf7;" horiz-adv-x="465" 
d="M68 344h331v-69h-331v69zM183 492q0 22 13 37t39 15q34 0 48 -30l3 -11q1 -2 1 -8q0 -23 -12.5 -39t-39.5 -16q-35 0 -48 30l-3 11q-1 3 -1 11zM184 136q0 22 13 37t39 15q34 0 48 -30l3 -11q1 -2 1 -8q0 -23 -12.5 -39t-39.5 -16q-35 0 -48 30l-3 11q-1 3 -1 11z" />
    <glyph glyph-name="oslash" unicode="&#xf8;" horiz-adv-x="520" 
d="M368 377l-183 -292q32 -33 73 -33q82 0 114 105q15 48 15 105q0 41 -7 75q-5 22 -12 40zM330 437q-31 31 -72 31q-74 0 -109 -93q-20 -51 -20 -113q0 -42 7 -77q5 -21 12 -39zM47 -14l56 89q-27 43 -39 101q-9 41 -9 86q0 149 78 223q51 49 125 49q63 0 110 -36l24 38h76
l-55 -88q27 -44 39 -101q9 -41 9 -85q0 -147 -76 -224q-52 -52 -127 -52q-64 0 -111 38l-24 -38h-76z" />
    <glyph glyph-name="ugrave" unicode="&#xf9;" horiz-adv-x="524" 
d="M274 555l-118 141q-8 11 -8 24t12 24t26 11q8 -1 16 -4t13 -11l102 -153l3 -7v-6q0 -10 -8.5 -18.5t-19.5 -8.5q-10 0 -18 8zM383 524h74v-524h-74v68q-20 -32 -52.5 -55.5t-70.5 -23.5q-36 0 -69.5 16t-60 44t-42 67t-15.5 86v322h74v-323q0 -66 31.5 -105.5t82.5 -39.5
q24 0 46 10.5t39 29.5t27 46t10 60v322z" />
    <glyph glyph-name="uacute" unicode="&#xfa;" horiz-adv-x="520" 
d="M373 524h74v-524h-74v68q-20 -32 -52.5 -55.5t-70.5 -23.5q-36 0 -69.5 16t-60 44t-42 67t-15.5 86v322h74v-323q0 -66 31.5 -105.5t82.5 -39.5q24 0 46 10.5t39 29.5t27 46t10 60v322zM178 591l101 153q10 16 29 16q17 0 27.5 -12.5t10.5 -24.5q0 -11 -8 -22l-117 -142
q-8 -8 -18 -8q-11 0 -20 7.5t-9 18.5q0 4 1 7t3 7z" />
    <glyph glyph-name="ucircumflex" unicode="&#xfb;" horiz-adv-x="520" 
d="M435 584h-92l-76 104l-77 -103h-91l135 167h64zM383 524h74v-524h-74v68q-20 -32 -52.5 -55.5t-70.5 -23.5q-36 0 -69.5 16t-60 44t-42 67t-15.5 86v322h74v-323q0 -66 31.5 -105.5t82.5 -39.5q24 0 46 10.5t39 29.5t27 46t10 60v322z" />
    <glyph glyph-name="udieresis" unicode="&#xfc;" horiz-adv-x="520" 
d="M373 524h74v-524h-74v68q-20 -32 -52.5 -55.5t-70.5 -23.5q-36 0 -69.5 16t-60 44t-42 67t-15.5 86v322h74v-323q0 -66 31.5 -105.5t82.5 -39.5q24 0 46 10.5t39 29.5t27 46t10 60v322zM330 627q0 30 28 42q8 4 18 4q30 0 42 -27q2 -5 3 -10q1 -4 1 -9q0 -30 -28 -42
q-8 -4 -18 -4q-30 0 -42 27q-2 5 -3 10q-1 4 -1 9zM100 626q0 30 28 42q8 4 18 4q30 0 42 -27q2 -5 3 -10q1 -4 1 -9q0 -30 -28 -42q-8 -4 -18 -4q-30 0 -42 27q-2 5 -3 10q-1 4 -1 9z" />
    <glyph glyph-name="yacute" unicode="&#xfd;" horiz-adv-x="500" 
d="M82 -134l51 41q29 -34 55 -47t61 -13q54 0 89 36t35 101v87q-18 -35 -51 -58.5t-72 -23.5q-35 0 -69 15.5t-60 44t-42 69t-16 91.5v315h74v-315q0 -72 30.5 -112.5t84.5 -40.5q24 0 46 11t38.5 31t26.5 47.5t10 59.5v319h74v-533q0 -44 -14.5 -82t-41 -66.5t-63 -45
t-79.5 -16.5q-90 0 -154 69zM168 591l101 153q10 16 29 16q17 0 27.5 -12.5t10.5 -24.5q0 -11 -8 -22l-117 -142q-8 -8 -18 -8q-11 0 -20 7.5t-9 18.5q0 4 1 7t3 7z" />
    <glyph glyph-name="thorn" unicode="&#xfe;" horiz-adv-x="510" 
d="M142 437q52 96 136 96q40 0 73.5 -18t58 -52.5t38 -85t13.5 -114.5q0 -63 -13.5 -114t-37.5 -87t-57.5 -56t-73.5 -20h-2q-38 0 -69.5 20.5t-65.5 73.5v-289h-74v919h74v-273zM386 263q0 50 -9 88t-24 64t-34.5 39t-40.5 13q-30 0 -55.5 -16.5t-44 -45t-28.5 -65.5
t-10 -78q0 -48 12 -87t31.5 -66.5t44.5 -42t50 -14.5t45 17t34 46t21.5 67.5t7.5 80.5z" />
    <glyph glyph-name="ydieresis" unicode="&#xff;" horiz-adv-x="500" 
d="M333 641q0 30 28 42q8 4 18 4q30 0 42 -27q2 -5 3 -10q1 -4 1 -9q0 -30 -28 -42q-8 -4 -18 -4q-30 0 -42 27q-2 5 -3 10q-1 4 -1 9zM103 640q0 30 28 42q8 4 18 4q30 0 42 -27q2 -5 3 -10q1 -4 1 -9q0 -30 -28 -42q-8 -4 -18 -4q-30 0 -42 27q-2 5 -3 10q-1 4 -1 9z
M92 -134l51 41q29 -34 55 -47t61 -13q54 0 89 36t35 101v87q-18 -35 -51 -58.5t-72 -23.5q-35 0 -69 15.5t-60 44t-42 69t-16 91.5v315h74v-315q0 -72 30.5 -112.5t84.5 -40.5q24 0 46 11t38.5 31t26.5 47.5t10 59.5v319h74v-533q0 -44 -14.5 -82t-41 -66.5t-63 -45
t-79.5 -16.5q-90 0 -154 69z" />
    <glyph glyph-name="Amacron" unicode="&#x100;" horiz-adv-x="656" 
d="M327 613l-96 -310h195zM448 247h-243l-84 -247h-81l256 711h62l256 -711h-83zM180 838h295v-66h-295v66z" />
    <glyph glyph-name="amacron" unicode="&#x101;" horiz-adv-x="505" 
d="M244 294q-25 0 -47.5 -9t-39 -25t-26.5 -38t-10 -49q0 -53 35 -87t88 -34q22 0 43 9.5t37 25.5t26 38t10 48q0 24 -9 46t-25 38.5t-37 26.5t-45 10zM238 360q18 0 36 -4t34.5 -12.5t29 -21t19.5 -29.5v37q0 68 -30 102t-87 34q-69 0 -110 -38l-38 50q66 54 148 54
q39 0 73 -13t59.5 -38.5t40.5 -63.5t15 -87v-198q0 -38 15 -57t41 -19v-66q-49 0 -81 16.5t-37 49.5v1q-12 -28 -47.5 -49.5t-80.5 -21.5q-38 0 -72.5 13t-61 37t-42.5 58.5t-16 78.5q0 36 15 70t41 60t61 41.5t75 15.5zM105 651h295v-66h-295v66z" />
    <glyph glyph-name="Abreve" unicode="&#x102;" horiz-adv-x="656" 
d="M327 613l-96 -310h195zM448 247h-243l-84 -247h-81l256 711h62l256 -711h-83zM225 919q6 -16 15 -27q18 -27 41 -41.5t49 -14.5q57 0 92 54q8 13 15 28h76q-13 -40 -35 -70q-26 -37 -63.5 -57.5t-84.5 -20.5q-43 0 -80 17.5t-65 52.5q-26 32 -42 79h82z" />
    <glyph glyph-name="abreve" unicode="&#x103;" horiz-adv-x="505" 
d="M244 294q-25 0 -47.5 -9t-39 -25t-26.5 -38t-10 -49q0 -53 35 -87t88 -34q22 0 43 9.5t37 25.5t26 38t10 48q0 24 -9 46t-25 38.5t-37 26.5t-45 10zM238 360q18 0 36 -4t34.5 -12.5t29 -21t19.5 -29.5v37q0 68 -30 102t-87 34q-69 0 -110 -38l-38 50q66 54 148 54
q39 0 73 -13t59.5 -38.5t40.5 -63.5t15 -87v-198q0 -38 15 -57t41 -19v-66q-49 0 -81 16.5t-37 49.5v1q-12 -28 -47.5 -49.5t-80.5 -21.5q-38 0 -72.5 13t-61 37t-42.5 58.5t-16 78.5q0 36 15 70t41 60t61 41.5t75 15.5zM151 732q6 -16 15 -27q18 -27 41 -41.5t49 -14.5
q57 0 92 54q8 13 15 28h76q-13 -40 -35 -70q-26 -37 -63.5 -57.5t-84.5 -20.5q-43 0 -80 17.5t-65 52.5q-26 32 -42 79h82z" />
    <glyph glyph-name="Ccircumflex" unicode="&#x108;" horiz-adv-x="616" 
d="M566 110q-44 -66 -96.5 -95.5t-122.5 -29.5q-59 0 -112.5 24.5t-93.5 72t-63.5 116t-23.5 156.5q0 78 21.5 146.5t60.5 119.5t93 80.5t119 29.5q72 0 122.5 -29t88.5 -86l-64 -32q-23 33 -62.5 55.5t-84.5 22.5h-1q-45 0 -84 -24t-67.5 -65.5t-44.5 -97.5t-16 -120
t16.5 -119t45 -95t67 -63t83.5 -23q85 0 136 61l20 28zM476 771h-92l-76 104l-77 -103h-91l135 167h64z" />
    <glyph glyph-name="ccircumflex" unicode="&#x109;" horiz-adv-x="470" 
d="M426 466l-49 -49q-17 17 -30.5 27t-25.5 15.5t-24 7t-27 1.5q-27 0 -52.5 -16t-46 -44t-32.5 -65.5t-12 -80.5q0 -41 10.5 -79t29 -67t44 -47t56.5 -18q68 0 116 59l48 -48q-41 -44 -78.5 -60.5t-85.5 -16.5q-46 0 -85 21.5t-68 58.5t-45.5 87.5t-16.5 109.5
q0 55 17 104.5t46 86.5t69 59t86 22q52 0 87 -17t69 -51zM403 584h-92l-76 104l-77 -103h-91l135 167h64z" />
    <glyph glyph-name="Emacron" unicode="&#x112;" horiz-adv-x="578" 
d="M64 711h450v-69h-373v-243h352v-69h-352v-261h373v-69h-450v711zM141 838h295v-66h-295v66z" />
    <glyph glyph-name="emacron" unicode="&#x113;" horiz-adv-x="515" 
d="M131 295h254q-6 78 -40.5 125.5t-86.5 47.5q-24 0 -46 -12t-39 -34t-28.5 -54.5t-13.5 -72.5zM131 229q3 -42 14 -75t28 -55.5t39 -34.5t46 -12q35 0 68 16.5t51 49.5l65 -26q-24 -47 -72.5 -76.5t-111.5 -29.5q-42 0 -79.5 17.5t-65.5 52.5t-44 86.5t-16 119.5
q0 59 14 109t40.5 86t64.5 56.5t86 20.5q43 0 79.5 -17t62.5 -51.5t41 -85.5t15 -118v-33h-325zM110 651h295v-66h-295v66z" />
    <glyph glyph-name="Ebreve" unicode="&#x114;" horiz-adv-x="578" 
d="M64 711h450v-69h-373v-243h352v-69h-352v-261h373v-69h-450v711zM186 919q6 -16 15 -27q18 -27 41 -41.5t49 -14.5q57 0 92 54q8 13 15 28h76q-13 -40 -35 -70q-26 -37 -63.5 -57.5t-84.5 -20.5q-43 0 -80 17.5t-65 52.5q-26 32 -42 79h82z" />
    <glyph glyph-name="ebreve" unicode="&#x115;" horiz-adv-x="515" 
d="M131 295h254q-6 78 -40.5 125.5t-86.5 47.5q-24 0 -46 -12t-39 -34t-28.5 -54.5t-13.5 -72.5zM131 229q3 -42 14 -75t28 -55.5t39 -34.5t46 -12q35 0 68 16.5t51 49.5l65 -26q-24 -47 -72.5 -76.5t-111.5 -29.5q-42 0 -79.5 17.5t-65.5 52.5t-44 86.5t-16 119.5
q0 59 14 109t40.5 86t64.5 56.5t86 20.5q43 0 79.5 -17t62.5 -51.5t41 -85.5t15 -118v-33h-325zM156 732q6 -16 15 -27q18 -27 41 -41.5t49 -14.5q57 0 92 54q8 13 15 28h76q-13 -40 -35 -70q-26 -37 -63.5 -57.5t-84.5 -20.5q-43 0 -80 17.5t-65 52.5q-26 32 -42 79h82z
" />
    <glyph glyph-name="Gcircumflex" unicode="&#x11c;" horiz-adv-x="686" 
d="M347 -14q-60 0 -113.5 24t-93 71t-63 116.5t-23.5 159.5q0 76 21.5 144t60.5 119t93 80.5t119 29.5q127 0 196 -92l16 -23l-67 -33q-32 44 -66 61.5t-79 17.5t-83.5 -24t-67.5 -65.5t-45.5 -96.5t-16.5 -118q0 -68 17 -124t45.5 -95.5t67 -61.5t82.5 -22q42 0 77.5 17
t61.5 48.5t40.5 77.5t14.5 104h-192v69h268v-42q0 -74 -18.5 -136.5t-53 -108.5t-85 -71.5t-113.5 -25.5zM511 771h-92l-76 104l-77 -103h-91l135 167h64z" />
    <glyph glyph-name="gcircumflex" unicode="&#x11d;" horiz-adv-x="510" 
d="M128 263q0 -100 32 -155t79 -55q27 0 51 16.5t43 45t30 67t11 81.5q0 42 -10.5 79t-29 64.5t-43.5 44t-54 16.5q-23 0 -43 -14.5t-34.5 -41t-23 -64t-8.5 -84.5zM372 79q-20 -28 -36 -46t-31 -28t-30.5 -14t-33.5 -4h-3q-40 0 -74 17.5t-58.5 52.5t-38.5 87t-14 121
q0 57 12.5 106t36 85.5t57.5 57t78 20.5q83 0 135 -97v87h74v-533q0 -45 -13.5 -83t-38.5 -66.5t-59.5 -44.5t-76.5 -16q-71 0 -122 38t-69 114l-2 14h70q0 -23 11.5 -41t29 -31.5t38.5 -20.5t40 -7q51 0 84.5 35.5t33.5 101.5v95zM423 584h-92l-76 104l-77 -103h-91
l135 167h64z" />
    <glyph glyph-name="Gbreve" unicode="&#x11e;" horiz-adv-x="686" 
d="M347 -14q-60 0 -113.5 24t-93 71t-63 116.5t-23.5 159.5q0 76 21.5 144t60.5 119t93 80.5t119 29.5q127 0 196 -92l16 -23l-67 -33q-32 44 -66 61.5t-79 17.5t-83.5 -24t-67.5 -65.5t-45.5 -96.5t-16.5 -118q0 -68 17 -124t45.5 -95.5t67 -61.5t82.5 -22q42 0 77.5 17
t61.5 48.5t40.5 77.5t14.5 104h-192v69h268v-42q0 -74 -18.5 -136.5t-53 -108.5t-85 -71.5t-113.5 -25.5zM240 919q6 -17 15 -27q37 -56 90 -56q29 0 53 12.5t39 41.5l15 28h76q-14 -42 -35 -70q-26 -37 -63 -57.5t-85 -20.5q-43 0 -80 17.5t-65 52.5q-25 31 -42 79h82z" />
    <glyph glyph-name="gbreve" unicode="&#x11f;" horiz-adv-x="510" 
d="M128 263q0 -100 32 -155t79 -55q27 0 51 16.5t43 45t30 67t11 81.5q0 42 -10.5 79t-29 64.5t-43.5 44t-54 16.5q-23 0 -43 -14.5t-34.5 -41t-23 -64t-8.5 -84.5zM372 79q-20 -28 -36 -46t-31 -28t-30.5 -14t-33.5 -4h-3q-40 0 -74 17.5t-58.5 52.5t-38.5 87t-14 121
q0 57 12.5 106t36 85.5t57.5 57t78 20.5q83 0 135 -97v87h74v-533q0 -45 -13.5 -83t-38.5 -66.5t-59.5 -44.5t-76.5 -16q-71 0 -122 38t-69 114l-2 14h70q0 -23 11.5 -41t29 -31.5t38.5 -20.5t40 -7q51 0 84.5 35.5t33.5 101.5v95zM152 732q6 -17 15 -27q37 -56 90 -56
q29 0 53 12.5t39 41.5l15 28h76q-14 -42 -35 -70q-26 -37 -63 -57.5t-85 -20.5q-43 0 -80 17.5t-65 52.5q-25 31 -42 79h82z" />
    <glyph glyph-name="Gdotaccent" unicode="&#x120;" horiz-adv-x="686" 
d="M347 -14q-60 0 -113.5 24t-93 71t-63 116.5t-23.5 159.5q0 76 21.5 144t60.5 119t93 80.5t119 29.5q127 0 196 -92l16 -23l-67 -33q-32 44 -66 61.5t-79 17.5t-83.5 -24t-67.5 -65.5t-45.5 -96.5t-16.5 -118q0 -68 17 -124t45.5 -95.5t67 -61.5t82.5 -22q42 0 77.5 17
t61.5 48.5t40.5 77.5t14.5 104h-192v69h268v-42q0 -74 -18.5 -136.5t-53 -108.5t-85 -71.5t-113.5 -25.5zM297 813q0 30 28 42q8 4 18 4q30 0 42 -27q2 -5 3 -10q1 -4 1 -9q0 -30 -28 -42q-8 -4 -18 -4q-30 0 -42 27q-2 5 -3 10q-1 4 -1 9z" />
    <glyph glyph-name="gdotaccent" unicode="&#x121;" horiz-adv-x="510" 
d="M128 263q0 -100 32 -155t79 -55q27 0 51 16.5t43 45t30 67t11 81.5q0 42 -10.5 79t-29 64.5t-43.5 44t-54 16.5q-23 0 -43 -14.5t-34.5 -41t-23 -64t-8.5 -84.5zM372 79q-20 -28 -36 -46t-31 -28t-30.5 -14t-33.5 -4h-3q-40 0 -74 17.5t-58.5 52.5t-38.5 87t-14 121
q0 57 12.5 106t36 85.5t57.5 57t78 20.5q83 0 135 -97v87h74v-533q0 -45 -13.5 -83t-38.5 -66.5t-59.5 -44.5t-76.5 -16q-71 0 -122 38t-69 114l-2 14h70q0 -23 11.5 -41t29 -31.5t38.5 -20.5t40 -7q51 0 84.5 35.5t33.5 101.5v95zM209 626q0 30 28 42q8 4 18 4q30 0 42 -27
q2 -5 3 -10q1 -4 1 -9q0 -30 -28 -42q-8 -4 -18 -4q-30 0 -42 27q-2 5 -3 10q-1 4 -1 9z" />
    <glyph glyph-name="Hcircumflex" unicode="&#x124;" horiz-adv-x="605" 
d="M64 711h77v-313h323v313h77v-711h-77v329h-323v-329h-77v711zM470 771h-92l-76 104l-77 -103h-91l135 167h64z" />
    <glyph glyph-name="hcircumflex" unicode="&#x125;" horiz-adv-x="520" 
d="M142 0h-74v710h74v-260q22 27 39.5 43.5t33.5 25.5t31.5 12.5t34.5 3.5q80 0 125.5 -53t45.5 -161v-321h-74v321q0 147 -97 147q-26 0 -51 -12t-44.5 -32.5t-31.5 -47t-12 -54.5v-322zM274 771h-92l-76 104l-77 -103h-91l135 167h64z" />
    <glyph glyph-name="Imacron" unicode="&#x12a;" horiz-adv-x="237" 
d="M80 0v711h77v-711h-77zM-28 838h295v-66h-295v66z" />
    <glyph glyph-name="imacron" unicode="&#x12b;" horiz-adv-x="230" 
d="M78 524h74v-524h-74v524zM-31 651h295v-66h-295v66z" />
    <glyph glyph-name="Ibreve" unicode="&#x12c;" horiz-adv-x="237" 
d="M80 0v711h77v-711h-77zM17 919q6 -16 15 -27q18 -27 41 -41.5t49 -14.5q57 0 92 54q8 13 15 28h76q-13 -40 -35 -70q-26 -37 -63.5 -57.5t-84.5 -20.5q-43 0 -80 17.5t-65 52.5q-26 32 -42 79h82z" />
    <glyph glyph-name="ibreve" unicode="&#x12d;" horiz-adv-x="230" 
d="M78 524h74v-524h-74v524zM13 732q6 -16 15 -27q18 -27 41 -41.5t49 -14.5q57 0 92 54q8 13 15 28h76q-13 -40 -35 -70q-26 -37 -63.5 -57.5t-84.5 -20.5q-43 0 -80 17.5t-65 52.5q-26 32 -42 79h82z" />
    <glyph glyph-name="Idotaccent" unicode="&#x130;" horiz-adv-x="237" 
d="M80 0v711h77v-711h-77zM72 813q0 30 28 42q7 4 18 4q30 0 42 -27l3 -10q1 -3 1 -9q0 -30 -28 -42q-7 -4 -18 -4q-30 0 -42 27l-3 10q-1 3 -1 9z" />
    <glyph glyph-name="dotlessi" unicode="&#x131;" horiz-adv-x="230" 
d="M78 524h74v-524h-74v524z" />
    <glyph glyph-name="IJ" unicode="&#x132;" horiz-adv-x="814" 
d="M80 0v711h77v-711h-77zM297 261h69q0 -44 12.5 -80t33.5 -62.5t48.5 -41t57.5 -14.5q31 0 58 14.5t47 41t32 62.5t12 80v450h77v-450q0 -58 -16 -107.5t-45.5 -86t-71.5 -57t-93 -20.5q-45 0 -85.5 18.5t-70.5 53.5t-47.5 85t-17.5 114z" />
    <glyph glyph-name="ij" unicode="&#x133;" horiz-adv-x="460" 
d="M69 651q0 17 11.5 31.5t34.5 14.5q30 0 42 -27l3 -10q1 -3 1 -9q0 -17 -11.5 -31.5t-34.5 -14.5q-30 0 -42 27l-3 10q-1 3 -1 9zM78 524h74v-524h-74v524zM299 651q0 17 11.5 31.5t34.5 14.5q30 0 42 -27l3 -10q1 -3 1 -9q0 -17 -11.5 -31.5t-34.5 -14.5q-30 0 -42 27
l-3 10q-1 3 -1 9zM118 -157l53 45q20 -18 32.5 -25t22.5 -7q47 0 64.5 33.5t17.5 110.5v524h74v-524q0 -210 -156 -210q-52 0 -108 53z" />
    <glyph glyph-name="Jcircumflex" unicode="&#x134;" horiz-adv-x="577" 
d="M60 261h69q0 -44 12.5 -80t33.5 -62.5t48.5 -41t57.5 -14.5q31 0 58 14.5t47 41t32 62.5t12 80v450h77v-450q0 -58 -16 -107.5t-45.5 -86t-71.5 -57t-93 -20.5q-45 0 -85.5 18.5t-70.5 53.5t-47.5 85t-17.5 114zM636 771h-92l-76 104l-77 -103h-91l135 167h64z" />
    <glyph glyph-name="jcircumflex" unicode="&#x135;" horiz-adv-x="230" 
d="M-112 -157l53 45q20 -18 32.5 -25t22.5 -7q47 0 64.5 33.5t17.5 110.5v524h74v-524q0 -210 -156 -210q-52 0 -108 53zM283 584h-92l-76 104l-77 -103h-91l135 167h64z" />
    <glyph glyph-name="Omacron" unicode="&#x14c;" horiz-adv-x="671" 
d="M540 354q0 74 -15 131.5t-42 96.5t-65 59t-83 20t-82.5 -20.5t-64.5 -60t-42 -96.5t-15 -130t15.5 -129t42.5 -94t64.5 -57.5t81.5 -19.5q46 0 84 20.5t65 59t41.5 94t14.5 126.5zM50 354q0 78 20.5 146.5t57.5 119.5t89.5 80.5t117.5 29.5q57 0 109 -24.5t91.5 -72
t62.5 -118t23 -161.5q0 -79 -20.5 -146.5t-58 -117t-90.5 -77.5t-117 -28q-57 0 -109 24t-91 70.5t-62 115.5t-23 159zM188 838h295v-66h-295v66z" />
    <glyph glyph-name="omacron" unicode="&#x14d;" horiz-adv-x="515" 
d="M55 262q0 60 14 110t40 86t64 56t85 20q43 0 80 -17.5t64.5 -52t43 -85t15.5 -117.5q0 -60 -14 -110.5t-40.5 -87.5t-64 -57.5t-84.5 -20.5q-43 0 -80 17.5t-64.5 52.5t-43 86.5t-15.5 119.5zM130 262q0 -49 10.5 -88t28 -66t40.5 -41.5t49 -14.5q57 0 92.5 54t35.5 156
q0 49 -10 87t-27.5 64.5t-41 40.5t-49.5 14q-27 0 -50 -14.5t-40.5 -41t-27.5 -64.5t-10 -86zM110 651h295v-66h-295v66z" />
    <glyph glyph-name="Obreve" unicode="&#x14e;" horiz-adv-x="671" 
d="M540 354q0 74 -15 131.5t-42 96.5t-65 59t-83 20t-82.5 -20.5t-64.5 -60t-42 -96.5t-15 -130t15.5 -129t42.5 -94t64.5 -57.5t81.5 -19.5q46 0 84 20.5t65 59t41.5 94t14.5 126.5zM50 354q0 78 20.5 146.5t57.5 119.5t89.5 80.5t117.5 29.5q57 0 109 -24.5t91.5 -72
t62.5 -118t23 -161.5q0 -79 -20.5 -146.5t-58 -117t-90.5 -77.5t-117 -28q-57 0 -109 24t-91 70.5t-62 115.5t-23 159zM232 919q6 -16 15 -27q18 -27 41 -41.5t49 -14.5q57 0 92 54q8 13 15 28h76q-13 -40 -35 -70q-26 -37 -63.5 -57.5t-84.5 -20.5q-43 0 -80 17.5t-65 52.5
q-26 32 -42 79h82z" />
    <glyph glyph-name="obreve" unicode="&#x14f;" horiz-adv-x="515" 
d="M55 262q0 60 14 110t40 86t64 56t85 20q43 0 80 -17.5t64.5 -52t43 -85t15.5 -117.5q0 -60 -14 -110.5t-40.5 -87.5t-64 -57.5t-84.5 -20.5q-43 0 -80 17.5t-64.5 52.5t-43 86.5t-15.5 119.5zM130 262q0 -49 10.5 -88t28 -66t40.5 -41.5t49 -14.5q57 0 92.5 54t35.5 156
q0 49 -10 87t-27.5 64.5t-41 40.5t-49.5 14q-27 0 -50 -14.5t-40.5 -41t-27.5 -64.5t-10 -86zM156 732q6 -16 15 -27q18 -27 41 -41.5t49 -14.5q57 0 92 54q8 13 15 28h76q-13 -40 -35 -70q-26 -37 -63.5 -57.5t-84.5 -20.5q-43 0 -80 17.5t-65 52.5q-26 32 -42 79h82z" />
    <glyph glyph-name="OE" unicode="&#x152;" horiz-adv-x="990" 
d="M476 711h450v-69h-373v-243h352v-69h-352v-261h373v-69h-450v18l-10 -5q-53 -28 -117 -28q-57 0 -109 24t-91 70.5t-62 115.5t-23 159q0 78 20.5 146.5t57.5 119.5t89.5 80.5t117.5 29.5q57 0 109 -25q9 -4 18 -9v15zM432 641q-38 20 -83 20t-82.5 -20.5t-64.5 -60
t-42 -96.5t-15 -130t15.5 -129t42.5 -94t64.5 -57.5t81.5 -19.5q46 0 84 20q23 13 43 32v501q-20 21 -44 34z" />
    <glyph glyph-name="oe" unicode="&#x153;" horiz-adv-x="848" 
d="M464 229q3 -42 14 -75t28 -55.5t39 -34.5t46 -12q35 0 68 16.5t51 49.5l65 -26q-24 -47 -72.5 -76.5t-111.5 -29.5q-42 0 -79.5 17.5t-65.5 52.5q-13 15 -23 34q-8 -14 -17 -26q-26 -37 -63.5 -57.5t-84.5 -20.5q-43 0 -80 17.5t-64.5 52.5t-43 86.5t-15.5 119.5
q0 60 14 110t40 86t64 56t85 20q43 0 80 -17.5t64 -52.5q12 -15 22 -33q7 14 16 26q27 36 65 56.5t86 20.5q43 0 79.5 -17t62.5 -51.5t41 -85.5t15 -118v-33h-325zM130 262q0 -49 10.5 -88t28 -66t40.5 -41.5t49 -14.5q57 0 92.5 54t35.5 156q0 49 -10 87t-27.5 64.5
t-41 40.5t-49.5 14q-27 0 -50 -14.5t-40.5 -41t-27.5 -64.5t-10 -86zM464 295h254q-6 78 -40.5 125.5t-86.5 47.5q-24 0 -46 -12t-39 -34t-28.5 -54.5t-13.5 -72.5z" />
    <glyph glyph-name="Sacute" unicode="&#x15a;" horiz-adv-x="587" 
d="M37 140l66 39q44 -69 87.5 -97t97.5 -28q33 0 63 11t52 30.5t35 46t13 58.5q0 48 -45.5 83.5t-132.5 61.5l-11 3q-196 53 -196 187q0 41 17 76.5t47 62t70.5 41.5t87.5 15q129 0 206 -95l18 -25l-61 -39q-25 43 -66.5 66.5t-96.5 23.5q-30 0 -56 -9t-45.5 -25.5
t-30.5 -39.5t-11 -52q0 -68 101 -108l70 -25q62 -24 103.5 -43.5t66 -42t34.5 -51t10 -71.5t-18.5 -81t-50.5 -66t-76.5 -44.5t-96.5 -17.5q-77 1 -141 39t-110 116zM312 931q10 16 29 16q17 0 27.5 -12.5t10.5 -24.5q0 -11 -8 -22l-117 -142q-8 -8 -18 -8q-11 0 -20 7.5
t-9 18.5q0 7 4 14z" />
    <glyph glyph-name="sacute" unicode="&#x15b;" horiz-adv-x="470" 
d="M234 240q-50 16 -82.5 32.5t-52 35t-27.5 39t-8 43.5q0 30 12 56t34 45.5t53.5 31.5t70.5 13h3q30 0 58.5 -7.5t52 -22t39 -35t20.5 -46.5l-69 -14q-20 59 -103 59q-18 0 -35.5 -5.5t-31 -15.5t-21.5 -24.5t-8 -31.5q0 -50 75 -75l21 -7q51 -19 85.5 -37.5t55.5 -38.5
t30 -42t9 -48q0 -32 -13.5 -61t-37.5 -50.5t-56.5 -34.5t-71.5 -13q-150 0 -184 120l69 13q16 -67 113 -67q21 0 40 7t34 19t23.5 29t8.5 38q0 60 -106 95zM254 744q10 16 29 16q17 0 27.5 -12.5t10.5 -24.5q0 -11 -8 -22l-117 -142q-8 -8 -18 -8q-11 0 -20 7.5t-9 18.5
q0 7 4 14z" />
    <glyph glyph-name="Scircumflex" unicode="&#x15c;" horiz-adv-x="587" 
d="M37 140l66 39q44 -69 87.5 -97t97.5 -28q33 0 63 11t52 30.5t35 46t13 58.5q0 48 -45.5 83.5t-132.5 61.5l-11 3q-196 53 -196 187q0 41 17 76.5t47 62t70.5 41.5t87.5 15q129 0 206 -95l18 -25l-61 -39q-25 43 -66.5 66.5t-96.5 23.5q-30 0 -56 -9t-45.5 -25.5
t-30.5 -39.5t-11 -52q0 -68 101 -108l70 -25q62 -24 103.5 -43.5t66 -42t34.5 -51t10 -71.5t-18.5 -81t-50.5 -66t-76.5 -44.5t-96.5 -17.5q-77 1 -141 39t-110 116zM461 771h-92l-76 104l-77 -103h-91l135 167h64z" />
    <glyph glyph-name="scircumflex" unicode="&#x15d;" horiz-adv-x="470" 
d="M234 240q-50 16 -82.5 32.5t-52 35t-27.5 39t-8 43.5q0 30 12 56t34 45.5t53.5 31.5t70.5 13h3q30 0 58.5 -7.5t52 -22t39 -35t20.5 -46.5l-69 -14q-20 59 -103 59q-18 0 -35.5 -5.5t-31 -15.5t-21.5 -24.5t-8 -31.5q0 -50 75 -75l21 -7q51 -19 85.5 -37.5t55.5 -38.5
t30 -42t9 -48q0 -32 -13.5 -61t-37.5 -50.5t-56.5 -34.5t-71.5 -13q-150 0 -184 120l69 13q16 -67 113 -67q21 0 40 7t34 19t23.5 29t8.5 38q0 60 -106 95zM403 584h-92l-76 104l-77 -103h-91l135 167h64z" />
    <glyph glyph-name="Scedilla" unicode="&#x15e;" horiz-adv-x="587" 
d="M37 140l66 39q44 -69 87.5 -97t97.5 -28q33 0 63 11t52 30.5t35 46t13 58.5q0 48 -45.5 83.5t-132.5 61.5l-11 3q-196 53 -196 187q0 41 17 76.5t47 62t70.5 41.5t87.5 15q129 0 206 -95l18 -25l-61 -39q-25 43 -66.5 66.5t-96.5 23.5q-30 0 -56 -9t-45.5 -25.5
t-30.5 -39.5t-11 -52q0 -68 101 -108l70 -25q62 -24 103.5 -43.5t66 -42t34.5 -51t10 -71.5t-18.5 -81t-50.5 -66t-76.5 -44.5t-96.5 -17.5q-77 1 -141 39t-110 116zM240 -145q46 34 46 51q0 4 -1 7q-2 9 -26 44l63 27q32 -30 39 -65q2 -10 2 -19q0 -44 -69 -86l-33 -20z
" />
    <glyph glyph-name="scedilla" unicode="&#x15f;" horiz-adv-x="470" 
d="M234 240q-50 16 -82.5 32.5t-52 35t-27.5 39t-8 43.5q0 30 12 56t34 45.5t53.5 31.5t70.5 13h3q30 0 58.5 -7.5t52 -22t39 -35t20.5 -46.5l-69 -14q-20 59 -103 59q-18 0 -35.5 -5.5t-31 -15.5t-21.5 -24.5t-8 -31.5q0 -50 75 -75l21 -7q51 -19 85.5 -37.5t55.5 -38.5
t30 -42t9 -48q0 -32 -13.5 -61t-37.5 -50.5t-56.5 -34.5t-71.5 -13q-150 0 -184 120l69 13q16 -67 113 -67q21 0 40 7t34 19t23.5 29t8.5 38q0 60 -106 95zM180 -145q46 34 46 51q0 4 -1 7q-2 9 -26 44l63 27q32 -30 39 -65q2 -10 2 -19q0 -44 -69 -86l-33 -20z" />
    <glyph glyph-name="Scaron" unicode="&#x160;" horiz-adv-x="587" 
d="M37 140l66 39q44 -69 87.5 -97t97.5 -28q33 0 63 11t52 30.5t35 46t13 58.5q0 48 -45.5 83.5t-132.5 61.5l-11 3q-196 53 -196 187q0 41 17 76.5t47 62t70.5 41.5t87.5 15q129 0 206 -95l18 -25l-61 -39q-25 43 -66.5 66.5t-96.5 23.5q-30 0 -56 -9t-45.5 -25.5
t-30.5 -39.5t-11 -52q0 -68 101 -108l70 -25q62 -24 103.5 -43.5t66 -42t34.5 -51t10 -71.5t-18.5 -81t-50.5 -66t-76.5 -44.5t-96.5 -17.5q-77 1 -141 39t-110 116zM324 771h-64l-135 167h91l77 -103l76 104h92z" />
    <glyph glyph-name="scaron" unicode="&#x161;" horiz-adv-x="470" 
d="M234 240q-50 16 -82.5 32.5t-52 35t-27.5 39t-8 43.5q0 30 12 56t34 45.5t53.5 31.5t70.5 13h3q30 0 58.5 -7.5t52 -22t39 -35t20.5 -46.5l-69 -14q-20 59 -103 59q-18 0 -35.5 -5.5t-31 -15.5t-21.5 -24.5t-8 -31.5q0 -50 75 -75l21 -7q51 -19 85.5 -37.5t55.5 -38.5
t30 -42t9 -48q0 -32 -13.5 -61t-37.5 -50.5t-56.5 -34.5t-71.5 -13q-150 0 -184 120l69 13q16 -67 113 -67q21 0 40 7t34 19t23.5 29t8.5 38q0 60 -106 95zM267 584h-64l-135 167h91l77 -103l76 104h92z" />
    <glyph glyph-name="Umacron" unicode="&#x16a;" horiz-adv-x="638" 
d="M495 711h79v-396q0 -76 -17 -137t-49 -104t-80 -66t-109 -23q-58 0 -105 21t-80.5 62t-51.5 103t-18 144v396h79v-396q0 -124 46.5 -192.5t129.5 -68.5q80 0 128 68.5t48 192.5v396zM171 838h295v-66h-295v66z" />
    <glyph glyph-name="umacron" unicode="&#x16b;" horiz-adv-x="520" 
d="M373 524h74v-524h-74v68q-20 -32 -52.5 -55.5t-70.5 -23.5q-36 0 -69.5 16t-60 44t-42 67t-15.5 86v322h74v-323q0 -66 31.5 -105.5t82.5 -39.5q24 0 46 10.5t39 29.5t27 46t10 60v322zM112 651h295v-66h-295v66z" />
    <glyph glyph-name="Ubreve" unicode="&#x16c;" horiz-adv-x="638" 
d="M495 711h79v-396q0 -76 -17 -137t-49 -104t-80 -66t-109 -23q-58 0 -105 21t-80.5 62t-51.5 103t-18 144v396h79v-396q0 -124 46.5 -192.5t129.5 -68.5q80 0 128 68.5t48 192.5v396zM216 919q6 -16 15 -27q18 -27 41 -41.5t49 -14.5q57 0 92 54q8 13 15 28h76
q-13 -40 -35 -70q-26 -37 -63.5 -57.5t-84.5 -20.5q-43 0 -80 17.5t-65 52.5q-26 32 -42 79h82z" />
    <glyph glyph-name="ubreve" unicode="&#x16d;" horiz-adv-x="520" 
d="M373 524h74v-524h-74v68q-20 -32 -52.5 -55.5t-70.5 -23.5q-36 0 -69.5 16t-60 44t-42 67t-15.5 86v322h74v-323q0 -66 31.5 -105.5t82.5 -39.5q24 0 46 10.5t39 29.5t27 46t10 60v322zM158 732q6 -16 15 -27q18 -27 41 -41.5t49 -14.5q57 0 92 54q8 13 15 28h76
q-13 -40 -35 -70q-26 -37 -63.5 -57.5t-84.5 -20.5q-43 0 -80 17.5t-65 52.5q-26 32 -42 79h82z" />
    <glyph glyph-name="Wcircumflex" unicode="&#x174;" horiz-adv-x="790" 
d="M46 711h78l90 -622l134 604h95l134 -604l90 622h78l-112 -711h-107l-130 600l-130 -600h-109zM563 771h-92l-76 104l-77 -103h-91l135 167h64z" />
    <glyph glyph-name="wcircumflex" unicode="&#x175;" horiz-adv-x="691" 
d="M346 421l-111 -421h-57l-140 524h75l94 -402l102 398h74l102 -398l94 402h75l-140 -524h-60zM513 584h-92l-76 104l-77 -103h-91l135 167h64z" />
    <glyph glyph-name="Ycircumflex" unicode="&#x176;" horiz-adv-x="596" 
d="M42 711h82l174 -293l174 293h82l-218 -346v-365h-77v365zM466 771h-92l-76 104l-77 -103h-91l135 167h64z" />
    <glyph glyph-name="ycircumflex" unicode="&#x177;" horiz-adv-x="500" 
d="M82 -134l51 41q29 -34 55 -47t61 -13q54 0 89 36t35 101v87q-18 -35 -51 -58.5t-72 -23.5q-35 0 -69 15.5t-60 44t-42 69t-16 91.5v315h74v-315q0 -72 30.5 -112.5t84.5 -40.5q24 0 46 11t38.5 31t26.5 47.5t10 59.5v319h74v-533q0 -44 -14.5 -82t-41 -66.5t-63 -45
t-79.5 -16.5q-90 0 -154 69zM418 584h-92l-76 104l-77 -103h-91l135 167h64z" />
    <glyph glyph-name="Ydieresis" unicode="&#x178;" horiz-adv-x="596" 
d="M42 711h82l174 -293l174 293h82l-218 -346v-365h-77v365zM367 814q0 30 28 42q8 4 18 4q30 0 42 -27q2 -5 3 -10q1 -4 1 -9q0 -30 -28 -42q-8 -4 -18 -4q-30 0 -42 27q-2 5 -3 10q-1 4 -1 9zM137 813q0 30 28 42q8 4 18 4q30 0 42 -27q2 -5 3 -10q1 -4 1 -9
q0 -30 -28 -42q-8 -4 -18 -4q-30 0 -42 27q-2 5 -3 10q-1 4 -1 9z" />
    <glyph glyph-name="Zcaron" unicode="&#x17d;" horiz-adv-x="667" 
d="M68 711h539l-422 -642h428v-69h-559l426 642h-412v69zM364 771h-64l-135 167h91l77 -103l76 104h92z" />
    <glyph glyph-name="zcaron" unicode="&#x17e;" horiz-adv-x="490" 
d="M172 69h261v-69h-384l276 455h-256v69h379zM277 584h-64l-135 167h91l77 -103l76 104h92z" />
    <glyph glyph-name="longs" unicode="&#x17f;" horiz-adv-x="370" 
d="M208 0h-74v458h-68v66h68v54q0 68 35 106.5t104 38.5q17 -1 35.5 -5.5t35.5 -15.5l14 -9l-47 -47q-24 11 -33 11q-70 0 -70 -79v-578z" />
    <glyph glyph-name="florin" unicode="&#x192;" horiz-adv-x="370" 
d="M-57 -157l53 45q29 -26 44 -30q5 -2 11 -2q57 0 73 54q9 31 9 90l1 458h-68v66h68v54q0 106 83 136q25 9 56 9q35 0 71 -21q11 -7 14 -9l-47 -47q-23 11 -33 11q-70 0 -70 -79v-54h96v-66h-96v-458h-1q0 -210 -156 -210q-53 0 -108 53z" />
    <glyph glyph-name="uni01E2" unicode="&#x1e2;" horiz-adv-x="698" 
d="M388 315h-129l-126 -315h-88l289 711h346v-73h-215v-253h215v-72h-215v-241h215v-72h-292v315zM387 604v36l-98 -255h99zM354 838h295v-66h-295v66z" />
    <glyph glyph-name="uni01E3" unicode="&#x1e3;" horiz-adv-x="746" 
d="M218 294q-84 0 -96 -92q-2 -14 -2 -29q0 -23 4 -42q17 -79 94 -79q61 0 87 61q11 27 11 60q0 18 -4 34q-13 66 -66 83q-13 4 -28 4zM357 444q39 64 82 81q24 9 55 9q130 0 169 -148q2 -8 4 -17q10 -48 10 -107l-2 -33h-288q0 -36 8 -70q22 -107 99 -107q40 0 62 36
q5 7 17 30l65 -26q-39 -76 -86 -96q-25 -10 -58 -10q-67 0 -108 50q-10 13 -30 44q-27 -48 -40 -61q-33 -33 -98 -33q-102 0 -148 84q-13 24 -19 53q-5 24 -5 50q0 95 66 149q45 38 106 38t90 -36l10 -15l-1 29q0 26 -4 47q-17 81 -93 81q-51 0 -87 -35l-3 -3l-38 50
q41 34 60 42q28 12 68 12q81 0 130 -77q4 -5 7 -11zM387 295h214q-3 36 -9 62q-23 111 -98 111q-73 0 -98 -103q-8 -33 -9 -70zM210 651h295v-66h-295v66z" />
    <glyph glyph-name="uni0218" unicode="&#x218;" horiz-adv-x="587" 
d="M37 140l66 39q44 -69 87.5 -97t97.5 -28q33 0 63 11t52 30.5t35 46t13 58.5q0 48 -45.5 83.5t-132.5 61.5l-11 3q-196 53 -196 187q0 41 17 76.5t47 62t70.5 41.5t87.5 15q129 0 206 -95l18 -25l-61 -39q-25 43 -66.5 66.5t-96.5 23.5q-30 0 -56 -9t-45.5 -25.5
t-30.5 -39.5t-11 -52q0 -68 101 -108l70 -25q62 -24 103.5 -43.5t66 -42t34.5 -51t10 -71.5t-18.5 -81t-50.5 -66t-76.5 -44.5t-96.5 -17.5q-77 1 -141 39t-110 116zM338 -79q0 -67 -50 -134l-3 -5l-27 15q28 38 28 72q-35 0 -48 31l-3 10q-1 3 -1 11q0 22 13 37t39 15
q34 0 48 -30l3 -11q1 -2 1 -8v-3z" />
    <glyph glyph-name="uni0219" unicode="&#x219;" horiz-adv-x="470" 
d="M234 240q-50 16 -82.5 32.5t-52 35t-27.5 39t-8 43.5q0 30 12 56t34 45.5t53.5 31.5t70.5 13h3q30 0 58.5 -7.5t52 -22t39 -35t20.5 -46.5l-69 -14q-20 59 -103 59q-18 0 -35.5 -5.5t-31 -15.5t-21.5 -24.5t-8 -31.5q0 -50 75 -75l21 -7q51 -19 85.5 -37.5t55.5 -38.5
t30 -42t9 -48q0 -32 -13.5 -61t-37.5 -50.5t-56.5 -34.5t-71.5 -13q-150 0 -184 120l69 13q16 -67 113 -67q21 0 40 7t34 19t23.5 29t8.5 38q0 60 -106 95zM285 -79q0 -67 -50 -134l-3 -5l-27 15q28 38 28 72q-35 0 -48 31l-3 10q-1 3 -1 11q0 22 13 37t39 15q34 0 48 -30
l3 -11q1 -2 1 -8v-3z" />
    <glyph glyph-name="uni021A" unicode="&#x21a;" horiz-adv-x="627" 
d="M373 -79q0 -67 -50 -134l-3 -5l-27 15q28 38 28 72q-35 0 -48 31l-3 10q-1 3 -1 11q0 22 13 37t39 15q34 0 48 -30l3 -11q1 -2 1 -8v-3zM48 711h533v-69h-223v-642h-77v642h-233v69z" />
    <glyph glyph-name="uni021B" unicode="&#x21b;" horiz-adv-x="360" 
d="M231 -79q0 -67 -50 -134l-3 -5l-27 15q28 38 28 72q-35 0 -48 31l-3 10q-1 3 -1 11q0 22 13 37t39 15q34 0 48 -30l3 -11q1 -2 1 -8v-3zM124 458h-69v66h69v122h74v-122h96v-66h-96v-353q0 -57 57 -57h34v-62h-34q-74 0 -102.5 29.5t-28.5 87.5v355z" />
    <glyph glyph-name="circumflex" unicode="&#x2c6;" horiz-adv-x="520" 
d="M435 584h-92l-76 104l-77 -103h-91l135 167h64z" />
    <glyph glyph-name="caron" unicode="&#x2c7;" horiz-adv-x="520" 
d="M298 584h-64l-135 167h91l77 -103l76 104h92z" />
    <glyph glyph-name="breve" unicode="&#x2d8;" horiz-adv-x="554" 
d="M181 732q6 -16 15 -27q18 -27 41 -41.5t49 -14.5q57 0 92 54q8 13 15 28h76q-13 -40 -35 -70q-26 -37 -63.5 -57.5t-84.5 -20.5q-43 0 -80 17.5t-65 52.5q-26 32 -42 79h82z" />
    <glyph glyph-name="dotaccent" unicode="&#x2d9;" horiz-adv-x="276" 
d="M99 626q0 30 28 42q8 4 18 4q30 0 42 -27q2 -5 3 -10q1 -4 1 -9q0 -30 -28 -42q-8 -4 -18 -4q-30 0 -42 27q-2 5 -3 10q-1 4 -1 9z" />
    <glyph glyph-name="ring" unicode="&#x2da;" horiz-adv-x="440" 
d="M156 713q0 -8 2 -16q9 -41 46 -54q11 -3 23 -3q42 0 62 38q8 16 8 35q0 8 -1 16q-9 41 -47 54q-10 3 -22 3q-42 0 -62 -38q-9 -16 -9 -35zM99 711q0 65 54 103q33 23 74 23q67 0 105 -54q15 -21 20 -46q3 -13 3 -26q0 -65 -54 -103q-33 -23 -74 -23q-67 0 -105 54
q-15 21 -20 46q-3 13 -3 26z" />
    <glyph glyph-name="ogonek" unicode="&#x2db;" horiz-adv-x="307" 
d="M222 -25q-46 -34 -46 -51q0 -4 1 -7q2 -9 26 -44l-63 -27q-32 30 -39 65q-2 10 -2 19q0 44 69 86l33 20z" />
    <glyph glyph-name="tilde" unicode="&#x2dc;" horiz-adv-x="495" 
d="M99 681q21 17 34 26.5t22 14t16.5 5.5t16.5 1q10 0 28.5 -11t38 -24.5t37 -25.5t26.5 -13q28 -1 76 36l16 12v-71q-26 -20 -40.5 -29.5t-22.5 -14t-14 -4.5h-15q-13 0 -31.5 11.5t-37.5 25.5t-36 25.5t-26 11.5q-33 0 -73 -34q-6 -5 -9.5 -8.5t-5.5 -4.5v71z" />
    <glyph glyph-name="hungarumlaut" unicode="&#x2dd;" horiz-adv-x="520" 
d="M103 598l101 153q10 16 29 16q17 0 27.5 -12.5t10.5 -24.5q0 -11 -8 -22l-117 -142q-8 -8 -18 -8q-11 0 -20 7.5t-9 18.5q0 4 1 7t3 7zM267 591l101 153q10 16 29 16q17 0 27.5 -12.5t10.5 -24.5q0 -11 -8 -22l-117 -142q-8 -8 -18 -8q-11 0 -20 7.5t-9 18.5q0 4 1 7t3 7
z" />
    <glyph glyph-name="gravecomb" unicode="&#x300;" horiz-adv-x="0" 
d="M-460 707q-8 9 -8 24q0 13 12 24t26 11q8 -1 16 -4t13 -11l102 -153l3 -7v-6q0 -10 -8.5 -18.5t-19.5 -8.5q-10 0 -18 8z" />
    <glyph glyph-name="acutecomb" unicode="&#x301;" horiz-adv-x="0" 
d="M-367 744q10 16 29 16q17 0 27.5 -12.5t10.5 -24.5q0 -11 -8 -22l-117 -142q-8 -8 -18 -8q-11 0 -20 7.5t-9 18.5q0 7 4 14z" />
    <glyph glyph-name="uni0302" unicode="&#x302;" horiz-adv-x="0" 
d="M-85 584h-92l-76 104l-77 -103h-91l135 167h64z" />
    <glyph glyph-name="tildecomb" unicode="&#x303;" horiz-adv-x="0" 
d="M-421 681q21 17 34 26.5t22 14t16.5 5.5t16.5 1q10 0 28.5 -11.5t38 -25t37 -25t26.5 -12.5q14 -2 33 8t43 28l16 12v-71q-26 -20 -40 -30t-22.5 -14t-14.5 -4h-15q-13 0 -31.5 11.5t-37.5 25.5t-36 25.5t-26 11.5q-33 0 -73 -34q-6 -5 -9.5 -8.5t-5.5 -4.5v71z" />
    <glyph glyph-name="uni0304" unicode="&#x304;" horiz-adv-x="0" 
d="M-421 651h295v-66h-295v66z" />
    <glyph glyph-name="uni0306" unicode="&#x306;" horiz-adv-x="0" 
d="M-339 732q6 -17 15 -27q37 -56 90 -56q29 0 53 12.5t39 41.5l15 28h76q-14 -42 -35 -70q-26 -37 -63 -57.5t-85 -20.5q-43 0 -80 17.5t-65 52.5q-25 31 -42 79h82z" />
    <glyph glyph-name="uni0307" unicode="&#x307;" horiz-adv-x="0" 
d="M-421 626q0 30 28 42q7 4 18 4q30 0 42 -27l3 -10q1 -3 1 -9q0 -30 -28 -42q-7 -4 -18 -4q-30 0 -42 27l-3 10q-1 3 -1 9z" />
    <glyph glyph-name="uni0308" unicode="&#x308;" horiz-adv-x="0" 
d="M-187 627q0 30 28 42q7 4 18 4q30 0 42 -27l3 -10q1 -3 1 -9q0 -30 -28 -42q-7 -4 -18 -4q-30 0 -42 27l-3 10q-1 3 -1 9zM-417 626q0 30 28 42q7 4 18 4q30 0 42 -27l3 -10q1 -3 1 -9q0 -30 -28 -42q-7 -4 -18 -4q-30 0 -42 27l-3 10q-1 3 -1 9z" />
    <glyph glyph-name="uni030A" unicode="&#x30a;" horiz-adv-x="0" 
d="M-364 713q0 -6 2 -16q9 -41 46 -54q10 -3 23 -3q42 0 62 38q8 18 8 35v8t-1 8q-9 40 -47 54q-11 3 -22 3q-42 0 -62 -38q-9 -17 -9 -35zM-421 711q0 65 54 103q34 23 74 23q67 0 105 -54q16 -22 20 -46q3 -14 3 -26q0 -66 -54 -103q-34 -23 -74 -23q-68 0 -105 54
q-16 22 -20 46q-3 13 -3 26z" />
    <glyph glyph-name="uni030B" unicode="&#x30b;" horiz-adv-x="0" 
d="M-316 751q10 16 29 16q17 0 27.5 -12.5t10.5 -24.5q0 -11 -8 -22l-117 -142q-8 -8 -18 -8q-11 0 -20 7.5t-9 18.5q0 7 4 14zM-152 744q10 16 29 16q17 0 27.5 -12.5t10.5 -24.5q0 -11 -8 -22l-117 -142q-8 -8 -18 -8q-11 0 -20 7.5t-9 18.5q0 7 4 14z" />
    <glyph glyph-name="uni030C" unicode="&#x30c;" horiz-adv-x="0" 
d="M-222 584h-64l-135 167h91l77 -103l76 104h92z" />
    <glyph glyph-name="uni0310" unicode="&#x310;" horiz-adv-x="0" 
d="M-339 732q6 -17 15 -27q37 -56 90 -56q29 0 53 12.5t39 41.5l15 28h76q-14 -42 -35 -70q-26 -37 -63 -57.5t-85 -20.5q-43 0 -80 17.5t-65 52.5q-25 31 -42 79h82zM-279 777q0 30 28 42q7 4 18 4q30 0 42 -27l3 -10q1 -3 1 -9q0 -30 -28 -42q-7 -4 -18 -4q-30 0 -42 27
l-3 10q-1 3 -1 9z" />
    <glyph glyph-name="dotbelowcomb" unicode="&#x323;" horiz-adv-x="0" 
d="M-419 -125q0 30 28 42q7 4 18 4q30 0 42 -27l3 -10q1 -3 1 -9q0 -30 -28 -42q-7 -4 -18 -4q-30 0 -42 27l-3 10q-1 3 -1 9z" />
    <glyph glyph-name="uni0324" unicode="&#x324;" horiz-adv-x="0" 
d="M-187 -125q0 30 28 42q7 4 18 4q30 0 42 -27l3 -10q1 -3 1 -9q0 -30 -28 -42q-7 -4 -18 -4q-30 0 -42 27l-3 10q-1 3 -1 9zM-417 -126q0 30 28 42q7 4 18 4q30 0 42 -27l3 -10q1 -3 1 -9q0 -30 -28 -42q-7 -4 -18 -4q-30 0 -42 27l-3 10q-1 3 -1 9z" />
    <glyph glyph-name="uni0325" unicode="&#x325;" horiz-adv-x="0" 
d="M-364 -188q0 -6 2 -16q9 -41 46 -54q10 -3 23 -3q42 0 62 38q8 18 8 35v8t-1 8q-9 40 -47 54q-11 3 -22 3q-42 0 -62 -38q-9 -17 -9 -35zM-421 -190q0 65 54 103q34 23 74 23q67 0 105 -54q16 -22 20 -46q3 -14 3 -26q0 -66 -54 -103q-34 -23 -74 -23q-68 0 -105 54
q-16 22 -20 46q-3 13 -3 26z" />
    <glyph glyph-name="uni0327" unicode="&#x327;" horiz-adv-x="0" 
d="M-421 -93q46 34 46 51q0 5 -1 7q-1 9 -26 44l63 27q31 -30 39 -65q1 -5 1.5 -9.5t0.5 -9.5q0 -44 -69 -86l-33 -20z" />
    <glyph glyph-name="uni0328" unicode="&#x328;" horiz-adv-x="0" 
d="M-298 -25q-46 -34 -46 -51q0 -5 1 -7q1 -9 26 -44l-63 -27q-31 30 -39 65q-1 5 -1.5 9.5t-0.5 9.5q0 44 69 86l33 20z" />
    <glyph glyph-name="uni0331" unicode="&#x331;" horiz-adv-x="0" 
d="M-421 -68h295v-66h-295v66z" />
    <glyph glyph-name="uni035F" unicode="&#x35f;" horiz-adv-x="0" 
d="M-715 -68h589v-66h-589v66z" />
    <glyph glyph-name="uni03A9" unicode="&#x3a9;" horiz-adv-x="671" 
d="M648 0h-241v69q60 26 96 98t36 187q0 73 -15 130t-42 96.5t-64.5 60t-82.5 20.5t-82.5 -20.5t-64.5 -60t-42 -96.5t-15 -130q0 -115 36 -187t96 -98v-69h-241v69h122q-43 47 -68.5 118t-25.5 167q0 78 20.5 146.5t57.5 119.5t89.5 80.5t117.5 29.5q64 0 117 -29.5
t90 -80.5t57.5 -119.5t20.5 -146.5q0 -96 -25.5 -167t-68.5 -118h122v-69z" />
    <glyph glyph-name="pi" unicode="&#x3c0;" horiz-adv-x="531" 
d="M510 524v-74h-57v-349q0 -51 58 -51v-64q-68 0 -100 28t-32 85v351h-237v-450h-74v450h-54v74h496z" />
    <glyph glyph-name="uni1E0C" unicode="&#x1e0c;" horiz-adv-x="616" 
d="M200 -119q0 34 30 48q11 4 22 4q34 0 48 -30q2 -6 3 -11q2 -5 1 -11q0 -34 -30 -48q-11 -4 -22 -4q-34 0 -48 30q-2 6 -3 11t-1 11zM487 355q0 64 -16 116.5t-44.5 90.5t-68 59t-87.5 21h-130v-573h130q47 0 86.5 21t68.5 59t45 90.5t16 115.5zM568 355q0 -75 -22 -140
t-61.5 -112.5t-94 -75t-119.5 -27.5h-207v711h207q60 0 113.5 -24t94.5 -69.5t65 -111.5t24 -151z" />
    <glyph glyph-name="uni1E0D" unicode="&#x1e0d;" horiz-adv-x="510" 
d="M200 -119q0 34 30 48q11 4 22 4q34 0 48 -30q2 -6 3 -11q2 -5 1 -11q0 -34 -30 -48q-11 -4 -22 -4q-34 0 -48 30q-2 6 -3 11t-1 11zM382 710h74v-710h-74v80q-35 -53 -66 -73.5t-69 -20.5h-2q-37 0 -70 17.5t-58 52.5t-39.5 86.5t-14.5 120.5q0 58 12 107.5t35.5 85.5
t57.5 56.5t78 20.5q83 0 136 -96v273zM138 263q0 -48 8.5 -87t23 -66.5t34 -42.5t42.5 -15q28 0 53 16.5t44 45t30 66.5t11 82q0 42 -10 79.5t-28.5 65t-44 44t-55.5 16.5q-23 0 -42.5 -14.5t-34 -41.5t-23 -64.5t-8.5 -83.5z" />
    <glyph glyph-name="uni1E24" unicode="&#x1e24;" horiz-adv-x="605" 
d="M246 -119q0 34 30 48q11 4 22 4q34 0 48 -30q2 -6 3 -11q2 -5 1 -11q0 -34 -30 -48q-11 -4 -22 -4q-34 0 -48 30q-2 6 -3 11t-1 11zM64 711h77v-313h323v313h77v-711h-77v329h-323v-329h-77v711z" />
    <glyph glyph-name="uni1E25" unicode="&#x1e25;" horiz-adv-x="520" 
d="M208 -119q0 34 30 48q11 4 22 4q34 0 48 -30q2 -6 3 -11q2 -5 1 -11q0 -34 -30 -48q-11 -4 -22 -4q-34 0 -48 30q-2 6 -3 11t-1 11zM142 0h-74v710h74v-260q22 27 39.5 43.5t33.5 25.5t31.5 12.5t34.5 3.5q80 0 125.5 -53t45.5 -161v-321h-74v321q0 147 -97 147
q-26 0 -51 -12t-44.5 -32.5t-31.5 -47t-12 -54.5v-322z" />
    <glyph glyph-name="uni1E34" unicode="&#x1e34;" horiz-adv-x="625" 
d="M64 711h77v-346l345 346h94l-342 -341l370 -370h-101l-318 319l-48 -50v-269h-77v711zM129 -67h295v-66h-295v66z" />
    <glyph glyph-name="uni1E35" unicode="&#x1e35;" horiz-adv-x="481" 
d="M214 292l250 -292h-85l-215 244l-22 -26v-218h-74v710h74v-399l196 213h85zM86 -67h295v-66h-295v66z" />
    <glyph glyph-name="uni1E36" unicode="&#x1e36;" horiz-adv-x="560" 
d="M215 -119q0 34 30 48q11 4 22 4q34 0 48 -30q2 -6 3 -11q2 -5 1 -11q0 -34 -30 -48q-11 -4 -22 -4q-34 0 -48 30q-2 6 -3 11t-1 11zM64 711h77v-642h374v-69h-451v711z" />
    <glyph glyph-name="uni1E37" unicode="&#x1e37;" horiz-adv-x="230" 
d="M88 -119q0 34 30 48q11 4 22 4q34 0 48 -30q2 -6 3 -11q2 -5 1 -11q0 -34 -30 -48q-11 -4 -22 -4q-34 0 -48 30q-2 6 -3 11t-1 11zM152 101q0 -51 58 -51v-64q-68 0 -100 28t-32 85v611h74v-609z" />
    <glyph glyph-name="uni1E38" unicode="&#x1e38;" horiz-adv-x="560" 
d="M215 -119q0 34 30 48q11 4 22 4q34 0 48 -30q2 -6 3 -11q2 -5 1 -11q0 -34 -30 -48q-11 -4 -22 -4q-34 0 -48 30q-2 6 -3 11t-1 11zM64 711h77v-642h374v-69h-451v711zM-50 838h295v-66h-295v66z" />
    <glyph glyph-name="uni1E39" unicode="&#x1e39;" horiz-adv-x="230" 
d="M88 -119q0 34 30 48q11 4 22 4q34 0 48 -30q2 -6 3 -11q2 -5 1 -11q0 -34 -30 -48q-11 -4 -22 -4q-34 0 -48 30q-2 6 -3 11t-1 11zM152 101q0 -51 58 -51v-64q-68 0 -100 28t-32 85v611h74v-609zM-32 839h295v-66h-295v66z" />
    <glyph glyph-name="uni1E3A" unicode="&#x1e3a;" horiz-adv-x="560" 
d="M64 711h77v-642h374v-69h-451v711zM121 -67h295v-66h-295v66z" />
    <glyph glyph-name="uni1E3B" unicode="&#x1e3b;" horiz-adv-x="230" 
d="M55 -68h167v-66h-167v66zM152 101q0 -51 58 -51v-64q-68 0 -100 28t-32 85v611h74v-609z" />
    <glyph glyph-name="uni1E40" unicode="&#x1e40;" horiz-adv-x="783" 
d="M341 782q0 34 30 48q11 4 22 4q34 0 48 -30q2 -6 3 -11q2 -5 1 -11q0 -34 -30 -48q-11 -4 -22 -4q-34 0 -48 30q-2 6 -3 11t-1 11zM64 0v711h105l224 -609l225 609h101v-711h-75v588l-209 -580h-87l-209 580v-588h-75z" />
    <glyph glyph-name="uni1E41" unicode="&#x1e41;" horiz-adv-x="769" 
d="M334 680q0 34 30 48q11 4 22 4q34 0 48 -30q2 -6 3 -11q2 -5 1 -11q0 -34 -30 -48q-11 -4 -22 -4q-34 0 -48 30q-2 6 -3 11t-1 11zM422 0h-74v321q0 72 -20.5 109.5t-57.5 37.5q-24 0 -47 -11.5t-41 -31t-29 -46t-11 -57.5v-322h-74v524h74v-74q31 48 60.5 66.5
t67.5 18.5q99 0 135 -100q35 54 69.5 77t75.5 23q81 0 116.5 -53t35.5 -163v-319h-74v319q0 74 -21 111.5t-57 37.5q-24 0 -47 -11.5t-41 -31t-29 -46t-11 -57.5v-322z" />
    <glyph glyph-name="uni1E42" unicode="&#x1e42;" horiz-adv-x="783" 
d="M341 -119q0 34 30 48q11 4 22 4q34 0 48 -30q2 -6 3 -11q2 -5 1 -11q0 -34 -30 -48q-11 -4 -22 -4q-34 0 -48 30q-2 6 -3 11t-1 11zM64 0v711h105l224 -609l225 609h101v-711h-75v588l-209 -580h-87l-209 580v-588h-75z" />
    <glyph glyph-name="uni1E43" unicode="&#x1e43;" horiz-adv-x="769" 
d="M334 -119q0 34 30 48q11 4 22 4q34 0 48 -30q2 -6 3 -11q2 -5 1 -11q0 -34 -30 -48q-11 -4 -22 -4q-34 0 -48 30q-2 6 -3 11t-1 11zM422 0h-74v321q0 72 -20.5 109.5t-57.5 37.5q-24 0 -47 -11.5t-41 -31t-29 -46t-11 -57.5v-322h-74v524h74v-74q31 48 60.5 66.5
t67.5 18.5q99 0 135 -100q35 54 69.5 77t75.5 23q81 0 116.5 -53t35.5 -163v-319h-74v319q0 74 -21 111.5t-57 37.5q-24 0 -47 -11.5t-41 -31t-29 -46t-11 -57.5v-322z" />
    <glyph glyph-name="uni1E44" unicode="&#x1e44;" horiz-adv-x="641" 
d="M64 0v711h75l361 -567v567h77v-711h-71l-365 581v-581h-77zM274 813q0 30 28 42q8 4 18 4q30 0 42 -27q2 -5 3 -10q1 -4 1 -9q0 -30 -28 -42q-8 -4 -18 -4q-30 0 -42 27q-2 5 -3 10q-1 4 -1 9z" />
    <glyph glyph-name="uni1E45" unicode="&#x1e45;" horiz-adv-x="520" 
d="M142 0h-74v524h74v-79q61 90 143 90q112 0 151 -111l9 -32q5 -17 5.5 -34.5t1.5 -36.5v-321h-74v321q0 71 -27 107.5t-66 39.5q-25 0 -50.5 -12t-46 -32t-33.5 -46.5t-13 -55.5v-322zM214 626q0 30 28 42q8 4 18 4q30 0 42 -27q2 -5 3 -10q1 -4 1 -9q0 -30 -28 -42
q-8 -4 -18 -4q-30 0 -42 27q-2 5 -3 10q-1 4 -1 9z" />
    <glyph glyph-name="uni1E46" unicode="&#x1e46;" horiz-adv-x="641" 
d="M265 -119q0 34 30 48q11 4 22 4q34 0 48 -30q2 -6 3 -11q2 -5 1 -11q0 -34 -30 -48q-11 -4 -22 -4q-34 0 -48 30q-2 6 -3 11t-1 11zM64 0v711h75l361 -567v567h77v-711h-71l-365 581v-581h-77z" />
    <glyph glyph-name="uni1E47" unicode="&#x1e47;" horiz-adv-x="520" 
d="M206 -119q0 34 30 48q11 4 22 4q34 0 48 -30q2 -6 3 -11q2 -5 1 -11q0 -34 -30 -48q-11 -4 -22 -4q-34 0 -48 30q-2 6 -3 11t-1 11zM142 0h-74v524h74v-79q61 90 143 90q112 0 151 -111l9 -32q5 -17 5.5 -34.5t1.5 -36.5v-321h-74v321q0 71 -27 107.5t-66 39.5
q-25 0 -50.5 -12t-46 -32t-33.5 -46.5t-13 -55.5v-322z" />
    <glyph glyph-name="uni1E48" unicode="&#x1e48;" horiz-adv-x="641" 
d="M64 0v711h75l361 -567v567h77v-711h-71l-365 581v-581h-77zM179 -67h295v-66h-295v66z" />
    <glyph glyph-name="uni1E49" unicode="&#x1e49;" horiz-adv-x="520" 
d="M142 0h-74v524h74v-79q61 90 143 90q112 0 151 -111l9 -32q5 -17 5.5 -34.5t1.5 -36.5v-321h-74v321q0 71 -27 107.5t-66 39.5q-25 0 -50.5 -12t-46 -32t-33.5 -46.5t-13 -55.5v-322zM121 -67h295v-66h-295v66z" />
    <glyph glyph-name="uni1E5A" unicode="&#x1e5a;" horiz-adv-x="558" 
d="M227 -119q0 34 30 48q11 4 22 4q34 0 48 -30q2 -6 3 -11q2 -5 1 -11q0 -34 -30 -48q-11 -4 -22 -4q-34 0 -48 30q-2 6 -3 11t-1 11zM141 378h101q188 0 188 133q0 66 -47.5 98.5t-140.5 32.5h-101v-264zM455 0l-209 308h-105v-308h-77v711h178q58 0 107 -13t85 -38.5
t56 -62.5t20 -86q0 -72 -47 -125t-131 -69l212 -317h-89z" />
    <glyph glyph-name="uni1E5B" unicode="&#x1e5b;" horiz-adv-x="375" 
d="M55 -119q0 34 30 48q11 4 22 4q34 0 48 -30q2 -6 3 -11q2 -5 1 -11q0 -34 -30 -48q-11 -4 -22 -4q-34 0 -48 30q-2 6 -3 11t-1 11zM327 450q-32 20 -68 20q-23 0 -44 -11.5t-37 -32t-26 -49t-10 -63.5v-314h-74v524h74v-74q8 17 21 32.5t29 27.5t33 19.5t34 7.5
q56 0 100 -27z" />
    <glyph glyph-name="uni1E5C" unicode="&#x1e5c;" horiz-adv-x="558" 
d="M227 -119q0 34 30 48q11 4 22 4q34 0 48 -30q2 -6 3 -11q2 -5 1 -11q0 -34 -30 -48q-11 -4 -22 -4q-34 0 -48 30q-2 6 -3 11t-1 11zM141 378h101q188 0 188 133q0 66 -47.5 98.5t-140.5 32.5h-101v-264zM455 0l-209 308h-105v-308h-77v711h178q58 0 107 -13t85 -38.5
t56 -62.5t20 -86q0 -72 -47 -125t-131 -69l212 -317h-89zM121 838h295v-66h-295v66z" />
    <glyph glyph-name="uni1E5D" unicode="&#x1e5d;" horiz-adv-x="375" 
d="M55 -119q0 34 30 48q11 4 22 4q34 0 48 -30q2 -6 3 -11q2 -5 1 -11q0 -34 -30 -48q-11 -4 -22 -4q-34 0 -48 30q-2 6 -3 11t-1 11zM327 450q-32 20 -68 20q-23 0 -44 -11.5t-37 -32t-26 -49t-10 -63.5v-314h-74v524h74v-74q8 17 21 32.5t29 27.5t33 19.5t34 7.5
q56 0 100 -27zM40 651h295v-66h-295v66z" />
    <glyph glyph-name="uni1E5E" unicode="&#x1e5e;" horiz-adv-x="558" 
d="M141 378h101q188 0 188 133q0 66 -47.5 98.5t-140.5 32.5h-101v-264zM455 0l-209 308h-105v-308h-77v711h178q58 0 107 -13t85 -38.5t56 -62.5t20 -86q0 -72 -47 -125t-131 -69l212 -317h-89zM121 -67h295v-66h-295v66z" />
    <glyph glyph-name="uni1E5F" unicode="&#x1e5f;" horiz-adv-x="375" 
d="M14 -68h189v-66h-189v66zM327 450q-32 20 -68 20q-23 0 -44 -11.5t-37 -32t-26 -49t-10 -63.5v-314h-74v524h74v-74q8 17 21 32.5t29 27.5t33 19.5t34 7.5q56 0 100 -27z" />
    <glyph glyph-name="uni1E62" unicode="&#x1e62;" horiz-adv-x="587" 
d="M243 -119q0 34 30 48q11 4 22 4q34 0 48 -30q2 -6 3 -11q2 -5 1 -11q0 -34 -30 -48q-11 -4 -22 -4q-34 0 -48 30q-2 6 -3 11t-1 11zM37 140l66 39q44 -69 87.5 -97t97.5 -28q33 0 63 11t52 30.5t35 46t13 58.5q0 48 -45.5 83.5t-132.5 61.5l-11 3q-196 53 -196 187
q0 41 17 76.5t47 62t70.5 41.5t87.5 15q129 0 206 -95l18 -25l-61 -39q-25 43 -66.5 66.5t-96.5 23.5q-30 0 -56 -9t-45.5 -25.5t-30.5 -39.5t-11 -52q0 -68 101 -108l70 -25q62 -24 103.5 -43.5t66 -42t34.5 -51t10 -71.5t-18.5 -81t-50.5 -66t-76.5 -44.5t-96.5 -17.5
q-77 1 -141 39t-110 116z" />
    <glyph glyph-name="uni1E63" unicode="&#x1e63;" horiz-adv-x="470" 
d="M180 -119q0 34 30 48q11 4 22 4q34 0 48 -30q2 -6 3 -11q2 -5 1 -11q0 -34 -30 -48q-11 -4 -22 -4q-34 0 -48 30q-2 6 -3 11t-1 11zM234 240q-50 16 -82.5 32.5t-52 35t-27.5 39t-8 43.5q0 30 12 56t34 45.5t53.5 31.5t70.5 13h3q30 0 58.5 -7.5t52 -22t39 -35
t20.5 -46.5l-69 -14q-20 59 -103 59q-18 0 -35.5 -5.5t-31 -15.5t-21.5 -24.5t-8 -31.5q0 -50 75 -75l21 -7q51 -19 85.5 -37.5t55.5 -38.5t30 -42t9 -48q0 -32 -13.5 -61t-37.5 -50.5t-56.5 -34.5t-71.5 -13q-150 0 -184 120l69 13q16 -67 113 -67q21 0 40 7t34 19t23.5 29
t8.5 38q0 60 -106 95z" />
    <glyph glyph-name="uni1E6C" unicode="&#x1e6c;" horiz-adv-x="627" 
d="M267 -119q0 34 30 48q11 4 22 4q34 0 48 -30q2 -6 3 -11q2 -5 1 -11q0 -34 -30 -48q-11 -4 -22 -4q-34 0 -48 30q-2 6 -3 11t-1 11zM48 711h533v-69h-223v-642h-77v642h-233v69z" />
    <glyph glyph-name="uni1E6D" unicode="&#x1e6d;" horiz-adv-x="360" 
d="M135 -119q0 34 30 48q11 4 22 4q34 0 48 -30q2 -6 3 -11q2 -5 1 -11q0 -34 -30 -48q-11 -4 -22 -4q-34 0 -48 30q-2 6 -3 11t-1 11zM124 458h-69v66h69v122h74v-122h96v-66h-96v-353q0 -57 57 -57h34v-62h-34q-74 0 -102.5 29.5t-28.5 87.5v355z" />
    <glyph glyph-name="uni1E6E" unicode="&#x1e6e;" horiz-adv-x="627" 
d="M48 711h533v-69h-223v-642h-77v642h-233v69zM172 -67h295v-66h-295v66z" />
    <glyph glyph-name="uni1E6F" unicode="&#x1e6f;" horiz-adv-x="360" 
d="M55 -68h239v-66h-239v66zM124 458h-69v66h69v122h74v-122h96v-66h-96v-353q0 -57 57 -57h34v-62h-34q-74 0 -102.5 29.5t-28.5 87.5v355z" />
    <glyph glyph-name="uni1E8E" unicode="&#x1e8e;" horiz-adv-x="596" 
d="M42 711h82l174 -293l174 293h82l-218 -346v-365h-77v365zM252 813q0 30 28 42q7 4 18 4q30 0 42 -27l3 -10q1 -3 1 -9q0 -30 -28 -42q-7 -4 -18 -4q-30 0 -42 27l-3 10q-1 3 -1 9z" />
    <glyph glyph-name="uni1E8F" unicode="&#x1e8f;" horiz-adv-x="500" 
d="M82 -134l51 41q29 -34 55 -47t61 -13q54 0 89 36t35 101v87q-18 -35 -51 -58.5t-72 -23.5q-35 0 -69 15.5t-60 44t-42 69t-16 91.5v315h74v-315q0 -72 30.5 -112.5t84.5 -40.5q24 0 46 11t38.5 31t26.5 47.5t10 59.5v319h74v-533q0 -44 -14.5 -82t-41 -66.5t-63 -45
t-79.5 -16.5q-90 0 -154 69zM204 626q0 30 28 42q7 4 18 4q30 0 42 -27l3 -10q1 -3 1 -9q0 -30 -28 -42q-7 -4 -18 -4q-30 0 -42 27l-3 10q-1 3 -1 9z" />
    <glyph glyph-name="uni1E96" unicode="&#x1e96;" horiz-adv-x="520" 
d="M142 0h-74v710h74v-260q22 27 39.5 43.5t33.5 25.5t31.5 12.5t34.5 3.5q80 0 125.5 -53t45.5 -161v-321h-74v321q0 147 -97 147q-26 0 -51 -12t-44.5 -32.5t-31.5 -47t-12 -54.5v-322zM114 -67h295v-66h-295v66z" />
    <glyph glyph-name="uni1E9E" unicode="&#x1e9e;" horiz-adv-x="638" 
d="M319 711h288l-198 -302q49 -19 84 -36q42 -19 66.5 -41.5t34.5 -51t10 -71.5t-18.5 -81t-50.5 -66t-76.5 -44.5t-96.5 -17.5v69q33 0 63 11t52 30.5t35 46t13 58.5q0 48 -46 83q-39 31 -108 54l-70 21l179 269h-161q-83 0 -129.5 -68.5t-46.5 -192.5v-381h-79v381
q0 82 18 144t51.5 103t80.5 62t105 21z" />
    <glyph glyph-name="figuredash" unicode="&#x2012;" horiz-adv-x="551" 
d="M88 330h375v-66h-375v66z" />
    <glyph glyph-name="endash" unicode="&#x2013;" horiz-adv-x="509" 
d="M88 330h335v-66h-335v66z" />
    <glyph glyph-name="emdash" unicode="&#x2014;" horiz-adv-x="650" 
d="M78 330h493v-66h-493v66z" />
    <glyph glyph-name="quoteleft" unicode="&#x2018;" horiz-adv-x="208" 
d="M41.0098 586.003q0 66.9961 56.9961 148.991l3 4.99902l26.999 -14.999q-34.998 -52.9961 -34.998 -86.9941q34.998 0 47.9971 -30.998l3 -10q1 -3 1 -10.999q0 -21.999 -13 -36.998q-12.999 -14.999 -38.9971 -14.999q-33.998 0 -47.9971 29.998l-3 11
q-1 1.99902 -1 7.99902v3z" />
    <glyph glyph-name="quoteright" unicode="&#x2019;" horiz-adv-x="208" 
d="M160 684q0 -67 -57 -149l-3 -5l-27 15q35 53 35 87q-35 0 -48 31l-3 10q-1 3 -1 11q0 22 13 37t39 15q34 0 48 -30l3 -11q1 -2 1 -8v-3z" />
    <glyph glyph-name="quotesinglbase" unicode="&#x201a;" horiz-adv-x="208" 
d="M166 54q0 -67 -57 -149l-3 -5l-27 15q35 53 35 87q-35 0 -48 31l-3 10q-1 3 -1 11q0 22 13 37t39 15q34 0 48 -30l3 -11q1 -2 1 -8v-3z" />
    <glyph glyph-name="quotereversed" unicode="&#x201b;" horiz-adv-x="208" 
d="M57.0098 586.003q0 66.9961 56.9961 148.991l3 4.99902l26.999 -14.999q-34.998 -52.9961 -34.998 -86.9941q34.998 0 47.9971 -30.998l3 -10q1 -3 1 -10.999q0 -21.999 -13 -36.998q-12.999 -14.999 -38.9971 -14.999q-33.998 0 -47.9971 29.998l-3 11
q-1 1.99902 -1 7.99902v3z" />
    <glyph glyph-name="quotedblleft" unicode="&#x201c;" horiz-adv-x="351" 
d="M206.01 586.003q0 66.9961 56.9961 148.991l3 4.99902l26.999 -14.999q-34.998 -52.9961 -34.998 -86.9941q34.998 0 47.9971 -30.998l3 -10q1 -3 1 -10.999q0 -21.999 -13 -36.998q-12.999 -14.999 -38.9971 -14.999q-33.998 0 -47.9971 29.998l-3 11
q-1 1.99902 -1 7.99902v3zM45.0098 587.003q0 66.9961 56.9961 148.991l3 4.99902l26.999 -14.999q-34.998 -52.9961 -34.998 -86.9941q34.998 0 47.9971 -30.998l3 -10q1 -3 1 -10.999q0 -21.999 -13 -36.998q-12.999 -14.999 -38.9971 -14.999q-33.998 0 -47.9971 29.998
l-3 11q-1 1.99902 -1 7.99902v3z" />
    <glyph glyph-name="quotedblright" unicode="&#x201d;" horiz-adv-x="351" 
d="M326 684q0 -67 -57 -149l-3 -5l-27 15q35 53 35 87q-35 0 -48 31l-3 10q-1 3 -1 11q0 22 13 37t39 15q34 0 48 -30l3 -11q1 -2 1 -8v-3zM166 685q0 -67 -57 -149l-3 -5l-27 15q35 53 35 87q-35 0 -48 31l-3 10q-1 3 -1 11q0 22 13 37t39 15q34 0 48 -30l3 -11q1 -2 1 -8
v-3z" />
    <glyph glyph-name="quotedblbase" unicode="&#x201e;" horiz-adv-x="356" 
d="M339 53q0 -67 -57 -149l-3 -5l-27 15q35 53 35 87q-35 0 -48 31l-3 10q-1 3 -1 11q0 22 13 37t39 15q34 0 48 -30l3 -11q1 -2 1 -8v-3zM179 54q0 -67 -57 -149l-3 -5l-27 15q35 53 35 87q-35 0 -48 31l-3 10q-1 3 -1 11q0 22 13 37t39 15q34 0 48 -30l3 -11q1 -2 1 -8v-3
z" />
    <glyph glyph-name="uni201F" unicode="&#x201f;" horiz-adv-x="356" 
d="M216.01 583.003q0 66.9961 56.9961 148.991l3 4.99902l26.999 -14.999q-34.998 -52.9961 -34.998 -86.9941q34.998 0 47.9971 -30.998l3 -10q1 -3 1 -10.999q0 -21.999 -13 -36.998q-12.999 -14.999 -38.9971 -14.999q-33.998 0 -47.9971 29.998l-3 11
q-1 1.99902 -1 7.99902v3zM55.0098 584.003q0 66.9961 56.9961 148.991l3 4.99902l26.999 -14.999q-34.998 -52.9961 -34.998 -86.9941q34.998 0 47.9971 -30.998l3 -10q1 -3 1 -10.999q0 -21.999 -13 -36.998q-12.999 -14.999 -38.9971 -14.999q-33.998 0 -47.9971 29.998
l-3 11q-1 1.99902 -1 7.99902v3z" />
    <glyph glyph-name="dagger" unicode="&#x2020;" horiz-adv-x="200" 
d="M65 0v464h-131v69h131v177h70v-177h130v-69h-130v-464h-70z" />
    <glyph glyph-name="daggerdbl" unicode="&#x2021;" horiz-adv-x="200" 
d="M-66 464v69h131v177h70v-177h130v-69h-130v-218h130v-69h-130v-177h-70v177h-131v69h131v218h-131z" />
    <glyph glyph-name="bullet" unicode="&#x2022;" horiz-adv-x="312" 
d="M29 300q0 65 54 103q33 23 74 23q67 0 105 -54q15 -21 20 -46q3 -13 3 -26q0 -65 -54 -103q-33 -23 -74 -23q-67 0 -105 54q-15 21 -20 46q-3 13 -3 26z" />
    <glyph glyph-name="uni2023" unicode="&#x2023;" horiz-adv-x="312" 
d="M97 409l177 -109l-176 -106z" />
    <glyph glyph-name="onedotenleader" unicode="&#x2024;" horiz-adv-x="218" 
d="M56 46q0 22 13 37t39 15q34 0 48 -30l3 -11q1 -2 1 -8q0 -23 -12.5 -39t-39.5 -16q-35 0 -48 30l-3 11q-1 3 -1 11z" />
    <glyph glyph-name="twodotenleader" unicode="&#x2025;" horiz-adv-x="442" 
d="M56 46q0 22 13 37t39 15q34 0 48 -30l3 -11q1 -2 1 -8q0 -23 -12.5 -39t-39.5 -16q-35 0 -48 30l-3 11q-1 3 -1 11zM280 46q0 22 13 37t39 15q34 0 48 -30l3 -11q1 -2 1 -8q0 -23 -12.5 -39t-39.5 -16q-35 0 -48 30l-3 11q-1 3 -1 11z" />
    <glyph glyph-name="ellipsis" unicode="&#x2026;" horiz-adv-x="654" 
d="M56 46q0 22 13 37t39 15q34 0 48 -30l3 -11q1 -2 1 -8q0 -23 -12.5 -39t-39.5 -16q-35 0 -48 30l-3 11q-1 3 -1 11zM492 46q0 22 13 37t39 15q34 0 48 -30l3 -11q1 -2 1 -8q0 -23 -12.5 -39t-39.5 -16q-35 0 -48 30l-3 11q-1 3 -1 11zM280 46q0 22 13 37t39 15
q34 0 48 -30l3 -11q1 -2 1 -8q0 -23 -12.5 -39t-39.5 -16q-35 0 -48 30l-3 11q-1 3 -1 11z" />
    <glyph glyph-name="perthousand" unicode="&#x2030;" horiz-adv-x="1024" 
d="M440 182q0 -35 19.5 -55t49.5 -20q29 0 50.5 20t21.5 55q0 32 -21 52.5t-51 20.5q-25 0 -47 -19t-22 -54zM377 182q0 25 9.5 49t27 42.5t42 29.5t54.5 11q24 0 48 -8.5t43 -25.5t31 -41.5t12 -56.5q0 -26 -10 -49.5t-28 -41.5t-42.5 -29t-53.5 -11q-24 0 -48 8.5
t-42.5 25t-30.5 41t-12 56.5zM118 526q0 -35 19 -55t51 -20q29 0 50.5 20t21.5 55q0 32 -21 52.5t-51 20.5q-26 0 -48 -19t-22 -54zM56 526q0 25 9.5 49t27 42.5t42 29.5t54.5 11q24 0 48 -8.5t43 -25.5t31 -41.5t12 -56.5q0 -26 -10 -49.5t-28 -41.5t-42.5 -29t-53.5 -11
q-24 0 -48 8.5t-42.5 25t-30.5 41t-12 56.5zM212 67h-73l352 577h70zM759 182q0 -35 19.5 -55t49.5 -20q29 0 50.5 20t21.5 55q0 32 -21 52.5t-51 20.5q-25 0 -47 -19t-22 -54zM696 182q0 25 9.5 49t27 42.5t42 29.5t54.5 11q24 0 48 -8.5t43 -25.5t31 -41.5t12 -56.5
q0 -26 -10 -49.5t-28 -41.5t-42.5 -29t-53.5 -11q-24 0 -48 8.5t-42.5 25t-30.5 41t-12 56.5z" />
    <glyph glyph-name="uni2031" unicode="&#x2031;" horiz-adv-x="1343" 
d="M440 182q0 -35 19.5 -55t49.5 -20q29 0 50.5 20t21.5 55q0 32 -21 52.5t-51 20.5q-25 0 -47 -19t-22 -54zM377 182q0 25 9.5 49t27 42.5t42 29.5t54.5 11q24 0 48 -8.5t43 -25.5t31 -41.5t12 -56.5q0 -26 -10 -49.5t-28 -41.5t-42.5 -29t-53.5 -11q-24 0 -48 8.5
t-42.5 25t-30.5 41t-12 56.5zM118 526q0 -35 19 -55t51 -20q29 0 50.5 20t21.5 55q0 32 -21 52.5t-51 20.5q-26 0 -48 -19t-22 -54zM56 526q0 25 9.5 49t27 42.5t42 29.5t54.5 11q24 0 48 -8.5t43 -25.5t31 -41.5t12 -56.5q0 -26 -10 -49.5t-28 -41.5t-42.5 -29t-53.5 -11
q-24 0 -48 8.5t-42.5 25t-30.5 41t-12 56.5zM212 67h-73l352 577h70zM759 182q0 -35 19.5 -55t49.5 -20q29 0 50.5 20t21.5 55q0 32 -21 52.5t-51 20.5q-25 0 -47 -19t-22 -54zM696 182q0 25 9.5 49t27 42.5t42 29.5t54.5 11q24 0 48 -8.5t43 -25.5t31 -41.5t12 -56.5
q0 -26 -10 -49.5t-28 -41.5t-42.5 -29t-53.5 -11q-24 0 -48 8.5t-42.5 25t-30.5 41t-12 56.5zM1078 182q0 -35 19.5 -55t49.5 -20q29 0 50.5 20t21.5 55q0 32 -21 52.5t-51 20.5q-25 0 -47 -19t-22 -54zM1015 182q0 25 9.5 49t27 42.5t42 29.5t54.5 11q24 0 48 -8.5
t43 -25.5t31 -41.5t12 -56.5q0 -26 -10 -49.5t-28 -41.5t-42.5 -29t-53.5 -11q-24 0 -48 8.5t-42.5 25t-30.5 41t-12 56.5z" />
    <glyph glyph-name="guilsinglleft" unicode="&#x2039;" horiz-adv-x="250" 
d="M128 442h66l-94 -142l94 -142h-66l-94 142z" />
    <glyph glyph-name="guilsinglright" unicode="&#x203a;" horiz-adv-x="280" 
d="M119 442l94 -142l-94 -142h-66l94 142l-94 142h66z" />
    <glyph glyph-name="uni2043" unicode="&#x2043;" horiz-adv-x="443" 
d="M58 376h331v-145h-331v145z" />
    <glyph glyph-name="fraction" unicode="&#x2044;" horiz-adv-x="307" 
d="M17 0h-77l350 754h77z" />
    <glyph glyph-name="uni204B" unicode="&#x204b;" horiz-adv-x="582" 
d="M64 0v682h96q122 0 212 -37q128 -54 128 -159q0 -22 -4 -40q-6 -30 -22 -52q-39 -54 -160 -80v-314h-250zM244 304h-1l-105 -5v-233h106v238zM314 378q18 5 29 8q73 23 85 76q2 11 2 24t-3 24q-15 57 -113 89v-221zM243 615l-105 6v-260h1l105 4v250h-1z" />
    <glyph glyph-name="uni204C" unicode="&#x204c;" horiz-adv-x="582" 
d="M320 429v-250l105 -4h1v260l-105 -6h-1zM426 113l-105 5h-1l-70 10q-121 26 -160 80q-16 22 -22 52q-4 18 -4 40q0 105 128 159q90 37 212 37h96v-380z" />
    <glyph glyph-name="uni204D" unicode="&#x204d;" horiz-adv-x="582" 
d="M64 116v380h96q122 0 212 -37q128 -54 128 -159q0 -22 -4 -40q-6 -30 -22 -52q-39 -54 -160 -80l-70 -10h-1l-105 -5zM243 429l-105 6v-260h1l105 4v250h-1z" />
    <glyph glyph-name="uni204F" unicode="&#x204f;" horiz-adv-x="213" 
d="M65 49q0 6 1 8l3 11q14 30 48 30q26 0 39 -15t13 -37q0 -8 -1 -11l-3 -10q-13 -31 -48 -31q0 -34 35 -87l-27 -15l-3 5q-57 82 -57 149v3zM170 402q0 -8 -1 -11l-3 -11q-13 -30 -48 -30q-27 0 -39.5 16t-12.5 39q0 6 1 8l3 11q14 30 48 30q26 0 39 -15t13 -37z" />
    <glyph glyph-name="uni2052" unicode="&#x2052;" horiz-adv-x="705" 
d="M440 182q0 -35 19.5 -55t49.5 -20q29 0 50.5 20t21.5 55q0 32 -21 52.5t-51 20.5q-25 0 -47 -19t-22 -54zM118 526q0 -35 19 -55t51 -20q29 0 50.5 20t21.5 55q0 32 -21 52.5t-51 20.5q-26 0 -48 -19t-22 -54zM212 67h-73l352 577h70z" />
    <glyph glyph-name="uni20A0" unicode="&#x20a0;" 
d="M208 0v200q-54 22 -87.5 77t-33.5 138q0 46 13 88t36 73.5t56 50t73 18.5q43 0 75 -19.5t64 -66.5l-61 -31q-36 49 -78 49q-21 0 -39.5 -12t-33 -33t-23 -51t-8.5 -66q0 -42 12.5 -75.5t34.5 -55.5v152h279v-68h-208v-110h196v-69h-196v-121h208v-68h-279z" />
    <glyph glyph-name="colonmonetary" unicode="&#x20a1;" 
d="M517 135q-40 -60 -87 -86.5t-110 -26.5q-12 0 -24 1.5t-24 3.5l-7 -27h-77l14 53q-15 8 -31 21l-20 -74h-77l38 141q-26 41 -40.5 94t-14.5 119q0 60 14.5 114.5t40.5 98t63.5 74t82.5 43.5l19 70h77l-17 -62q10 0 19 -1t17 -3l18 66h77l-25 -94q37 -24 68 -71l-58 -29
q-12 18 -29 32l-135 -504q8 -2 15.5 -3t15.5 -1q39 0 70.5 13t52.5 42l18 25zM357 626q-20 5 -36 5l-129 -479q12 -15 29 -30zM237 604q-49 -33 -78 -99.5t-29 -150.5q0 -54 12 -100z" />
    <glyph glyph-name="uni20A2" unicode="&#x20a2;" 
d="M480 143l63 -33q-45 -66 -97 -95.5t-122 -29.5q-59 0 -112.5 24.5t-93.5 72t-63.5 116t-23.5 156.5q0 78 21.5 146.5t60.5 119.5t93 80.5t119 29.5q72 0 122.5 -29t88.5 -86l-64 -32q-23 33 -62.5 55.5t-84.5 22.5h-1q-45 0 -84 -24t-67.5 -65.5t-44.5 -97.5t-16 -120
q0 -50 10 -94.5t28.5 -81t44 -64t55.5 -42.5v452h74v-74q8 16 21 32t29 28t33 19.5t34 7.5q56 0 100 -27l-32 -60q-32 20 -68 20q-23 0 -44 -11.5t-37 -32t-26 -49.5t-10 -63v-260q43 0 78 14.5t58 46.5z" />
    <glyph glyph-name="franc" unicode="&#x20a3;" 
d="M91 0v184h-58v66h58v105h-58v66h58v290h450v-69h-373v-221h352v-66h-352v-105h352v-66h-352v-184h-77z" />
    <glyph glyph-name="lira" unicode="&#x20a4;" 
d="M49 426h116q12 276 121 289q4 1 12 1q108 0 160 -145l-70 -3q-16 64 -65 79q-11 4 -25 4q-28 0 -47 -93q-12 -53 -12 -102v-30h176v-69h-176l-3 -66h179v-69h-188q-7 -34 -18 -72.5t-25 -83.5h246q27 0 48 24l9 11l39 -56q-22 -33 -81 -42l-21 -3h-346l41 122
q9 28 16.5 52.5t12.5 47.5h-99v69h110l5 66h-115v69z" />
    <glyph glyph-name="uni20A5" unicode="&#x20a5;" horiz-adv-x="650" 
d="M642 0h-74v319q0 75 -21 112t-57 37q-21 0 -38 -7l-90 -196v-265h-74v106l-100 -216h-77l177 382v49q0 72 -20.5 109.5t-57.5 37.5q-24 0 -47 -11.5t-41 -31t-29 -46t-11 -57.5v-322h-74v524h74v-74q31 48 60.5 66.5t67.5 18.5q99 0 135 -100q22 34 45 57l71 153h77
l-51 -110h3q81 1 116.5 -52t35.5 -164v-319z" />
    <glyph glyph-name="uni20A6" unicode="&#x20a6;" horiz-adv-x="645" 
d="M637 250v-66h-58v-184h-71l-116 184h-249v-184h-77v184h-58v66h58v105h-58v66h58v290h75l184 -290h177v290h77v-290h58v-66h-58v-105h58zM143 250h208l-66 105h-142v-105zM434 250h68v105h-135zM143 421h100l-100 160v-160zM502 144v40h-26z" />
    <glyph glyph-name="peseta" unicode="&#x20a7;" horiz-adv-x="936" 
d="M416 103v355h-69v66h69v122h74v-122h96v-66h-96v-353q0 -59 57 -57l200 4q21 0 40 7t34 19t23.5 29t8.5 38q0 61 -106 95q-50 16 -82.5 32.5t-52 35t-27.5 39t-8 43.5q0 30 12 56.5t34 46.5t53.5 31.5t70.5 11.5h3q30 0 58.5 -7.5t52 -22t39 -35t20.5 -46.5l-69 -14
q-20 59 -103 59q-18 0 -35.5 -5.5t-31 -15.5t-21.5 -24.5t-8 -31.5q0 -50 75 -75l21 -7q52 -17 86.5 -35.5t55.5 -39t29.5 -43t8.5 -48.5q0 -32 -13.5 -61t-37.5 -50.5t-56.5 -34.5t-71.5 -13h-202q-74 0 -102.5 29.5t-28.5 87.5zM8 0v711h104q60 0 109 -12.5t84 -37.5
t54.5 -62.5t19.5 -87.5q0 -94 -69 -148.5t-198 -54.5h-27v-308h-77zM85 642v-264h27q188 0 188 133q0 131 -188 131h-27z" />
    <glyph glyph-name="uni20A8" unicode="&#x20a8;" horiz-adv-x="803" 
d="M795 145q0 -36 -18 -65.5t-45.5 -50.5t-62 -32t-67.5 -11q-39 0 -77.5 5t-74 18t-66 35.5t-53.5 56.5l-141 207h-105v-308h-77v711h178q47 0 95 -10.5t86.5 -34t62.5 -62t24 -93.5q0 -40 -14 -72.5t-38 -57t-56.5 -41t-69.5 -23.5q32 -48 62.5 -95t63.5 -93
q20 -28 41.5 -43.5t45.5 -23t51.5 -9t59.5 -1.5q19 0 40 6t39 18t29.5 29.5t11.5 39.5q0 30 -20.5 49t-51 32.5t-66.5 25.5t-66.5 29.5t-51 42.5t-20.5 66q0 36 15 63.5t39 45.5t55 27.5t64 9.5q26 0 54 -6.5t52 -20.5t41 -35t23 -49l-69 -14q-11 34 -41 46.5t-62 12.5
q-17 0 -34 -5t-30.5 -15t-22.5 -24.5t-9 -32.5q0 -27 20.5 -43.5t51 -29.5t66.5 -26t66.5 -31.5t51 -46.5t20.5 -71zM374 511q0 41 -17 66.5t-44 40t-60.5 19.5t-66.5 5h-101v-264h101q34 0 67.5 5.5t60.5 20t43.5 40.5t16.5 67z" />
    <glyph glyph-name="uni20A9" unicode="&#x20a9;" horiz-adv-x="788" 
d="M433 421l-38 179l-39 -179h77zM554 184l22 -95l13 95h-35zM199 184l14 -95l21 95h-35zM248 250l24 105h-98l15 -105h59zM470 250l-22 105h-107l-22 -105h151zM599 250l15 105h-98l24 -105h59zM780 184h-120l-28 -184h-107l-40 184h-181l-39 -184h-109l-29 184h-119v66
h108l-16 105h-92v66h82l-45 290h78l41 -290h122l61 272h95l60 -272h122l42 290h78l-46 -290h82v-66h-93l-16 -105h109v-66z" />
    <glyph glyph-name="uni20AA" unicode="&#x20aa;" horiz-adv-x="642" 
d="M557 711h77v-711h-178q-60 0 -109 12.5t-84 37.5t-54.5 62.5t-19.5 87.5v168h79v-168q0 -131 188 -131h101v642zM85 0h-77v711h178q60 0 109 -12.5t84 -37.5t54.5 -62.5t19.5 -87.5v-168h-79v168q0 131 -188 131h-101v-642z" />
    <glyph glyph-name="dong" unicode="&#x20ab;" 
d="M409 746h-27v-312h-50v32q-17 -23 -32.5 -31.5t-35.5 -8.5q-43 0 -73 39t-30 115q0 66 26.5 108.5t77.5 42.5q20 0 37 -10.5t30 -29.5v55h-73v45h73v35h50v-35h27v-45zM334 580q0 21 -5 40.5t-14.5 34t-22 23t-27.5 8.5q-23 0 -38.5 -29t-15.5 -77q0 -51 15.5 -80
t38.5 -29q14 0 26.5 8.5t22 23.5t15 34.5t5.5 42.5zM183 381h198v25h-198v-25z" />
    <glyph glyph-name="Euro" unicode="&#x20ac;" 
d="M566 110q-45 -66 -97 -95.5t-122 -29.5q-59 0 -112.5 24.5t-93.5 72t-64 115.5l-10 34h-59v69h48q-2 26 -2 54t3 56h-49v69h61q3 11 6 21q22 69 61 120t93 80.5t119 29.5q72 0 122.5 -29t88.5 -86l-64 -32q-23 33 -62.5 55.5t-84.5 22.5h-1q-45 0 -84 -24t-68 -66
q-27 -39 -43 -92h275v-69h-289q-3 -27 -3 -56q0 -28 3 -54h226v-69h-212q17 -53 44 -91q29 -40 67.5 -63t83.5 -23q43 0 78 14.5t58 46.5l20 28z" />
    <glyph glyph-name="uni20AD" unicode="&#x20ad;" horiz-adv-x="618" 
d="M610 0h-101l-318 319l-48 -50v-269h-77v336h-58v66h58v309h77v-309h37l308 309h94l-310 -309h202v-66h-200z" />
    <glyph glyph-name="uni20AE" unicode="&#x20ae;" 
d="M554 642h-223v-175l151 53v-69l-151 -53v-69l151 53v-69l-151 -53v-260h-77v233l-163 -58v69l163 58v69l-163 -58v69l163 58v202h-233v69h533v-69z" />
    <glyph glyph-name="uni20AF" unicode="&#x20af;" 
d="M398 221q0 -51 -35.5 -80t-100.5 -29h-34v-112h-63v329h97q60 0 98 -27t38 -81zM333 221q0 47 -71 47h-34v-94h34q71 0 71 47zM126 342l131 362h50l128 -362h-309zM281 596q-17 -51 -32.5 -99t-32.5 -100h132z" />
    <glyph glyph-name="uni20B0" unicode="&#x20b0;" 
d="M155 222q0 -26 8 -56t24 -55.5t39.5 -42t54.5 -16.5t57 16t44 40.5t28 54.5t10 59q0 31 -12.5 61t-34 52.5t-50.5 36.5t-61 14q-26 0 -46 -17.5t-33.5 -43t-20.5 -53.5t-7 -50zM162 711q23 0 43.5 -0.5t39.5 -3.5t38 -10t39 -20q30 -20 56 -48.5t46.5 -62.5t35.5 -70.5
t23 -70.5q9 -38 10 -85t1 -87q0 -47 -12.5 -94.5t-38 -86t-64.5 -62.5t-93 -24t-93 18.5t-64 50.5t-36.5 75.5t-11.5 93.5q0 41 12 81.5t35.5 73t58 53t80.5 20.5q26 0 45.5 -5t35.5 -14t31 -22.5t33 -30.5q0 32 -12 70.5t-32 74t-47.5 64t-57.5 41.5q-20 9 -38 10.5
t-40 1.5q-14 0 -28 -1t-28 -3l-7 72q10 1 20 1h20z" />
    <glyph glyph-name="uni20B1" unicode="&#x20b1;" 
d="M405 417h-250v-39h101q101 0 149 39zM500 605h55v-66h-34q1 -7 1.5 -13.5t0.5 -14.5t-0.5 -14.5t-1.5 -13.5h34v-66h-55q-29 -52 -90.5 -80.5t-153.5 -28.5h-101v-308h-77v417h-58v66h58v56h-58v66h58v106h178q88 0 151 -26t93 -80zM403 605q-47 37 -147 37h-101v-37h248
zM444 511q0 8 -0.5 14.5t-1.5 13.5h-287v-56h287q1 7 1.5 13.5t0.5 14.5z" />
    <glyph glyph-name="uni20B2" unicode="&#x20b2;" 
d="M499 336q0 -50 -11.5 -93t-33 -76.5t-53 -55.5t-71.5 -29v-82h-70v82q-39 7 -72.5 28t-58.5 56t-39 83t-14 108q0 51 13 97.5t37 83.5t58 62.5t76 33.5v76h70v-75q74 -11 115 -69l17 -26l-65 -32q-33 46 -67 55v-411q41 12 67 51.5t28 103.5h-45v69h119v-40zM260 154v407
q-23 -9 -42 -28t-33.5 -45.5t-22.5 -60t-8 -70.5q0 -81 31 -134t75 -69z" />
    <glyph glyph-name="uni20B3" unicode="&#x20b3;" 
d="M574 0h-83l-79 236h-251l-80 -236h-81l85 236h-85v66h109l24 66h-133v66h156l100 277h62l100 -277h156v-66h-133l24 -66h109v-66h-85zM344 434l-57 179l-55 -179h112zM386 303l-21 65h-154l-20 -65h195z" />
    <glyph glyph-name="uni20B4" unicode="&#x20b4;" 
d="M553 232h-416q-6 -15 -6 -32q0 -33 14 -60t36.5 -46t52 -29.5t60.5 -10.5q33 0 60 9.5t49 26.5t40.5 40t35.5 49l66 -39q-42 -72 -104 -113.5t-147 -41.5q-45 0 -88.5 14.5t-77.5 41.5t-55 65.5t-21 87.5q0 10 0.5 19t1.5 19h-33v66h57q14 19 37.5 35t50.5 29t54 23
t49 18h-248v66h387q29 29 29 66q0 30 -12 53.5t-31.5 39.5t-45.5 24.5t-54 8.5q-51 0 -94 -22.5t-69 -67.5l-61 39q22 31 45 54t49.5 37.5t58 21.5t71.5 7q42 0 82 -13.5t71 -39t50 -61.5t19 -81q0 -37 -14 -66h51v-66h-108q-29 -20 -60.5 -32t-64 -22t-64.5 -21t-61 -30
h358v-66z" />
    <glyph glyph-name="uni20B5" unicode="&#x20b5;" 
d="M277 0v710h70v-710h-70zM480 185q-35 -52 -74.5 -74t-91.5 -22q-44 0 -84 18.5t-70 54t-47.5 87t-17.5 117.5q0 58 16 109.5t45 89.5t69.5 60.5t89.5 22.5q54 0 91.5 -22t68.5 -67l-52 -26q-19 26 -47.5 42.5t-60.5 16.5h-1q-33 0 -61 -17.5t-48.5 -48t-32.5 -72
t-12 -88.5q0 -48 12 -88.5t33 -70t49 -46t60 -16.5t57 10.5t42 34.5l16 22z" />
    <glyph glyph-name="uni20B6" unicode="&#x20b6;" 
d="M504 -14q-69 0 -100.5 28t-31.5 85v322h-156v-421h-74v421h-72v66h72v223h74v-223h156v223h74v-223h58v-66h-58v-320q0 -51 58 -51v-64z" />
    <glyph glyph-name="uni20B7" unicode="&#x20b7;" 
d="M538 194q0 -39 -14.5 -73.5t-41 -61.5t-63 -45.5t-79.5 -24.5v-30h-41v26h-3q-38 0 -62 9v-35h-50v46q-36 17 -65 53v-99h-41v132q-5 5 -10.5 13.5t-10.5 16.5q-6 9 -12 19q-9 14 -7.5 31t15.5 25q8 5 17.5 6t20 -3t19.5 -12.5t9 -17.5v-24q3 20 15 27.5t28 7.5
q41 0 55 -42q15 23 29 32.5t31 9.5q34 0 48.5 -22t14.5 -67v-55q25 9 47 25.5t38 38.5t25 48t9 52q0 96 -178 145l-11 3q-196 54 -196 187q0 41 17 76.5t47 62t70.5 41.5t87.5 15q65 0 118 -22.5t88 -72.5l18 -25l-61 -39q-25 43 -66.5 66.5t-96.5 23.5q-30 0 -56 -9
t-45.5 -25.5t-30.5 -40t-11 -51.5q0 -34 25 -62t76 -46l70 -25q63 -23 104.5 -42t65.5 -41.5t34 -52t10 -72.5zM299 91q0 51 -22 51q-20 0 -31.5 -12t-11.5 -38v-54q29 -9 62 -9l3 1v61zM184 48v43q0 51 -22 51q-19 0 -29.5 -10t-13.5 -33q10 -17 31.5 -31t33.5 -20zM78 132
v35q0 6 -4 11t-10 5q-5 0 -6.5 -3t-1 -8t2.5 -10.5t5 -9.5q2 -4 5 -8q2 -3 4.5 -6.5t4.5 -5.5z" />
    <glyph glyph-name="uni20B8" unicode="&#x20b8;" 
d="M21 642v69h533v-69h-533zM21 573h533v-69h-223v-504h-77v504h-233v69z" />
    <glyph glyph-name="uni20B9" unicode="&#x20b9;" 
d="M510 711l-40 -70h-108q13 -17 19 -34t12 -37h116v-3l-39 -66h-74q-3 -20 -11 -42t-19 -40q-14 -21 -34 -38.5t-44 -29.5t-49 -18.5t-49 -6.5l-2 -2l222 -309v-15h-90l-233 313v63h7q11 0 21 -1t21 -1q27 0 53.5 5t49 17t39.5 31.5t26 48.5q2 7 2.5 12.5t1.5 11.5l-1 1
h-242l-1 4l41 65h190l2 2q-6 9 -16.5 21t-24.5 23t-31 18.5t-37 7.5h-123v3l40 66h405z" />
    <glyph glyph-name="uni20BA" unicode="&#x20ba;" 
d="M159 711h72v-186l217 78v-56l-217 -78v-32l217 79v-56l-217 -81v-305v-1v-1q81 11 145 63q70 56 93 142q10 39 10 78h73q0 -87 -43 -166q-30 -59 -82 -102q-47 -43 -107 -66q-78 -29 -161 -22v355l-136 -49v58l136 48v32l-136 -49v57l136 49v211z" />
    <glyph glyph-name="trademark" unicode="&#x2122;" horiz-adv-x="853" 
d="M48 711h320v-42h-134v-385h-46v385h-140v42zM412 284v427h63l134 -366l135 366h61v-427h-45v353l-126 -348h-52l-125 348v-353h-45z" />
    <glyph glyph-name="partialdiff" unicode="&#x2202;" horiz-adv-x="523" 
d="M119 222q0 -24 5 -46q16 -78 76 -111q24 -13 45 -13q62 0 105 63q34 49 34 107q0 16 -3 32q-15 71 -81 110q-36 22 -74 22q-49 0 -83 -67q-24 -47 -24 -97zM339 630q66 -75 97 -167q7 -20 11 -38t5 -34q7 -102 6 -146q0 -128 -77 -204q-56 -55 -131 -55q-139 0 -186 124
q-7 19 -12 40q-7 35 -7 74q0 109 67 177q51 51 119 51q66 0 113 -42l32 -30q0 15 -4 35q-17 80 -63 145q-13 17 -25 28l-57 42q-35 12 -78 12q-20 0 -56 -4l-7 72q13 1 40 1q93 0 160 -34z" />
    <glyph glyph-name="Delta" unicode="&#x2206;" horiz-adv-x="656" 
d="M614 0h-574l256 711h62zM512 56l-185 557l-187 -557h372z" />
    <glyph glyph-name="product" unicode="&#x220f;" horiz-adv-x="605" 
d="M64 711h477v-711h-77v642h-323v-642h-77v711z" />
    <glyph glyph-name="summation" unicode="&#x2211;" horiz-adv-x="667" 
d="M373 355l-188 -286h428v-69h-559l238 358l-232 353h539v-69h-412z" />
    <glyph glyph-name="radical" unicode="&#x221a;" horiz-adv-x="547" 
d="M0 456h144l116 -361l216 659h77l-256 -754h-74l-132 387h-91v69z" />
    <glyph glyph-name="infinity" unicode="&#x221e;" 
d="M593 356q0 -45 -14.5 -82t-39.5 -63t-58 -40.5t-70 -14.5q-51 0 -88.5 21.5t-66.5 69.5q-29 -48 -66.5 -69.5t-88.5 -21.5q-37 0 -70 14.5t-58 40.5t-39.5 63t-14.5 82q0 40 12.5 76t35.5 64t57 44.5t77 16.5q102 0 155 -92q53 92 155 92q43 0 77 -16.5t57 -44.5
t35.5 -64t12.5 -76zM524 356q0 57 -29.5 90.5t-83.5 33.5q-58 0 -88.5 -34.5t-30.5 -88.5q0 -57 31 -90.5t88 -33.5q54 0 83.5 34t29.5 89zM220 357q0 54 -30.5 88.5t-88.5 34.5q-54 0 -83.5 -33.5t-29.5 -90.5q0 -55 29.5 -89t83.5 -34q57 0 88 33.5t31 90.5z" />
    <glyph glyph-name="integral" unicode="&#x222b;" horiz-adv-x="370" 
d="M-57 -157l53 45q29 -26 44 -30q5 -2 11 -2q57 0 73 54q9 31 9 90l1 578q0 106 83 136q25 9 56 9q35 0 71 -21q11 -7 14 -9l-47 -47q-23 11 -33 11q-70 0 -70 -79v-578h-1q0 -210 -156 -210q-53 0 -108 53z" />
    <glyph glyph-name="approxequal" unicode="&#x2248;" horiz-adv-x="379" 
d="M36 422q40 33 56 40q17 7 33 7q24 0 62 -35q45 -36 68 -39q29 0 76 36l16 12v-71q-46 -35 -59 -41q-17 -7 -33 -7q-30 0 -74 39q-37 33 -57 35q-32 0 -73 -34q-12 -11 -15 -13v71zM36 240q40 33 56 40q17 7 33 7q24 0 62 -35q45 -36 68 -39q29 0 76 36l16 12v-71
q-46 -35 -59 -41q-17 -7 -33 -7q-30 0 -74 39q-37 33 -57 35q-32 0 -73 -34q-12 -11 -15 -13v71z" />
    <glyph glyph-name="notequal" unicode="&#x2260;" horiz-adv-x="463" 
d="M114 0h-77l89 175h-89v69h124l56 110h-180v69h215l98 191h77l-98 -191h99v-69h-134l-56 -110h190v-69h-225z" />
    <glyph glyph-name="lessequal" unicode="&#x2264;" horiz-adv-x="432" 
d="M294 119l-248 299l248 293h97l-249 -294l249 -298h-97zM37 69h391v-69h-391v69z" />
    <glyph glyph-name="greaterequal" unicode="&#x2265;" horiz-adv-x="438" 
d="M147 118h-97l248 299l-248 294h97l247 -293zM37 69h391v-69h-391v69z" />
    <glyph glyph-name="lozenge" unicode="&#x25ca;" horiz-adv-x="469" 
d="M387 355l-107 -355h-107l-109 355l109 356h107zM226 629l-82 -274l82 -273l82 273z" />
    </font>
</defs>
</svg>
