<?xml version="1.0" encoding="utf-8"?>
<!-- Generator: Adobe Illustrator 18.1.1, SVG Export Plug-In . SVG Version: 6.00 Build 0)  -->
<svg version="1.1" id="Layer_1" xmlns="http://www.w3.org/2000/svg" xmlns:xlink="http://www.w3.org/1999/xlink" x="0px" y="0px"
	 viewBox="116 676 791 114" enable-background="new 116 676 791 114" xml:space="preserve">
<path fill="#0E0D33" d="M381.1,764.3v11.9c0,2.6-0.9,4.2-4.2,4.2h-60c-3.3,0-4.2-1.6-4.2-4.2v-86.6c0-3.3,1.6-4.2,4.2-4.2h14.3
	c2.6,0,4.2,0.9,4.2,4.2v70.5h41.6C380.3,760.1,381.1,761.6,381.1,764.3"/>
<path fill="#0E0D33" d="M564.1,764.3v11.9c0,2.6-0.9,4.2-4.2,4.2h-63c-3.7,0-4.4-0.7-4.4-4.2v-11.4c0-3.3,1.9-5.4,1.9-5.4l39-53.9
	h-35.3c-3.3,0-4.2-1.6-4.2-4.2v-11.9c0-2.6,0.9-4.2,4.2-4.2h58.1c3.3,0,4.2,1.6,4.2,4.2v11.2c0,1.9-0.3,3.7-1.9,5.6l-38.7,53.7h40.1
	C563.2,760.1,564.1,761.6,564.1,764.3"/>
<path fill="#0E0D33" d="M658.5,689.4l-29.7,55.3v31.5c0,3.3-1.6,4.2-4.2,4.2h-14.3c-2.8,0-4.2-0.9-4.2-4.2v-31.5l-31-55.3
	c-0.7-1.6-0.3-4,2.3-4H594c3.3,0,4.7,0.3,6.8,4.4l17,31l16.3-31c1.9-3.8,3.3-4.4,6.6-4.4h15.6C659.1,685.2,659.2,687.7,658.5,689.4"
	/>
<path fill="#0E0D33" d="M747,718.8c0,20.1-13.3,33.4-38,33.4h-13.8v24c0,3.3-1.6,4.2-4.2,4.2h-14.3c-2.6,0-4.2-0.9-4.2-4.2v-86.6
	c0-2.6,0.9-4.2,4.2-4.2h32.5C733.9,685.2,747,698.9,747,718.8 M725.2,719.1c0-7.5-4.9-13.6-16.1-13.6h-13.8v26.9h13.8
	C720.3,732.6,725.2,726.5,725.2,719.1"/>
<path fill="#0E0D33" d="M905.2,689.4l-29.7,55.3v31.5c0,3.3-1.6,4.2-4.2,4.2h-14.3c-2.8,0-4.2-0.9-4.2-4.2v-31.5l-31-55.3
	c-0.7-1.6-0.3-4,2.3-4h16.6c3.3,0,4.7,0.3,6.8,4.4l17,31l16.3-31c1.9-3.8,3.3-4.4,6.6-4.4h15.6C905.7,685.2,905.9,687.7,905.2,689.4
	"/>
<path fill="#0E0D33" d="M392.5,776l30.8-86.4c1.7-3.7,2.8-4.4,5.9-4.4H443c3.1,0,4.2,0.5,5.9,4.4l31,86.4c0.7,1.9,0.2,4.2-2.6,4.2
	h-16.1c-3.7,0-4.7-1.2-5.9-4.5l-19.4-59.8l-19.4,59.8c-1.2,3.5-2.1,4.5-6.1,4.5h-15.2C392.3,780.2,391.8,777.9,392.5,776"/>
<path fill="#0E0D33" d="M742.3,776l30.8-86.4c1.7-3.7,2.8-4.4,5.9-4.4h13.8c3.1,0,4.2,0.5,5.9,4.4l31,86.4c0.7,1.9,0.2,4.2-2.6,4.2
	h-16.1c-3.7,0-4.7-1.2-5.9-4.5l-19.4-59.8l-19.4,59.8c-1.2,3.5-2.1,4.5-6.1,4.5h-15.2C742.1,780.2,741.6,777.9,742.3,776"/>
<g>
	<path fill="#EE3261" d="M124.5,784.4c-4,0-5.1-1.9-5.1-5.1v-86.4c0-4,1.9-5.1,5.1-5.1h17.3c3.1,0,5.1,1,5.1,5.1v66.8"/>
	<path fill="#0E0D33" d="M124.5,679.8l105.1,37.6c4.5,2.1,5.2,3.3,5.2,7.2v16.8c0,3.8-0.7,5.1-5.2,7.2l-105.1,37.8
		c-2.3,0.9-5.1,0.2-5.1-3.1v-19.4c0-4.5,1.4-5.8,5.6-7.2l72.6-23.8l-72.6-24c-4.2-1.4-5.6-2.6-5.6-7.3v-18.5
		C119.5,679.6,122.3,678.9,124.5,679.8"/>
	<path fill="#EE3261" d="M161.8,679.8l105.1,37.6c4.5,2.1,5.2,3.3,5.2,7.2v16.8c0,3.8-0.7,5.1-5.2,7.2l-105.1,37.8
		c-2.3,0.9-5.1,0.2-5.1-3.1v-19.4c0-4.5,1.4-5.8,5.6-7.2l72.6-23.8l-72.6-24c-4.2-1.4-5.6-2.6-5.6-7.3v-18.5
		C156.7,679.6,159.5,678.9,161.8,679.8"/>
</g>
</svg>
