<?xml version="1.0" encoding="utf-8"?>
<!-- Generator: Adobe Illustrator 18.1.1, SVG Export Plug-In . SVG Version: 6.00 Build 0)  -->
<svg version="1.1" id="Layer_1" xmlns="http://www.w3.org/2000/svg" xmlns:xlink="http://www.w3.org/1999/xlink" x="0px" y="0px"
	 viewBox="0 0 576.3 290.2" enable-background="new 0 0 576.3 290.2" xml:space="preserve">
<path fill="#0E0D33" d="M217.9,180.7v6.8c0,1.5-0.5,2.4-2.4,2.4h-34.3c-1.9,0-2.4-0.9-2.4-2.4v-49.5c0-1.9,0.9-2.4,2.4-2.4h8.2
	c1.5,0,2.4,0.5,2.4,2.4v40.3h23.8C217.4,178.3,217.9,179.2,217.9,180.7"/>
<path fill="#0E0D33" d="M322.5,180.7v6.8c0,1.5-0.5,2.4-2.4,2.4h-36c-2.1,0-2.5-0.4-2.5-2.4V181c0-1.9,1.1-3.1,1.1-3.1l22.3-30.8
	h-20.2c-1.9,0-2.4-0.9-2.4-2.4v-6.8c0-1.5,0.5-2.4,2.4-2.4h33.2c1.9,0,2.4,0.9,2.4,2.4v6.4c0,1.1-0.2,2.1-1.1,3.2l-22.1,30.7h22.9
	C322,178.3,322.5,179.2,322.5,180.7"/>
<path fill="#0E0D33" d="M376.5,137.9l-17,31.6v18c0,1.9-0.9,2.4-2.4,2.4h-8.2c-1.6,0-2.4-0.5-2.4-2.4v-18l-17.7-31.6
	c-0.4-0.9-0.2-2.3,1.3-2.3h9.5c1.9,0,2.7,0.2,3.9,2.5l9.7,17.7l9.3-17.7c1.1-2.2,1.9-2.5,3.8-2.5h8.9
	C376.8,135.5,376.9,136.9,376.5,137.9"/>
<path fill="#0E0D33" d="M427.1,154.7c0,11.5-7.6,19.1-21.7,19.1h-7.9v13.7c0,1.9-0.9,2.4-2.4,2.4h-8.2c-1.5,0-2.4-0.5-2.4-2.4v-49.5
	c0-1.5,0.5-2.4,2.4-2.4h18.6C419.6,135.5,427.1,143.3,427.1,154.7 M414.6,154.9c0-4.3-2.8-7.8-9.2-7.8h-7.9v15.4h7.9
	C411.8,162.6,414.6,159.1,414.6,154.9"/>
<path fill="#0E0D33" d="M517.5,137.9l-17,31.6v18c0,1.9-0.9,2.4-2.4,2.4h-8.2c-1.6,0-2.4-0.5-2.4-2.4v-18l-17.7-31.6
	c-0.4-0.9-0.2-2.3,1.3-2.3h9.5c1.9,0,2.7,0.2,3.9,2.5l9.7,17.7l9.3-17.7c1.1-2.2,1.9-2.5,3.8-2.5h8.9
	C517.8,135.5,517.9,136.9,517.5,137.9"/>
<path fill="#0E0D33" d="M224.4,187.4L242,138c1-2.1,1.6-2.5,3.4-2.5h7.9c1.8,0,2.4,0.3,3.4,2.5l17.7,49.4c0.4,1.1,0.1,2.4-1.5,2.4
	h-9.2c-2.1,0-2.7-0.7-3.4-2.6L249.2,153l-11.1,34.2c-0.7,2-1.2,2.6-3.5,2.6h-8.7C224.3,189.8,224,188.5,224.4,187.4"/>
<path fill="#0E0D33" d="M424.4,187.4L442,138c1-2.1,1.6-2.5,3.4-2.5h7.9c1.8,0,2.4,0.3,3.4,2.5l17.7,49.4c0.4,1.1,0.1,2.4-1.5,2.4
	h-9.2c-2.1,0-2.7-0.7-3.4-2.6L449.2,153l-11.1,34.2c-0.7,2-1.2,2.6-3.5,2.6h-8.7C424.3,189.8,424,188.5,424.4,187.4"/>
<g>
	<path fill="#EE3261" d="M71.2,192.2c-2.3,0-2.9-1.1-2.9-2.9v-49.4c0-2.3,1.1-2.9,2.9-2.9h9.9c1.8,0,2.9,0.6,2.9,2.9v38.2"/>
	<path fill="#0E0D33" d="M71.2,132.4l60.1,21.5c2.6,1.2,3,1.9,3,4.1v9.6c0,2.2-0.4,2.9-3,4.1l-60.1,21.6c-1.3,0.5-2.9,0.1-2.9-1.8
		v-11.1c0-2.6,0.8-3.3,3.2-4.1l41.5-13.6L71.5,149c-2.4-0.8-3.2-1.5-3.2-4.2v-10.6C68.3,132.3,69.9,131.9,71.2,132.4"/>
	<path fill="#EE3261" d="M92.5,132.4l60.1,21.5c2.6,1.2,3,1.9,3,4.1v9.6c0,2.2-0.4,2.9-3,4.1l-60.1,21.6c-1.3,0.5-2.9,0.1-2.9-1.8
		v-11.1c0-2.6,0.8-3.3,3.2-4.1l41.5-13.6L92.8,149c-2.4-0.8-3.2-1.5-3.2-4.2v-10.6C89.6,132.3,91.2,131.9,92.5,132.4"/>
</g>
</svg>
